<ttFont>
    <TTGlyph name=".notdef" xMin="0" yMin="0" xMax="1024" yMax="1434">
      <contour>
        <pt x="1024" y="0" on="1"/>
        <pt x="0" y="0" on="1"/>
        <pt x="0" y="1434" on="1"/>
        <pt x="1024" y="1434" on="1"/>
      </contour>
      <contour>
        <pt x="164" y="102" on="1"/>
        <pt x="860" y="102" on="1"/>
        <pt x="512" y="625" on="1"/>
      </contour>
      <contour>
        <pt x="102" y="195" on="1"/>
        <pt x="451" y="717" on="1"/>
        <pt x="102" y="1239" on="1"/>
      </contour>
      <contour>
        <pt x="573" y="717" on="1"/>
        <pt x="922" y="195" on="1"/>
        <pt x="922" y="1239" on="1"/>
      </contour>
      <contour>
        <pt x="164" y="1331" on="1"/>
        <pt x="512" y="809" on="1"/>
        <pt x="860" y="1331" on="1"/>
      </contour>
    </TTGlyph>
    <TTGlyph name="A" xMin="0" yMin="0" xMax="1210" yMax="1405">
      <contour>
        <pt x="1210" y="0" on="1"/>
        <pt x="942" y="0" on="1"/>
        <pt x="856" y="276" on="1"/>
        <pt x="338" y="276" on="1"/>
        <pt x="254" y="0" on="1"/>
        <pt x="0" y="0" on="1"/>
        <pt x="453" y="1405" on="1"/>
        <pt x="758" y="1405" on="1"/>
      </contour>
      <contour>
        <pt x="594" y="1169" on="1"/>
        <pt x="588" y="1132" on="0"/>
        <pt x="581" y="1098" on="1"/>
        <pt x="575" y="1069" on="0"/>
        <pt x="561" y="1003" on="0"/>
        <pt x="553" y="979" on="1"/>
        <pt x="410" y="510" on="1"/>
        <pt x="784" y="510" on="1"/>
        <pt x="643" y="979" on="1"/>
        <pt x="635" y="1007" on="0"/>
        <pt x="619" y="1073" on="0"/>
        <pt x="614" y="1102" on="1"/>
        <pt x="607" y="1135" on="0"/>
        <pt x="602" y="1169" on="1"/>
      </contour>
    </TTGlyph>
    <TTGlyph name="AE" xMin="-16" yMin="0" xMax="1591" yMax="1405">
      <contour>
        <pt x="915" y="0" on="1"/>
        <pt x="848" y="276" on="1"/>
        <pt x="330" y="276" on="1"/>
        <pt x="227" y="0" on="1"/>
        <pt x="-16" y="0" on="1"/>
        <pt x="522" y="1405" on="1"/>
        <pt x="1579" y="1405" on="1"/>
        <pt x="1579" y="1171" on="1"/>
        <pt x="897" y="1171" on="1"/>
        <pt x="979" y="836" on="1"/>
        <pt x="1489" y="836" on="1"/>
        <pt x="1489" y="602" on="1"/>
        <pt x="1036" y="602" on="1"/>
        <pt x="1126" y="233" on="1"/>
        <pt x="1591" y="233" on="1"/>
        <pt x="1591" y="0" on="1"/>
      </contour>
      <contour>
        <pt x="416" y="510" on="1"/>
        <pt x="793" y="510" on="1"/>
        <pt x="649" y="1118" on="1"/>
        <pt x="641" y="1118" on="1"/>
      </contour>
    </TTGlyph>
    <TTGlyph name="AEacute" xMin="-16" yMin="0" xMax="1591" yMax="1808">
      <contour>
        <pt x="1122" y="1802" on="1"/>
        <pt x="901" y="1538" on="1"/>
        <pt x="698" y="1538" on="1"/>
        <pt x="874" y="1808" on="1"/>
        <pt x="1120" y="1808" on="1"/>
      </contour>
      <contour>
        <pt x="915" y="0" on="1"/>
        <pt x="848" y="276" on="1"/>
        <pt x="330" y="276" on="1"/>
        <pt x="227" y="0" on="1"/>
        <pt x="-16" y="0" on="1"/>
        <pt x="522" y="1405" on="1"/>
        <pt x="1579" y="1405" on="1"/>
        <pt x="1579" y="1171" on="1"/>
        <pt x="897" y="1171" on="1"/>
        <pt x="979" y="836" on="1"/>
        <pt x="1489" y="836" on="1"/>
        <pt x="1489" y="602" on="1"/>
        <pt x="1036" y="602" on="1"/>
        <pt x="1126" y="233" on="1"/>
        <pt x="1591" y="233" on="1"/>
        <pt x="1591" y="0" on="1"/>
      </contour>
      <contour>
        <pt x="416" y="510" on="1"/>
        <pt x="793" y="510" on="1"/>
        <pt x="649" y="1118" on="1"/>
        <pt x="641" y="1118" on="1"/>
      </contour>
    </TTGlyph>
    <TTGlyph name="Aacute" xMin="0" yMin="0" xMax="1210" yMax="1809">
      <contour>
        <pt x="1210" y="0" on="1"/>
        <pt x="942" y="0" on="1"/>
        <pt x="856" y="276" on="1"/>
        <pt x="338" y="276" on="1"/>
        <pt x="254" y="0" on="1"/>
        <pt x="0" y="0" on="1"/>
        <pt x="453" y="1405" on="1"/>
        <pt x="758" y="1405" on="1"/>
      </contour>
      <contour>
        <pt x="594" y="1169" on="1"/>
        <pt x="588" y="1132" on="0"/>
        <pt x="581" y="1098" on="1"/>
        <pt x="575" y="1069" on="0"/>
        <pt x="561" y="1003" on="0"/>
        <pt x="553" y="979" on="1"/>
        <pt x="410" y="510" on="1"/>
        <pt x="784" y="510" on="1"/>
        <pt x="643" y="979" on="1"/>
        <pt x="635" y="1007" on="0"/>
        <pt x="619" y="1073" on="0"/>
        <pt x="614" y="1102" on="1"/>
        <pt x="607" y="1135" on="0"/>
        <pt x="602" y="1169" on="1"/>
      </contour>
      <contour>
        <pt x="889" y="1803" on="1"/>
        <pt x="668" y="1538" on="1"/>
        <pt x="465" y="1538" on="1"/>
        <pt x="641" y="1809" on="1"/>
        <pt x="887" y="1809" on="1"/>
      </contour>
    </TTGlyph>
    <TTGlyph name="Abreve" xMin="0" yMin="0" xMax="1210" yMax="1809">
      <contour>
        <pt x="1210" y="0" on="1"/>
        <pt x="942" y="0" on="1"/>
        <pt x="856" y="276" on="1"/>
        <pt x="338" y="276" on="1"/>
        <pt x="254" y="0" on="1"/>
        <pt x="0" y="0" on="1"/>
        <pt x="453" y="1405" on="1"/>
        <pt x="758" y="1405" on="1"/>
      </contour>
      <contour>
        <pt x="594" y="1169" on="1"/>
        <pt x="588" y="1132" on="0"/>
        <pt x="581" y="1098" on="1"/>
        <pt x="575" y="1069" on="0"/>
        <pt x="561" y="1003" on="0"/>
        <pt x="553" y="979" on="1"/>
        <pt x="410" y="510" on="1"/>
        <pt x="784" y="510" on="1"/>
        <pt x="643" y="979" on="1"/>
        <pt x="635" y="1007" on="0"/>
        <pt x="619" y="1073" on="0"/>
        <pt x="614" y="1102" on="1"/>
        <pt x="607" y="1135" on="0"/>
        <pt x="602" y="1169" on="1"/>
      </contour>
      <contour>
        <pt x="880" y="1809" on="1"/>
        <pt x="880" y="1770" on="0"/>
        <pt x="842" y="1692" on="0"/>
        <pt x="771" y="1629" on="0"/>
        <pt x="669" y="1590" on="0"/>
        <pt x="605" y="1590" on="1"/>
        <pt x="542" y="1590" on="0"/>
        <pt x="441" y="1629" on="0"/>
        <pt x="371" y="1692" on="0"/>
        <pt x="333" y="1770" on="0"/>
        <pt x="333" y="1809" on="1"/>
        <pt x="485" y="1809" on="1"/>
        <pt x="487" y="1798" on="0"/>
        <pt x="506" y="1774" on="0"/>
        <pt x="538" y="1754" on="0"/>
        <pt x="580" y="1741" on="0"/>
        <pt x="605" y="1741" on="1"/>
        <pt x="631" y="1741" on="0"/>
        <pt x="675" y="1754" on="0"/>
        <pt x="707" y="1774" on="0"/>
        <pt x="726" y="1798" on="0"/>
        <pt x="728" y="1809" on="1"/>
      </contour>
    </TTGlyph>
    <TTGlyph name="Acircumflex" xMin="0" yMin="0" xMax="1210" yMax="1809">
      <contour>
        <pt x="1210" y="0" on="1"/>
        <pt x="942" y="0" on="1"/>
        <pt x="856" y="276" on="1"/>
        <pt x="338" y="276" on="1"/>
        <pt x="254" y="0" on="1"/>
        <pt x="0" y="0" on="1"/>
        <pt x="453" y="1405" on="1"/>
        <pt x="758" y="1405" on="1"/>
      </contour>
      <contour>
        <pt x="594" y="1169" on="1"/>
        <pt x="588" y="1132" on="0"/>
        <pt x="581" y="1098" on="1"/>
        <pt x="575" y="1069" on="0"/>
        <pt x="561" y="1003" on="0"/>
        <pt x="553" y="979" on="1"/>
        <pt x="410" y="510" on="1"/>
        <pt x="784" y="510" on="1"/>
        <pt x="643" y="979" on="1"/>
        <pt x="635" y="1007" on="0"/>
        <pt x="619" y="1073" on="0"/>
        <pt x="614" y="1102" on="1"/>
        <pt x="607" y="1135" on="0"/>
        <pt x="602" y="1169" on="1"/>
      </contour>
      <contour>
        <pt x="882" y="1532" on="1"/>
        <pt x="698" y="1532" on="1"/>
        <pt x="607" y="1674" on="1"/>
        <pt x="515" y="1532" on="1"/>
        <pt x="331" y="1532" on="1"/>
        <pt x="507" y="1809" on="1"/>
        <pt x="708" y="1809" on="1"/>
      </contour>
    </TTGlyph>
    <TTGlyph name="Adieresis" xMin="0" yMin="0" xMax="1210" yMax="1809">
      <contour>
        <pt x="1210" y="0" on="1"/>
        <pt x="942" y="0" on="1"/>
        <pt x="856" y="276" on="1"/>
        <pt x="338" y="276" on="1"/>
        <pt x="254" y="0" on="1"/>
        <pt x="0" y="0" on="1"/>
        <pt x="453" y="1405" on="1"/>
        <pt x="758" y="1405" on="1"/>
      </contour>
      <contour>
        <pt x="594" y="1169" on="1"/>
        <pt x="588" y="1132" on="0"/>
        <pt x="581" y="1098" on="1"/>
        <pt x="575" y="1069" on="0"/>
        <pt x="561" y="1003" on="0"/>
        <pt x="553" y="979" on="1"/>
        <pt x="410" y="510" on="1"/>
        <pt x="784" y="510" on="1"/>
        <pt x="643" y="979" on="1"/>
        <pt x="635" y="1007" on="0"/>
        <pt x="619" y="1073" on="0"/>
        <pt x="614" y="1102" on="1"/>
        <pt x="607" y="1135" on="0"/>
        <pt x="602" y="1169" on="1"/>
      </contour>
      <contour>
        <pt x="530" y="1585" on="1"/>
        <pt x="325" y="1585" on="1"/>
        <pt x="325" y="1809" on="1"/>
        <pt x="530" y="1809" on="1"/>
      </contour>
      <contour>
        <pt x="888" y="1585" on="1"/>
        <pt x="683" y="1585" on="1"/>
        <pt x="683" y="1809" on="1"/>
        <pt x="888" y="1809" on="1"/>
      </contour>
    </TTGlyph>
    <TTGlyph name="Agrave" xMin="0" yMin="0" xMax="1210" yMax="1809">
      <contour>
        <pt x="1210" y="0" on="1"/>
        <pt x="942" y="0" on="1"/>
        <pt x="856" y="276" on="1"/>
        <pt x="338" y="276" on="1"/>
        <pt x="254" y="0" on="1"/>
        <pt x="0" y="0" on="1"/>
        <pt x="453" y="1405" on="1"/>
        <pt x="758" y="1405" on="1"/>
      </contour>
      <contour>
        <pt x="594" y="1169" on="1"/>
        <pt x="588" y="1132" on="0"/>
        <pt x="581" y="1098" on="1"/>
        <pt x="575" y="1069" on="0"/>
        <pt x="561" y="1003" on="0"/>
        <pt x="553" y="979" on="1"/>
        <pt x="410" y="510" on="1"/>
        <pt x="784" y="510" on="1"/>
        <pt x="643" y="979" on="1"/>
        <pt x="635" y="1007" on="0"/>
        <pt x="619" y="1073" on="0"/>
        <pt x="614" y="1102" on="1"/>
        <pt x="607" y="1135" on="0"/>
        <pt x="602" y="1169" on="1"/>
      </contour>
      <contour>
        <pt x="747" y="1538" on="1"/>
        <pt x="544" y="1538" on="1"/>
        <pt x="323" y="1803" on="1"/>
        <pt x="325" y="1809" on="1"/>
        <pt x="571" y="1809" on="1"/>
      </contour>
    </TTGlyph>
    <TTGlyph name="Amacron" xMin="0" yMin="0" xMax="1210" yMax="1733">
      <contour>
        <pt x="1210" y="0" on="1"/>
        <pt x="942" y="0" on="1"/>
        <pt x="856" y="276" on="1"/>
        <pt x="338" y="276" on="1"/>
        <pt x="254" y="0" on="1"/>
        <pt x="0" y="0" on="1"/>
        <pt x="453" y="1405" on="1"/>
        <pt x="758" y="1405" on="1"/>
      </contour>
      <contour>
        <pt x="594" y="1169" on="1"/>
        <pt x="588" y="1132" on="0"/>
        <pt x="581" y="1098" on="1"/>
        <pt x="575" y="1069" on="0"/>
        <pt x="561" y="1003" on="0"/>
        <pt x="553" y="979" on="1"/>
        <pt x="410" y="510" on="1"/>
        <pt x="784" y="510" on="1"/>
        <pt x="643" y="979" on="1"/>
        <pt x="635" y="1007" on="0"/>
        <pt x="619" y="1073" on="0"/>
        <pt x="614" y="1102" on="1"/>
        <pt x="607" y="1135" on="0"/>
        <pt x="602" y="1169" on="1"/>
      </contour>
      <contour>
        <pt x="868" y="1555" on="1"/>
        <pt x="345" y="1555" on="1"/>
        <pt x="345" y="1733" on="1"/>
        <pt x="868" y="1733" on="1"/>
      </contour>
    </TTGlyph>
    <TTGlyph name="Aogonek" xMin="0" yMin="-389" xMax="1286" yMax="1405">
      <contour>
        <pt x="1210" y="0" on="1"/>
        <pt x="1201" y="-11" on="0"/>
        <pt x="1180" y="-42" on="0"/>
        <pt x="1161" y="-79" on="0"/>
        <pt x="1149" y="-122" on="0"/>
        <pt x="1149" y="-143" on="1"/>
        <pt x="1149" y="-163" on="0"/>
        <pt x="1159" y="-200" on="0"/>
        <pt x="1180" y="-229" on="0"/>
        <pt x="1215" y="-247" on="0"/>
        <pt x="1241" y="-247" on="1"/>
        <pt x="1286" y="-247" on="1"/>
        <pt x="1286" y="-360" on="1"/>
        <pt x="1251" y="-374" on="0"/>
        <pt x="1185" y="-389" on="0"/>
        <pt x="1151" y="-389" on="1"/>
        <pt x="1116" y="-389" on="0"/>
        <pt x="1043" y="-371" on="0"/>
        <pt x="985" y="-328" on="0"/>
        <pt x="948" y="-257" on="0"/>
        <pt x="948" y="-204" on="1"/>
        <pt x="948" y="-167" on="0"/>
        <pt x="964" y="-106" on="0"/>
        <pt x="991" y="-55" on="0"/>
        <pt x="1009" y="-33" on="1"/>
        <pt x="1023" y="-16" on="0"/>
        <pt x="1037" y="0" on="1"/>
        <pt x="942" y="0" on="1"/>
        <pt x="856" y="276" on="1"/>
        <pt x="338" y="276" on="1"/>
        <pt x="254" y="0" on="1"/>
        <pt x="0" y="0" on="1"/>
        <pt x="453" y="1405" on="1"/>
        <pt x="758" y="1405" on="1"/>
        <pt x="1207" y="9" on="1"/>
      </contour>
      <contour>
        <pt x="594" y="1169" on="1"/>
        <pt x="588" y="1132" on="0"/>
        <pt x="581" y="1098" on="1"/>
        <pt x="575" y="1069" on="0"/>
        <pt x="561" y="1003" on="0"/>
        <pt x="553" y="979" on="1"/>
        <pt x="410" y="510" on="1"/>
        <pt x="784" y="510" on="1"/>
        <pt x="643" y="979" on="1"/>
        <pt x="635" y="1007" on="0"/>
        <pt x="619" y="1073" on="0"/>
        <pt x="614" y="1102" on="1"/>
        <pt x="607" y="1135" on="0"/>
        <pt x="602" y="1169" on="1"/>
      </contour>
    </TTGlyph>
    <TTGlyph name="Aring" xMin="0" yMin="0" xMax="1210" yMax="1870">
      <contour>
        <pt x="1210" y="0" on="1"/>
        <pt x="942" y="0" on="1"/>
        <pt x="856" y="276" on="1"/>
        <pt x="338" y="276" on="1"/>
        <pt x="254" y="0" on="1"/>
        <pt x="0" y="0" on="1"/>
        <pt x="453" y="1405" on="1"/>
        <pt x="758" y="1405" on="1"/>
      </contour>
      <contour>
        <pt x="594" y="1169" on="1"/>
        <pt x="588" y="1132" on="0"/>
        <pt x="581" y="1098" on="1"/>
        <pt x="575" y="1069" on="0"/>
        <pt x="561" y="1003" on="0"/>
        <pt x="553" y="979" on="1"/>
        <pt x="410" y="510" on="1"/>
        <pt x="784" y="510" on="1"/>
        <pt x="643" y="979" on="1"/>
        <pt x="635" y="1007" on="0"/>
        <pt x="619" y="1073" on="0"/>
        <pt x="614" y="1102" on="1"/>
        <pt x="607" y="1135" on="0"/>
        <pt x="602" y="1169" on="1"/>
      </contour>
      <contour>
        <pt x="607" y="1870" on="1"/>
        <pt x="648" y="1870" on="0"/>
        <pt x="720" y="1839" on="0"/>
        <pt x="773" y="1785" on="0"/>
        <pt x="803" y="1714" on="0"/>
        <pt x="803" y="1674" on="1"/>
        <pt x="803" y="1633" on="0"/>
        <pt x="772" y="1561" on="0"/>
        <pt x="719" y="1508" on="0"/>
        <pt x="647" y="1477" on="0"/>
        <pt x="607" y="1477" on="1"/>
        <pt x="567" y="1477" on="0"/>
        <pt x="495" y="1507" on="0"/>
        <pt x="441" y="1560" on="0"/>
        <pt x="410" y="1632" on="0"/>
        <pt x="410" y="1674" on="1"/>
        <pt x="410" y="1714" on="0"/>
        <pt x="441" y="1786" on="0"/>
        <pt x="494" y="1839" on="0"/>
        <pt x="566" y="1870" on="0"/>
      </contour>
      <contour>
        <pt x="607" y="1768" on="1"/>
        <pt x="566" y="1768" on="0"/>
        <pt x="512" y="1714" on="0"/>
        <pt x="512" y="1674" on="1"/>
        <pt x="512" y="1633" on="0"/>
        <pt x="566" y="1579" on="0"/>
        <pt x="607" y="1579" on="1"/>
        <pt x="626" y="1579" on="0"/>
        <pt x="660" y="1593" on="0"/>
        <pt x="686" y="1619" on="0"/>
        <pt x="701" y="1654" on="0"/>
        <pt x="701" y="1674" on="1"/>
        <pt x="701" y="1694" on="0"/>
        <pt x="686" y="1728" on="0"/>
        <pt x="660" y="1754" on="0"/>
        <pt x="626" y="1768" on="0"/>
      </contour>
    </TTGlyph>
    <TTGlyph name="Aringacute" xMin="0" yMin="0" xMax="1210" yMax="1959">
      <contour>
        <pt x="607" y="1681" on="1"/>
        <pt x="648" y="1681" on="0"/>
        <pt x="720" y="1650" on="0"/>
        <pt x="773" y="1598" on="0"/>
        <pt x="803" y="1529" on="0"/>
        <pt x="803" y="1491" on="1"/>
        <pt x="803" y="1452" on="0"/>
        <pt x="787" y="1417" on="1"/>
        <pt x="778" y="1397" on="0"/>
        <pt x="766" y="1380" on="1"/>
        <pt x="1210" y="0" on="1"/>
        <pt x="942" y="0" on="1"/>
        <pt x="856" y="276" on="1"/>
        <pt x="338" y="276" on="1"/>
        <pt x="254" y="0" on="1"/>
        <pt x="0" y="0" on="1"/>
        <pt x="445" y="1381" on="1"/>
        <pt x="434" y="1397" on="0"/>
        <pt x="425" y="1416" on="1"/>
        <pt x="410" y="1451" on="0"/>
        <pt x="410" y="1491" on="1"/>
        <pt x="410" y="1530" on="0"/>
        <pt x="441" y="1599" on="0"/>
        <pt x="494" y="1651" on="0"/>
        <pt x="566" y="1681" on="0"/>
      </contour>
      <contour>
        <pt x="594" y="1169" on="1"/>
        <pt x="588" y="1132" on="0"/>
        <pt x="581" y="1098" on="1"/>
        <pt x="575" y="1069" on="0"/>
        <pt x="561" y="1003" on="0"/>
        <pt x="553" y="979" on="1"/>
        <pt x="410" y="510" on="1"/>
        <pt x="784" y="510" on="1"/>
        <pt x="643" y="979" on="1"/>
        <pt x="635" y="1007" on="0"/>
        <pt x="619" y="1073" on="0"/>
        <pt x="614" y="1102" on="1"/>
        <pt x="607" y="1135" on="0"/>
        <pt x="602" y="1169" on="1"/>
      </contour>
      <contour>
        <pt x="910" y="1953" on="1"/>
        <pt x="721" y="1737" on="1"/>
        <pt x="518" y="1737" on="1"/>
        <pt x="662" y="1959" on="1"/>
        <pt x="908" y="1959" on="1"/>
      </contour>
      <contour>
        <pt x="607" y="1582" on="1"/>
        <pt x="566" y="1582" on="0"/>
        <pt x="512" y="1530" on="0"/>
        <pt x="512" y="1491" on="1"/>
        <pt x="512" y="1451" on="0"/>
        <pt x="566" y="1399" on="0"/>
        <pt x="607" y="1399" on="1"/>
        <pt x="626" y="1399" on="0"/>
        <pt x="660" y="1413" on="0"/>
        <pt x="686" y="1437" on="0"/>
        <pt x="701" y="1471" on="0"/>
        <pt x="701" y="1491" on="1"/>
        <pt x="701" y="1510" on="0"/>
        <pt x="686" y="1544" on="0"/>
        <pt x="660" y="1568" on="0"/>
        <pt x="626" y="1582" on="0"/>
      </contour>
    </TTGlyph>
    <TTGlyph name="Atilde" xMin="0" yMin="0" xMax="1210" yMax="1809">
      <contour>
        <pt x="1210" y="0" on="1"/>
        <pt x="942" y="0" on="1"/>
        <pt x="856" y="276" on="1"/>
        <pt x="338" y="276" on="1"/>
        <pt x="254" y="0" on="1"/>
        <pt x="0" y="0" on="1"/>
        <pt x="453" y="1405" on="1"/>
        <pt x="758" y="1405" on="1"/>
      </contour>
      <contour>
        <pt x="594" y="1169" on="1"/>
        <pt x="588" y="1132" on="0"/>
        <pt x="581" y="1098" on="1"/>
        <pt x="575" y="1069" on="0"/>
        <pt x="561" y="1003" on="0"/>
        <pt x="553" y="979" on="1"/>
        <pt x="410" y="510" on="1"/>
        <pt x="784" y="510" on="1"/>
        <pt x="643" y="979" on="1"/>
        <pt x="635" y="1007" on="0"/>
        <pt x="619" y="1073" on="0"/>
        <pt x="614" y="1102" on="1"/>
        <pt x="607" y="1135" on="0"/>
        <pt x="602" y="1169" on="1"/>
      </contour>
      <contour>
        <pt x="951" y="1809" on="1"/>
        <pt x="951" y="1767" on="0"/>
        <pt x="928" y="1678" on="0"/>
        <pt x="879" y="1605" on="0"/>
        <pt x="802" y="1559" on="0"/>
        <pt x="748" y="1559" on="1"/>
        <pt x="711" y="1559" on="0"/>
        <pt x="644" y="1583" on="0"/>
        <pt x="578" y="1611" on="0"/>
        <pt x="512" y="1635" on="0"/>
        <pt x="478" y="1635" on="1"/>
        <pt x="445" y="1635" on="0"/>
        <pt x="404" y="1601" on="0"/>
        <pt x="398" y="1559" on="1"/>
        <pt x="262" y="1559" on="1"/>
        <pt x="262" y="1601" on="0"/>
        <pt x="285" y="1690" on="0"/>
        <pt x="333" y="1762" on="0"/>
        <pt x="409" y="1809" on="0"/>
        <pt x="463" y="1809" on="1"/>
        <pt x="501" y="1809" on="0"/>
        <pt x="569" y="1785" on="0"/>
        <pt x="635" y="1757" on="0"/>
        <pt x="701" y="1733" on="0"/>
        <pt x="736" y="1733" on="1"/>
        <pt x="768" y="1733" on="0"/>
        <pt x="809" y="1765" on="0"/>
        <pt x="815" y="1809" on="1"/>
      </contour>
    </TTGlyph>
    <TTGlyph name="B" xMin="123" yMin="0" xMax="1143" yMax="1405">
      <contour>
        <pt x="123" y="1405" on="1"/>
        <pt x="727" y="1405" on="1"/>
        <pt x="810" y="1405" on="0"/>
        <pt x="950" y="1354" on="0"/>
        <pt x="1052" y="1263" on="0"/>
        <pt x="1110" y="1135" on="0"/>
        <pt x="1110" y="1057" on="1"/>
        <pt x="1110" y="996" on="0"/>
        <pt x="1077" y="893" on="0"/>
        <pt x="1019" y="812" on="0"/>
        <pt x="940" y="753" on="0"/>
        <pt x="895" y="737" on="1"/>
        <pt x="895" y="729" on="1"/>
        <pt x="947" y="713" on="0"/>
        <pt x="1038" y="649" on="0"/>
        <pt x="1105" y="559" on="0"/>
        <pt x="1143" y="444" on="0"/>
        <pt x="1143" y="377" on="1"/>
        <pt x="1143" y="288" on="0"/>
        <pt x="1076" y="149" on="0"/>
        <pt x="962" y="51" on="0"/>
        <pt x="811" y="0" on="0"/>
        <pt x="727" y="0" on="1"/>
        <pt x="123" y="0" on="1"/>
      </contour>
      <contour>
        <pt x="385" y="604" on="1"/>
        <pt x="385" y="233" on="1"/>
        <pt x="684" y="233" on="1"/>
        <pt x="725" y="233" on="0"/>
        <pt x="794" y="256" on="0"/>
        <pt x="845" y="301" on="0"/>
        <pt x="874" y="367" on="0"/>
        <pt x="874" y="410" on="1"/>
        <pt x="874" y="450" on="0"/>
        <pt x="849" y="521" on="0"/>
        <pt x="799" y="574" on="0"/>
        <pt x="723" y="604" on="0"/>
        <pt x="672" y="604" on="1"/>
      </contour>
      <contour>
        <pt x="385" y="1171" on="1"/>
        <pt x="385" y="836" on="1"/>
        <pt x="655" y="836" on="1"/>
        <pt x="702" y="836" on="0"/>
        <pt x="772" y="864" on="0"/>
        <pt x="819" y="911" on="0"/>
        <pt x="842" y="974" on="0"/>
        <pt x="842" y="1010" on="1"/>
        <pt x="842" y="1090" on="0"/>
        <pt x="746" y="1171" on="0"/>
        <pt x="668" y="1171" on="1"/>
      </contour>
    </TTGlyph>
    <TTGlyph name="C" xMin="70" yMin="-25" xMax="1145" yMax="1430">
      <contour>
        <pt x="629" y="1430" on="1"/>
        <pt x="739" y="1430" on="0"/>
        <pt x="928" y="1366" on="0"/>
        <pt x="1066" y="1233" on="0"/>
        <pt x="1145" y="1026" on="0"/>
        <pt x="1145" y="883" on="1"/>
        <pt x="877" y="883" on="1"/>
        <pt x="877" y="964" on="0"/>
        <pt x="841" y="1085" on="0"/>
        <pt x="775" y="1165" on="0"/>
        <pt x="684" y="1204" on="0"/>
        <pt x="629" y="1204" on="1"/>
        <pt x="556" y="1204" on="0"/>
        <pt x="447" y="1142" on="0"/>
        <pt x="375" y="1026" on="0"/>
        <pt x="340" y="859" on="0"/>
        <pt x="340" y="754" on="1"/>
        <pt x="340" y="651" on="1"/>
        <pt x="340" y="546" on="0"/>
        <pt x="376" y="379" on="0"/>
        <pt x="450" y="263" on="0"/>
        <pt x="562" y="201" on="0"/>
        <pt x="637" y="201" on="1"/>
        <pt x="694" y="201" on="0"/>
        <pt x="787" y="240" on="0"/>
        <pt x="853" y="319" on="0"/>
        <pt x="889" y="439" on="0"/>
        <pt x="889" y="520" on="1"/>
        <pt x="1145" y="520" on="1"/>
        <pt x="1145" y="382" on="0"/>
        <pt x="1067" y="177" on="0"/>
        <pt x="929" y="42" on="0"/>
        <pt x="740" y="-25" on="0"/>
        <pt x="629" y="-25" on="1"/>
        <pt x="497" y="-25" on="0"/>
        <pt x="289" y="63" on="0"/>
        <pt x="145" y="243" on="0"/>
        <pt x="70" y="516" on="0"/>
        <pt x="70" y="702" on="1"/>
        <pt x="70" y="888" on="0"/>
        <pt x="145" y="1162" on="0"/>
        <pt x="289" y="1342" on="0"/>
        <pt x="497" y="1430" on="0"/>
      </contour>
    </TTGlyph>
    <TTGlyph name="Cacute" xMin="70" yMin="-25" xMax="1145" yMax="1809">
      <contour>
        <pt x="629" y="1430" on="1"/>
        <pt x="739" y="1430" on="0"/>
        <pt x="928" y="1366" on="0"/>
        <pt x="1066" y="1233" on="0"/>
        <pt x="1145" y="1026" on="0"/>
        <pt x="1145" y="883" on="1"/>
        <pt x="877" y="883" on="1"/>
        <pt x="877" y="964" on="0"/>
        <pt x="841" y="1085" on="0"/>
        <pt x="775" y="1165" on="0"/>
        <pt x="684" y="1204" on="0"/>
        <pt x="629" y="1204" on="1"/>
        <pt x="556" y="1204" on="0"/>
        <pt x="447" y="1142" on="0"/>
        <pt x="375" y="1026" on="0"/>
        <pt x="340" y="859" on="0"/>
        <pt x="340" y="754" on="1"/>
        <pt x="340" y="651" on="1"/>
        <pt x="340" y="546" on="0"/>
        <pt x="376" y="379" on="0"/>
        <pt x="450" y="263" on="0"/>
        <pt x="562" y="201" on="0"/>
        <pt x="637" y="201" on="1"/>
        <pt x="694" y="201" on="0"/>
        <pt x="787" y="240" on="0"/>
        <pt x="853" y="319" on="0"/>
        <pt x="889" y="439" on="0"/>
        <pt x="889" y="520" on="1"/>
        <pt x="1145" y="520" on="1"/>
        <pt x="1145" y="382" on="0"/>
        <pt x="1067" y="177" on="0"/>
        <pt x="929" y="42" on="0"/>
        <pt x="740" y="-25" on="0"/>
        <pt x="629" y="-25" on="1"/>
        <pt x="497" y="-25" on="0"/>
        <pt x="289" y="63" on="0"/>
        <pt x="145" y="243" on="0"/>
        <pt x="70" y="516" on="0"/>
        <pt x="70" y="702" on="1"/>
        <pt x="70" y="888" on="0"/>
        <pt x="145" y="1162" on="0"/>
        <pt x="289" y="1342" on="0"/>
        <pt x="497" y="1430" on="0"/>
      </contour>
      <contour>
        <pt x="911" y="1803" on="1"/>
        <pt x="690" y="1538" on="1"/>
        <pt x="487" y="1538" on="1"/>
        <pt x="663" y="1809" on="1"/>
        <pt x="909" y="1809" on="1"/>
      </contour>
    </TTGlyph>
    <TTGlyph name="Ccaron" xMin="70" yMin="-25" xMax="1145" yMax="1809">
      <contour>
        <pt x="629" y="1430" on="1"/>
        <pt x="739" y="1430" on="0"/>
        <pt x="928" y="1366" on="0"/>
        <pt x="1066" y="1233" on="0"/>
        <pt x="1145" y="1026" on="0"/>
        <pt x="1145" y="883" on="1"/>
        <pt x="877" y="883" on="1"/>
        <pt x="877" y="964" on="0"/>
        <pt x="841" y="1085" on="0"/>
        <pt x="775" y="1165" on="0"/>
        <pt x="684" y="1204" on="0"/>
        <pt x="629" y="1204" on="1"/>
        <pt x="556" y="1204" on="0"/>
        <pt x="447" y="1142" on="0"/>
        <pt x="375" y="1026" on="0"/>
        <pt x="340" y="859" on="0"/>
        <pt x="340" y="754" on="1"/>
        <pt x="340" y="651" on="1"/>
        <pt x="340" y="546" on="0"/>
        <pt x="376" y="379" on="0"/>
        <pt x="450" y="263" on="0"/>
        <pt x="562" y="201" on="0"/>
        <pt x="637" y="201" on="1"/>
        <pt x="694" y="201" on="0"/>
        <pt x="787" y="240" on="0"/>
        <pt x="853" y="319" on="0"/>
        <pt x="889" y="439" on="0"/>
        <pt x="889" y="520" on="1"/>
        <pt x="1145" y="520" on="1"/>
        <pt x="1145" y="382" on="0"/>
        <pt x="1067" y="177" on="0"/>
        <pt x="929" y="42" on="0"/>
        <pt x="740" y="-25" on="0"/>
        <pt x="629" y="-25" on="1"/>
        <pt x="497" y="-25" on="0"/>
        <pt x="289" y="63" on="0"/>
        <pt x="145" y="243" on="0"/>
        <pt x="70" y="516" on="0"/>
        <pt x="70" y="702" on="1"/>
        <pt x="70" y="888" on="0"/>
        <pt x="145" y="1162" on="0"/>
        <pt x="289" y="1342" on="0"/>
        <pt x="497" y="1430" on="0"/>
      </contour>
      <contour>
        <pt x="730" y="1532" on="1"/>
        <pt x="529" y="1532" on="1"/>
        <pt x="353" y="1809" on="1"/>
        <pt x="537" y="1809" on="1"/>
        <pt x="629" y="1667" on="1"/>
        <pt x="720" y="1809" on="1"/>
        <pt x="904" y="1809" on="1"/>
      </contour>
    </TTGlyph>
    <TTGlyph name="Ccedilla" xMin="70" yMin="-373" xMax="1145" yMax="1430">
      <contour>
        <pt x="672" y="-68" on="1"/>
        <pt x="705" y="-70" on="0"/>
        <pt x="764" y="-88" on="0"/>
        <pt x="808" y="-121" on="0"/>
        <pt x="834" y="-172" on="0"/>
        <pt x="834" y="-207" on="1"/>
        <pt x="834" y="-258" on="0"/>
        <pt x="789" y="-323" on="0"/>
        <pt x="722" y="-360" on="0"/>
        <pt x="644" y="-373" on="0"/>
        <pt x="611" y="-373" on="1"/>
        <pt x="567" y="-373" on="0"/>
        <pt x="476" y="-364" on="0"/>
        <pt x="439" y="-356" on="1"/>
        <pt x="439" y="-256" on="1"/>
        <pt x="584" y="-256" on="1"/>
        <pt x="618" y="-256" on="0"/>
        <pt x="658" y="-236" on="0"/>
        <pt x="658" y="-207" on="1"/>
        <pt x="658" y="-182" on="0"/>
        <pt x="628" y="-158" on="0"/>
        <pt x="588" y="-158" on="1"/>
        <pt x="521" y="-158" on="1"/>
        <pt x="538" y="-19" on="1"/>
        <pt x="459" y="-9" on="0"/>
        <pt x="393" y="19" on="1"/>
        <pt x="289" y="63" on="0"/>
        <pt x="145" y="243" on="0"/>
        <pt x="70" y="516" on="0"/>
        <pt x="70" y="702" on="1"/>
        <pt x="70" y="888" on="0"/>
        <pt x="145" y="1162" on="0"/>
        <pt x="289" y="1342" on="0"/>
        <pt x="497" y="1430" on="0"/>
        <pt x="629" y="1430" on="1"/>
        <pt x="739" y="1430" on="0"/>
        <pt x="928" y="1366" on="0"/>
        <pt x="1066" y="1233" on="0"/>
        <pt x="1145" y="1026" on="0"/>
        <pt x="1145" y="883" on="1"/>
        <pt x="877" y="883" on="1"/>
        <pt x="877" y="964" on="0"/>
        <pt x="841" y="1085" on="0"/>
        <pt x="775" y="1165" on="0"/>
        <pt x="684" y="1204" on="0"/>
        <pt x="629" y="1204" on="1"/>
        <pt x="556" y="1204" on="0"/>
        <pt x="447" y="1142" on="0"/>
        <pt x="375" y="1026" on="0"/>
        <pt x="340" y="859" on="0"/>
        <pt x="340" y="754" on="1"/>
        <pt x="340" y="651" on="1"/>
        <pt x="340" y="546" on="0"/>
        <pt x="376" y="379" on="0"/>
        <pt x="450" y="263" on="0"/>
        <pt x="562" y="201" on="0"/>
        <pt x="637" y="201" on="1"/>
        <pt x="694" y="201" on="0"/>
        <pt x="787" y="240" on="0"/>
        <pt x="853" y="319" on="0"/>
        <pt x="889" y="439" on="0"/>
        <pt x="889" y="520" on="1"/>
        <pt x="1145" y="520" on="1"/>
        <pt x="1145" y="382" on="0"/>
        <pt x="1067" y="177" on="0"/>
        <pt x="929" y="42" on="0"/>
        <pt x="834" y="8" on="1"/>
        <pt x="761" y="-17" on="0"/>
        <pt x="677" y="-23" on="1"/>
      </contour>
    </TTGlyph>
    <TTGlyph name="Ccircumflex" xMin="70" yMin="-25" xMax="1145" yMax="1809">
      <contour>
        <pt x="629" y="1430" on="1"/>
        <pt x="739" y="1430" on="0"/>
        <pt x="928" y="1366" on="0"/>
        <pt x="1066" y="1233" on="0"/>
        <pt x="1145" y="1026" on="0"/>
        <pt x="1145" y="883" on="1"/>
        <pt x="877" y="883" on="1"/>
        <pt x="877" y="964" on="0"/>
        <pt x="841" y="1085" on="0"/>
        <pt x="775" y="1165" on="0"/>
        <pt x="684" y="1204" on="0"/>
        <pt x="629" y="1204" on="1"/>
        <pt x="556" y="1204" on="0"/>
        <pt x="447" y="1142" on="0"/>
        <pt x="375" y="1026" on="0"/>
        <pt x="340" y="859" on="0"/>
        <pt x="340" y="754" on="1"/>
        <pt x="340" y="651" on="1"/>
        <pt x="340" y="546" on="0"/>
        <pt x="376" y="379" on="0"/>
        <pt x="450" y="263" on="0"/>
        <pt x="562" y="201" on="0"/>
        <pt x="637" y="201" on="1"/>
        <pt x="694" y="201" on="0"/>
        <pt x="787" y="240" on="0"/>
        <pt x="853" y="319" on="0"/>
        <pt x="889" y="439" on="0"/>
        <pt x="889" y="520" on="1"/>
        <pt x="1145" y="520" on="1"/>
        <pt x="1145" y="382" on="0"/>
        <pt x="1067" y="177" on="0"/>
        <pt x="929" y="42" on="0"/>
        <pt x="740" y="-25" on="0"/>
        <pt x="629" y="-25" on="1"/>
        <pt x="497" y="-25" on="0"/>
        <pt x="289" y="63" on="0"/>
        <pt x="145" y="243" on="0"/>
        <pt x="70" y="516" on="0"/>
        <pt x="70" y="702" on="1"/>
        <pt x="70" y="888" on="0"/>
        <pt x="145" y="1162" on="0"/>
        <pt x="289" y="1342" on="0"/>
        <pt x="497" y="1430" on="0"/>
      </contour>
      <contour>
        <pt x="904" y="1532" on="1"/>
        <pt x="720" y="1532" on="1"/>
        <pt x="629" y="1674" on="1"/>
        <pt x="537" y="1532" on="1"/>
        <pt x="353" y="1532" on="1"/>
        <pt x="529" y="1809" on="1"/>
        <pt x="730" y="1809" on="1"/>
      </contour>
    </TTGlyph>
    <TTGlyph name="Cdotaccent" xMin="70" yMin="-25" xMax="1145" yMax="1809">
      <contour>
        <pt x="629" y="1430" on="1"/>
        <pt x="739" y="1430" on="0"/>
        <pt x="928" y="1366" on="0"/>
        <pt x="1066" y="1233" on="0"/>
        <pt x="1145" y="1026" on="0"/>
        <pt x="1145" y="883" on="1"/>
        <pt x="877" y="883" on="1"/>
        <pt x="877" y="964" on="0"/>
        <pt x="841" y="1085" on="0"/>
        <pt x="775" y="1165" on="0"/>
        <pt x="684" y="1204" on="0"/>
        <pt x="629" y="1204" on="1"/>
        <pt x="556" y="1204" on="0"/>
        <pt x="447" y="1142" on="0"/>
        <pt x="375" y="1026" on="0"/>
        <pt x="340" y="859" on="0"/>
        <pt x="340" y="754" on="1"/>
        <pt x="340" y="651" on="1"/>
        <pt x="340" y="546" on="0"/>
        <pt x="376" y="379" on="0"/>
        <pt x="450" y="263" on="0"/>
        <pt x="562" y="201" on="0"/>
        <pt x="637" y="201" on="1"/>
        <pt x="694" y="201" on="0"/>
        <pt x="787" y="240" on="0"/>
        <pt x="853" y="319" on="0"/>
        <pt x="889" y="439" on="0"/>
        <pt x="889" y="520" on="1"/>
        <pt x="1145" y="520" on="1"/>
        <pt x="1145" y="382" on="0"/>
        <pt x="1067" y="177" on="0"/>
        <pt x="929" y="42" on="0"/>
        <pt x="740" y="-25" on="0"/>
        <pt x="629" y="-25" on="1"/>
        <pt x="497" y="-25" on="0"/>
        <pt x="289" y="63" on="0"/>
        <pt x="145" y="243" on="0"/>
        <pt x="70" y="516" on="0"/>
        <pt x="70" y="702" on="1"/>
        <pt x="70" y="888" on="0"/>
        <pt x="145" y="1162" on="0"/>
        <pt x="289" y="1342" on="0"/>
        <pt x="497" y="1430" on="0"/>
      </contour>
      <contour>
        <pt x="738" y="1573" on="1"/>
        <pt x="519" y="1573" on="1"/>
        <pt x="519" y="1809" on="1"/>
        <pt x="738" y="1809" on="1"/>
      </contour>
    </TTGlyph>
    <TTGlyph name="D" xMin="123" yMin="0" xMax="1143" yMax="1405">
      <contour>
        <pt x="123" y="0" on="1"/>
        <pt x="123" y="1405" on="1"/>
        <pt x="580" y="1405" on="1"/>
        <pt x="711" y="1405" on="0"/>
        <pt x="920" y="1319" on="0"/>
        <pt x="1065" y="1148" on="0"/>
        <pt x="1143" y="893" on="0"/>
        <pt x="1143" y="723" on="1"/>
        <pt x="1143" y="543" on="0"/>
        <pt x="1065" y="272" on="0"/>
        <pt x="920" y="91" on="0"/>
        <pt x="711" y="0" on="0"/>
        <pt x="580" y="0" on="1"/>
      </contour>
      <contour>
        <pt x="385" y="1171" on="1"/>
        <pt x="385" y="233" on="1"/>
        <pt x="555" y="233" on="1"/>
        <pt x="628" y="233" on="0"/>
        <pt x="745" y="288" on="0"/>
        <pt x="828" y="397" on="0"/>
        <pt x="872" y="562" on="0"/>
        <pt x="872" y="672" on="1"/>
        <pt x="872" y="774" on="1"/>
        <pt x="872" y="873" on="0"/>
        <pt x="828" y="1022" on="0"/>
        <pt x="745" y="1121" on="0"/>
        <pt x="628" y="1171" on="0"/>
        <pt x="555" y="1171" on="1"/>
      </contour>
    </TTGlyph>
    <TTGlyph name="Dcaron" xMin="123" yMin="0" xMax="1143" yMax="1808">
      <contour>
        <pt x="621" y="1532" on="1"/>
        <pt x="420" y="1532" on="1"/>
        <pt x="244" y="1808" on="1"/>
        <pt x="428" y="1808" on="1"/>
        <pt x="520" y="1667" on="1"/>
        <pt x="610" y="1808" on="1"/>
        <pt x="795" y="1808" on="1"/>
      </contour>
      <contour>
        <pt x="123" y="0" on="1"/>
        <pt x="123" y="1405" on="1"/>
        <pt x="580" y="1405" on="1"/>
        <pt x="711" y="1405" on="0"/>
        <pt x="920" y="1319" on="0"/>
        <pt x="1065" y="1148" on="0"/>
        <pt x="1143" y="893" on="0"/>
        <pt x="1143" y="723" on="1"/>
        <pt x="1143" y="543" on="0"/>
        <pt x="1065" y="272" on="0"/>
        <pt x="920" y="91" on="0"/>
        <pt x="711" y="0" on="0"/>
        <pt x="580" y="0" on="1"/>
      </contour>
      <contour>
        <pt x="385" y="1171" on="1"/>
        <pt x="385" y="233" on="1"/>
        <pt x="555" y="233" on="1"/>
        <pt x="628" y="233" on="0"/>
        <pt x="745" y="288" on="0"/>
        <pt x="828" y="397" on="0"/>
        <pt x="872" y="562" on="0"/>
        <pt x="872" y="672" on="1"/>
        <pt x="872" y="774" on="1"/>
        <pt x="872" y="873" on="0"/>
        <pt x="828" y="1022" on="0"/>
        <pt x="745" y="1121" on="0"/>
        <pt x="628" y="1171" on="0"/>
        <pt x="555" y="1171" on="1"/>
      </contour>
    </TTGlyph>
    <TTGlyph name="Dcroat" xMin="20" yMin="0" xMax="1143" yMax="1405">
      <contour>
        <pt x="20" y="813" on="1"/>
        <pt x="123" y="813" on="1"/>
        <pt x="123" y="1405" on="1"/>
        <pt x="580" y="1405" on="1"/>
        <pt x="711" y="1405" on="0"/>
        <pt x="920" y="1319" on="0"/>
        <pt x="1065" y="1148" on="0"/>
        <pt x="1143" y="893" on="0"/>
        <pt x="1143" y="723" on="1"/>
        <pt x="1143" y="543" on="0"/>
        <pt x="1065" y="272" on="0"/>
        <pt x="920" y="91" on="0"/>
        <pt x="711" y="0" on="0"/>
        <pt x="580" y="0" on="1"/>
        <pt x="123" y="0" on="1"/>
        <pt x="123" y="639" on="1"/>
        <pt x="20" y="639" on="1"/>
      </contour>
      <contour>
        <pt x="385" y="1171" on="1"/>
        <pt x="385" y="813" on="1"/>
        <pt x="641" y="813" on="1"/>
        <pt x="641" y="639" on="1"/>
        <pt x="385" y="639" on="1"/>
        <pt x="385" y="233" on="1"/>
        <pt x="555" y="233" on="1"/>
        <pt x="628" y="233" on="0"/>
        <pt x="745" y="288" on="0"/>
        <pt x="828" y="397" on="0"/>
        <pt x="872" y="562" on="0"/>
        <pt x="872" y="672" on="1"/>
        <pt x="872" y="774" on="1"/>
        <pt x="872" y="873" on="0"/>
        <pt x="828" y="1022" on="0"/>
        <pt x="745" y="1121" on="0"/>
        <pt x="628" y="1171" on="0"/>
        <pt x="555" y="1171" on="1"/>
      </contour>
    </TTGlyph>
    <TTGlyph name="Delta" xMin="27" yMin="0" xMax="1164" yMax="1405">
      <contour>
        <pt x="1164" y="113" on="1"/>
        <pt x="1164" y="0" on="1"/>
        <pt x="27" y="0" on="1"/>
        <pt x="27" y="113" on="1"/>
        <pt x="443" y="1405" on="1"/>
        <pt x="748" y="1405" on="1"/>
      </contour>
      <contour>
        <pt x="584" y="1108" on="1"/>
        <pt x="316" y="233" on="1"/>
        <pt x="860" y="233" on="1"/>
        <pt x="592" y="1108" on="1"/>
      </contour>
    </TTGlyph>
    <TTGlyph name="E" xMin="123" yMin="0" xMax="1030" yMax="1405">
      <contour>
        <pt x="123" y="0" on="1"/>
        <pt x="123" y="1405" on="1"/>
        <pt x="1018" y="1405" on="1"/>
        <pt x="1018" y="1171" on="1"/>
        <pt x="385" y="1171" on="1"/>
        <pt x="385" y="836" on="1"/>
        <pt x="928" y="836" on="1"/>
        <pt x="928" y="602" on="1"/>
        <pt x="385" y="602" on="1"/>
        <pt x="385" y="233" on="1"/>
        <pt x="1030" y="233" on="1"/>
        <pt x="1030" y="0" on="1"/>
      </contour>
    </TTGlyph>
    <TTGlyph name="Eacute" xMin="123" yMin="0" xMax="1030" yMax="1808">
      <contour>
        <pt x="844" y="1802" on="1"/>
        <pt x="623" y="1538" on="1"/>
        <pt x="420" y="1538" on="1"/>
        <pt x="596" y="1808" on="1"/>
        <pt x="842" y="1808" on="1"/>
      </contour>
      <contour>
        <pt x="123" y="0" on="1"/>
        <pt x="123" y="1405" on="1"/>
        <pt x="1018" y="1405" on="1"/>
        <pt x="1018" y="1171" on="1"/>
        <pt x="385" y="1171" on="1"/>
        <pt x="385" y="836" on="1"/>
        <pt x="928" y="836" on="1"/>
        <pt x="928" y="602" on="1"/>
        <pt x="385" y="602" on="1"/>
        <pt x="385" y="233" on="1"/>
        <pt x="1030" y="233" on="1"/>
        <pt x="1030" y="0" on="1"/>
      </contour>
    </TTGlyph>
    <TTGlyph name="Ebreve" xMin="123" yMin="0" xMax="1030" yMax="1808">
      <contour>
        <pt x="834" y="1808" on="1"/>
        <pt x="834" y="1770" on="0"/>
        <pt x="796" y="1692" on="0"/>
        <pt x="725" y="1629" on="0"/>
        <pt x="623" y="1589" on="0"/>
        <pt x="559" y="1589" on="1"/>
        <pt x="496" y="1589" on="0"/>
        <pt x="395" y="1629" on="0"/>
        <pt x="325" y="1692" on="0"/>
        <pt x="287" y="1770" on="0"/>
        <pt x="287" y="1808" on="1"/>
        <pt x="438" y="1808" on="1"/>
        <pt x="440" y="1797" on="0"/>
        <pt x="460" y="1774" on="0"/>
        <pt x="491" y="1754" on="0"/>
        <pt x="534" y="1741" on="0"/>
        <pt x="559" y="1741" on="1"/>
        <pt x="585" y="1741" on="0"/>
        <pt x="629" y="1754" on="0"/>
        <pt x="661" y="1774" on="0"/>
        <pt x="680" y="1797" on="0"/>
        <pt x="682" y="1808" on="1"/>
      </contour>
      <contour>
        <pt x="123" y="0" on="1"/>
        <pt x="123" y="1405" on="1"/>
        <pt x="1018" y="1405" on="1"/>
        <pt x="1018" y="1171" on="1"/>
        <pt x="385" y="1171" on="1"/>
        <pt x="385" y="836" on="1"/>
        <pt x="928" y="836" on="1"/>
        <pt x="928" y="602" on="1"/>
        <pt x="385" y="602" on="1"/>
        <pt x="385" y="233" on="1"/>
        <pt x="1030" y="233" on="1"/>
        <pt x="1030" y="0" on="1"/>
      </contour>
    </TTGlyph>
    <TTGlyph name="Ecaron" xMin="123" yMin="0" xMax="1030" yMax="1808">
      <contour>
        <pt x="662" y="1532" on="1"/>
        <pt x="461" y="1532" on="1"/>
        <pt x="285" y="1808" on="1"/>
        <pt x="469" y="1808" on="1"/>
        <pt x="561" y="1667" on="1"/>
        <pt x="651" y="1808" on="1"/>
        <pt x="836" y="1808" on="1"/>
      </contour>
      <contour>
        <pt x="123" y="0" on="1"/>
        <pt x="123" y="1405" on="1"/>
        <pt x="1018" y="1405" on="1"/>
        <pt x="1018" y="1171" on="1"/>
        <pt x="385" y="1171" on="1"/>
        <pt x="385" y="836" on="1"/>
        <pt x="928" y="836" on="1"/>
        <pt x="928" y="602" on="1"/>
        <pt x="385" y="602" on="1"/>
        <pt x="385" y="233" on="1"/>
        <pt x="1030" y="233" on="1"/>
        <pt x="1030" y="0" on="1"/>
      </contour>
    </TTGlyph>
    <TTGlyph name="Ecircumflex" xMin="123" yMin="0" xMax="1030" yMax="1808">
      <contour>
        <pt x="836" y="1532" on="1"/>
        <pt x="651" y="1532" on="1"/>
        <pt x="561" y="1673" on="1"/>
        <pt x="469" y="1532" on="1"/>
        <pt x="285" y="1532" on="1"/>
        <pt x="461" y="1808" on="1"/>
        <pt x="662" y="1808" on="1"/>
      </contour>
      <contour>
        <pt x="123" y="0" on="1"/>
        <pt x="123" y="1405" on="1"/>
        <pt x="1018" y="1405" on="1"/>
        <pt x="1018" y="1171" on="1"/>
        <pt x="385" y="1171" on="1"/>
        <pt x="385" y="836" on="1"/>
        <pt x="928" y="836" on="1"/>
        <pt x="928" y="602" on="1"/>
        <pt x="385" y="602" on="1"/>
        <pt x="385" y="233" on="1"/>
        <pt x="1030" y="233" on="1"/>
        <pt x="1030" y="0" on="1"/>
      </contour>
    </TTGlyph>
    <TTGlyph name="Edieresis" xMin="123" yMin="0" xMax="1030" yMax="1808">
      <contour>
        <pt x="483" y="1585" on="1"/>
        <pt x="279" y="1585" on="1"/>
        <pt x="279" y="1808" on="1"/>
        <pt x="483" y="1808" on="1"/>
      </contour>
      <contour>
        <pt x="842" y="1585" on="1"/>
        <pt x="637" y="1585" on="1"/>
        <pt x="637" y="1808" on="1"/>
        <pt x="842" y="1808" on="1"/>
      </contour>
      <contour>
        <pt x="123" y="0" on="1"/>
        <pt x="123" y="1405" on="1"/>
        <pt x="1018" y="1405" on="1"/>
        <pt x="1018" y="1171" on="1"/>
        <pt x="385" y="1171" on="1"/>
        <pt x="385" y="836" on="1"/>
        <pt x="928" y="836" on="1"/>
        <pt x="928" y="602" on="1"/>
        <pt x="385" y="602" on="1"/>
        <pt x="385" y="233" on="1"/>
        <pt x="1030" y="233" on="1"/>
        <pt x="1030" y="0" on="1"/>
      </contour>
    </TTGlyph>
    <TTGlyph name="Edotaccent" xMin="123" yMin="0" xMax="1030" yMax="1808">
      <contour>
        <pt x="670" y="1573" on="1"/>
        <pt x="451" y="1573" on="1"/>
        <pt x="451" y="1808" on="1"/>
        <pt x="670" y="1808" on="1"/>
      </contour>
      <contour>
        <pt x="123" y="0" on="1"/>
        <pt x="123" y="1405" on="1"/>
        <pt x="1018" y="1405" on="1"/>
        <pt x="1018" y="1171" on="1"/>
        <pt x="385" y="1171" on="1"/>
        <pt x="385" y="836" on="1"/>
        <pt x="928" y="836" on="1"/>
        <pt x="928" y="602" on="1"/>
        <pt x="385" y="602" on="1"/>
        <pt x="385" y="233" on="1"/>
        <pt x="1030" y="233" on="1"/>
        <pt x="1030" y="0" on="1"/>
      </contour>
    </TTGlyph>
    <TTGlyph name="Egrave" xMin="123" yMin="0" xMax="1030" yMax="1808">
      <contour>
        <pt x="700" y="1538" on="1"/>
        <pt x="498" y="1538" on="1"/>
        <pt x="276" y="1802" on="1"/>
        <pt x="279" y="1808" on="1"/>
        <pt x="524" y="1808" on="1"/>
      </contour>
      <contour>
        <pt x="123" y="0" on="1"/>
        <pt x="123" y="1405" on="1"/>
        <pt x="1018" y="1405" on="1"/>
        <pt x="1018" y="1171" on="1"/>
        <pt x="385" y="1171" on="1"/>
        <pt x="385" y="836" on="1"/>
        <pt x="928" y="836" on="1"/>
        <pt x="928" y="602" on="1"/>
        <pt x="385" y="602" on="1"/>
        <pt x="385" y="233" on="1"/>
        <pt x="1030" y="233" on="1"/>
        <pt x="1030" y="0" on="1"/>
      </contour>
    </TTGlyph>
    <TTGlyph name="Emacron" xMin="123" yMin="0" xMax="1030" yMax="1733">
      <contour>
        <pt x="821" y="1554" on="1"/>
        <pt x="299" y="1554" on="1"/>
        <pt x="299" y="1733" on="1"/>
        <pt x="821" y="1733" on="1"/>
      </contour>
      <contour>
        <pt x="123" y="0" on="1"/>
        <pt x="123" y="1405" on="1"/>
        <pt x="1018" y="1405" on="1"/>
        <pt x="1018" y="1171" on="1"/>
        <pt x="385" y="1171" on="1"/>
        <pt x="385" y="836" on="1"/>
        <pt x="928" y="836" on="1"/>
        <pt x="928" y="602" on="1"/>
        <pt x="385" y="602" on="1"/>
        <pt x="385" y="233" on="1"/>
        <pt x="1030" y="233" on="1"/>
        <pt x="1030" y="0" on="1"/>
      </contour>
    </TTGlyph>
    <TTGlyph name="Eng" xMin="123" yMin="-373" xMax="1090" yMax="1405">
      <contour>
        <pt x="422" y="774" on="1"/>
        <pt x="416" y="785" on="0"/>
        <pt x="395" y="828" on="0"/>
        <pt x="384" y="850" on="1"/>
        <pt x="372" y="876" on="0"/>
        <pt x="358" y="905" on="1"/>
        <pt x="350" y="899" on="1"/>
        <pt x="351" y="876" on="0"/>
        <pt x="352" y="854" on="1"/>
        <pt x="353" y="835" on="0"/>
        <pt x="354" y="796" on="0"/>
        <pt x="354" y="782" on="1"/>
        <pt x="354" y="0" on="1"/>
        <pt x="123" y="0" on="1"/>
        <pt x="123" y="1405" on="1"/>
        <pt x="354" y="1405" on="1"/>
        <pt x="788" y="631" on="1"/>
        <pt x="796" y="617" on="0"/>
        <pt x="819" y="573" on="0"/>
        <pt x="829" y="552" on="1"/>
        <pt x="840" y="527" on="0"/>
        <pt x="852" y="500" on="1"/>
        <pt x="858" y="506" on="1"/>
        <pt x="857" y="533" on="0"/>
        <pt x="857" y="556" on="1"/>
        <pt x="856" y="576" on="0"/>
        <pt x="856" y="614" on="0"/>
        <pt x="856" y="623" on="1"/>
        <pt x="856" y="1405" on="1"/>
        <pt x="1090" y="1405" on="1"/>
        <pt x="1090" y="-84" on="1"/>
        <pt x="1090" y="-138" on="0"/>
        <pt x="1067" y="-241" on="0"/>
        <pt x="1010" y="-323" on="0"/>
        <pt x="913" y="-373" on="0"/>
        <pt x="840" y="-373" on="1"/>
        <pt x="817" y="-373" on="0"/>
        <pt x="767" y="-369" on="0"/>
        <pt x="720" y="-361" on="0"/>
        <pt x="678" y="-353" on="0"/>
        <pt x="662" y="-348" on="1"/>
        <pt x="662" y="-166" on="1"/>
        <pt x="754" y="-166" on="1"/>
        <pt x="802" y="-166" on="0"/>
        <pt x="850" y="-116" on="0"/>
        <pt x="850" y="-68" on="1"/>
        <pt x="850" y="0" on="1"/>
      </contour>
    </TTGlyph>
    <TTGlyph name="Eogonek" xMin="123" yMin="-389" xMax="1106" yMax="1405">
      <contour>
        <pt x="1018" y="1171" on="1"/>
        <pt x="385" y="1171" on="1"/>
        <pt x="385" y="836" on="1"/>
        <pt x="928" y="836" on="1"/>
        <pt x="928" y="602" on="1"/>
        <pt x="385" y="602" on="1"/>
        <pt x="385" y="233" on="1"/>
        <pt x="1030" y="233" on="1"/>
        <pt x="1030" y="0" on="1"/>
        <pt x="1021" y="-11" on="0"/>
        <pt x="1000" y="-42" on="0"/>
        <pt x="981" y="-80" on="0"/>
        <pt x="969" y="-122" on="0"/>
        <pt x="969" y="-143" on="1"/>
        <pt x="969" y="-163" on="0"/>
        <pt x="979" y="-201" on="0"/>
        <pt x="1000" y="-230" on="0"/>
        <pt x="1035" y="-248" on="0"/>
        <pt x="1061" y="-248" on="1"/>
        <pt x="1106" y="-248" on="1"/>
        <pt x="1106" y="-360" on="1"/>
        <pt x="1071" y="-374" on="0"/>
        <pt x="1005" y="-389" on="0"/>
        <pt x="971" y="-389" on="1"/>
        <pt x="936" y="-389" on="0"/>
        <pt x="863" y="-371" on="0"/>
        <pt x="805" y="-329" on="0"/>
        <pt x="768" y="-258" on="0"/>
        <pt x="768" y="-205" on="1"/>
        <pt x="768" y="-169" on="0"/>
        <pt x="782" y="-110" on="0"/>
        <pt x="807" y="-61" on="0"/>
        <pt x="840" y="-19" on="0"/>
        <pt x="858" y="0" on="1"/>
        <pt x="123" y="0" on="1"/>
        <pt x="123" y="1405" on="1"/>
        <pt x="1018" y="1405" on="1"/>
      </contour>
    </TTGlyph>
    <TTGlyph name="Eth" xMin="20" yMin="0" xMax="1143" yMax="1405">
      <contour>
        <pt x="20" y="813" on="1"/>
        <pt x="123" y="813" on="1"/>
        <pt x="123" y="1405" on="1"/>
        <pt x="580" y="1405" on="1"/>
        <pt x="711" y="1405" on="0"/>
        <pt x="920" y="1319" on="0"/>
        <pt x="1065" y="1148" on="0"/>
        <pt x="1143" y="893" on="0"/>
        <pt x="1143" y="723" on="1"/>
        <pt x="1143" y="543" on="0"/>
        <pt x="1065" y="272" on="0"/>
        <pt x="920" y="91" on="0"/>
        <pt x="711" y="0" on="0"/>
        <pt x="580" y="0" on="1"/>
        <pt x="123" y="0" on="1"/>
        <pt x="123" y="639" on="1"/>
        <pt x="20" y="639" on="1"/>
      </contour>
      <contour>
        <pt x="385" y="1171" on="1"/>
        <pt x="385" y="813" on="1"/>
        <pt x="641" y="813" on="1"/>
        <pt x="641" y="639" on="1"/>
        <pt x="385" y="639" on="1"/>
        <pt x="385" y="233" on="1"/>
        <pt x="555" y="233" on="1"/>
        <pt x="628" y="233" on="0"/>
        <pt x="745" y="288" on="0"/>
        <pt x="828" y="397" on="0"/>
        <pt x="872" y="562" on="0"/>
        <pt x="872" y="672" on="1"/>
        <pt x="872" y="774" on="1"/>
        <pt x="872" y="873" on="0"/>
        <pt x="828" y="1022" on="0"/>
        <pt x="745" y="1121" on="0"/>
        <pt x="628" y="1171" on="0"/>
        <pt x="555" y="1171" on="1"/>
      </contour>
    </TTGlyph>
    <TTGlyph name="Euro" xMin="20" yMin="-25" xMax="889" yMax="1430">
      <contour>
        <pt x="737" y="1430" on="1"/>
        <pt x="775" y="1430" on="0"/>
        <pt x="854" y="1420" on="0"/>
        <pt x="889" y="1409" on="1"/>
        <pt x="889" y="1204" on="1"/>
        <pt x="829" y="1223" on="0"/>
        <pt x="758" y="1223" on="1"/>
        <pt x="691" y="1223" on="0"/>
        <pt x="578" y="1183" on="0"/>
        <pt x="487" y="1110" on="0"/>
        <pt x="419" y="1005" on="0"/>
        <pt x="397" y="940" on="1"/>
        <pt x="766" y="940" on="1"/>
        <pt x="766" y="774" on="1"/>
        <pt x="367" y="774" on="1"/>
        <pt x="365" y="756" on="0"/>
        <pt x="365" y="738" on="1"/>
        <pt x="365" y="666" on="1"/>
        <pt x="365" y="648" on="0"/>
        <pt x="367" y="631" on="1"/>
        <pt x="766" y="631" on="1"/>
        <pt x="766" y="465" on="1"/>
        <pt x="397" y="465" on="1"/>
        <pt x="419" y="399" on="0"/>
        <pt x="487" y="294" on="0"/>
        <pt x="578" y="221" on="0"/>
        <pt x="691" y="182" on="0"/>
        <pt x="758" y="182" on="1"/>
        <pt x="829" y="182" on="0"/>
        <pt x="889" y="201" on="1"/>
        <pt x="889" y="-2" on="1"/>
        <pt x="852" y="-13" on="0"/>
        <pt x="778" y="-25" on="0"/>
        <pt x="737" y="-25" on="1"/>
        <pt x="622" y="-25" on="0"/>
        <pt x="428" y="43" on="0"/>
        <pt x="276" y="170" on="0"/>
        <pt x="170" y="351" on="0"/>
        <pt x="143" y="465" on="1"/>
        <pt x="20" y="465" on="1"/>
        <pt x="20" y="631" on="1"/>
        <pt x="121" y="631" on="1"/>
        <pt x="119" y="648" on="0"/>
        <pt x="119" y="666" on="1"/>
        <pt x="119" y="738" on="1"/>
        <pt x="119" y="756" on="0"/>
        <pt x="121" y="774" on="1"/>
        <pt x="20" y="774" on="1"/>
        <pt x="20" y="940" on="1"/>
        <pt x="143" y="940" on="1"/>
        <pt x="170" y="1054" on="0"/>
        <pt x="276" y="1235" on="0"/>
        <pt x="428" y="1362" on="0"/>
        <pt x="622" y="1430" on="0"/>
      </contour>
    </TTGlyph>
    <TTGlyph name="F" xMin="123" yMin="0" xMax="948" yMax="1405">
      <contour>
        <pt x="123" y="0" on="1"/>
        <pt x="123" y="1405" on="1"/>
        <pt x="948" y="1405" on="1"/>
        <pt x="948" y="1171" on="1"/>
        <pt x="385" y="1171" on="1"/>
        <pt x="385" y="817" on="1"/>
        <pt x="866" y="817" on="1"/>
        <pt x="866" y="584" on="1"/>
        <pt x="385" y="584" on="1"/>
        <pt x="385" y="0" on="1"/>
      </contour>
    </TTGlyph>
    <TTGlyph name="G" xMin="70" yMin="-25" xMax="1202" yMax="1430">
      <contour>
        <pt x="666" y="1430" on="1"/>
        <pt x="772" y="1430" on="0"/>
        <pt x="966" y="1363" on="0"/>
        <pt x="1114" y="1232" on="0"/>
        <pt x="1202" y="1039" on="0"/>
        <pt x="1202" y="913" on="1"/>
        <pt x="934" y="913" on="1"/>
        <pt x="934" y="985" on="0"/>
        <pt x="890" y="1093" on="0"/>
        <pt x="815" y="1167" on="0"/>
        <pt x="714" y="1204" on="0"/>
        <pt x="657" y="1204" on="1"/>
        <pt x="575" y="1204" on="0"/>
        <pt x="455" y="1142" on="0"/>
        <pt x="377" y="1026" on="0"/>
        <pt x="340" y="859" on="0"/>
        <pt x="340" y="754" on="1"/>
        <pt x="340" y="651" on="1"/>
        <pt x="340" y="544" on="0"/>
        <pt x="378" y="376" on="0"/>
        <pt x="457" y="261" on="0"/>
        <pt x="577" y="201" on="0"/>
        <pt x="659" y="201" on="1"/>
        <pt x="719" y="201" on="0"/>
        <pt x="820" y="249" on="0"/>
        <pt x="893" y="337" on="0"/>
        <pt x="934" y="462" on="0"/>
        <pt x="934" y="539" on="1"/>
        <pt x="618" y="539" on="1"/>
        <pt x="618" y="764" on="1"/>
        <pt x="1202" y="764" on="1"/>
        <pt x="1202" y="0" on="1"/>
        <pt x="1032" y="0" on="1"/>
        <pt x="987" y="156" on="1"/>
        <pt x="919" y="66" on="0"/>
        <pt x="724" y="-25" on="0"/>
        <pt x="612" y="-25" on="1"/>
        <pt x="483" y="-25" on="0"/>
        <pt x="281" y="62" on="0"/>
        <pt x="143" y="241" on="0"/>
        <pt x="70" y="515" on="0"/>
        <pt x="70" y="702" on="1"/>
        <pt x="70" y="888" on="0"/>
        <pt x="150" y="1162" on="0"/>
        <pt x="302" y="1342" on="0"/>
        <pt x="524" y="1430" on="0"/>
      </contour>
    </TTGlyph>
    <TTGlyph name="Gbreve" xMin="70" yMin="-25" xMax="1202" yMax="1809">
      <contour>
        <pt x="666" y="1430" on="1"/>
        <pt x="772" y="1430" on="0"/>
        <pt x="966" y="1363" on="0"/>
        <pt x="1114" y="1232" on="0"/>
        <pt x="1202" y="1039" on="0"/>
        <pt x="1202" y="913" on="1"/>
        <pt x="934" y="913" on="1"/>
        <pt x="934" y="985" on="0"/>
        <pt x="890" y="1093" on="0"/>
        <pt x="815" y="1167" on="0"/>
        <pt x="714" y="1204" on="0"/>
        <pt x="657" y="1204" on="1"/>
        <pt x="575" y="1204" on="0"/>
        <pt x="455" y="1142" on="0"/>
        <pt x="377" y="1026" on="0"/>
        <pt x="340" y="859" on="0"/>
        <pt x="340" y="754" on="1"/>
        <pt x="340" y="651" on="1"/>
        <pt x="340" y="544" on="0"/>
        <pt x="378" y="376" on="0"/>
        <pt x="457" y="261" on="0"/>
        <pt x="577" y="201" on="0"/>
        <pt x="659" y="201" on="1"/>
        <pt x="719" y="201" on="0"/>
        <pt x="820" y="249" on="0"/>
        <pt x="893" y="337" on="0"/>
        <pt x="934" y="462" on="0"/>
        <pt x="934" y="539" on="1"/>
        <pt x="618" y="539" on="1"/>
        <pt x="618" y="764" on="1"/>
        <pt x="1202" y="764" on="1"/>
        <pt x="1202" y="0" on="1"/>
        <pt x="1032" y="0" on="1"/>
        <pt x="987" y="156" on="1"/>
        <pt x="919" y="66" on="0"/>
        <pt x="724" y="-25" on="0"/>
        <pt x="612" y="-25" on="1"/>
        <pt x="483" y="-25" on="0"/>
        <pt x="281" y="62" on="0"/>
        <pt x="143" y="241" on="0"/>
        <pt x="70" y="515" on="0"/>
        <pt x="70" y="702" on="1"/>
        <pt x="70" y="888" on="0"/>
        <pt x="150" y="1162" on="0"/>
        <pt x="302" y="1342" on="0"/>
        <pt x="524" y="1430" on="0"/>
      </contour>
      <contour>
        <pt x="928" y="1809" on="1"/>
        <pt x="928" y="1770" on="0"/>
        <pt x="890" y="1692" on="0"/>
        <pt x="819" y="1629" on="0"/>
        <pt x="717" y="1590" on="0"/>
        <pt x="653" y="1590" on="1"/>
        <pt x="590" y="1590" on="0"/>
        <pt x="489" y="1629" on="0"/>
        <pt x="419" y="1692" on="0"/>
        <pt x="381" y="1770" on="0"/>
        <pt x="381" y="1809" on="1"/>
        <pt x="533" y="1809" on="1"/>
        <pt x="535" y="1798" on="0"/>
        <pt x="554" y="1774" on="0"/>
        <pt x="586" y="1754" on="0"/>
        <pt x="628" y="1741" on="0"/>
        <pt x="653" y="1741" on="1"/>
        <pt x="679" y="1741" on="0"/>
        <pt x="723" y="1754" on="0"/>
        <pt x="755" y="1774" on="0"/>
        <pt x="774" y="1798" on="0"/>
        <pt x="776" y="1809" on="1"/>
      </contour>
    </TTGlyph>
    <TTGlyph name="Gcircumflex" xMin="70" yMin="-25" xMax="1202" yMax="1809">
      <contour>
        <pt x="666" y="1430" on="1"/>
        <pt x="772" y="1430" on="0"/>
        <pt x="966" y="1363" on="0"/>
        <pt x="1114" y="1232" on="0"/>
        <pt x="1202" y="1039" on="0"/>
        <pt x="1202" y="913" on="1"/>
        <pt x="934" y="913" on="1"/>
        <pt x="934" y="985" on="0"/>
        <pt x="890" y="1093" on="0"/>
        <pt x="815" y="1167" on="0"/>
        <pt x="714" y="1204" on="0"/>
        <pt x="657" y="1204" on="1"/>
        <pt x="575" y="1204" on="0"/>
        <pt x="455" y="1142" on="0"/>
        <pt x="377" y="1026" on="0"/>
        <pt x="340" y="859" on="0"/>
        <pt x="340" y="754" on="1"/>
        <pt x="340" y="651" on="1"/>
        <pt x="340" y="544" on="0"/>
        <pt x="378" y="376" on="0"/>
        <pt x="457" y="261" on="0"/>
        <pt x="577" y="201" on="0"/>
        <pt x="659" y="201" on="1"/>
        <pt x="719" y="201" on="0"/>
        <pt x="820" y="249" on="0"/>
        <pt x="893" y="337" on="0"/>
        <pt x="934" y="462" on="0"/>
        <pt x="934" y="539" on="1"/>
        <pt x="618" y="539" on="1"/>
        <pt x="618" y="764" on="1"/>
        <pt x="1202" y="764" on="1"/>
        <pt x="1202" y="0" on="1"/>
        <pt x="1032" y="0" on="1"/>
        <pt x="987" y="156" on="1"/>
        <pt x="919" y="66" on="0"/>
        <pt x="724" y="-25" on="0"/>
        <pt x="612" y="-25" on="1"/>
        <pt x="483" y="-25" on="0"/>
        <pt x="281" y="62" on="0"/>
        <pt x="143" y="241" on="0"/>
        <pt x="70" y="515" on="0"/>
        <pt x="70" y="702" on="1"/>
        <pt x="70" y="888" on="0"/>
        <pt x="150" y="1162" on="0"/>
        <pt x="302" y="1342" on="0"/>
        <pt x="524" y="1430" on="0"/>
      </contour>
      <contour>
        <pt x="930" y="1532" on="1"/>
        <pt x="746" y="1532" on="1"/>
        <pt x="655" y="1674" on="1"/>
        <pt x="563" y="1532" on="1"/>
        <pt x="379" y="1532" on="1"/>
        <pt x="555" y="1809" on="1"/>
        <pt x="756" y="1809" on="1"/>
      </contour>
    </TTGlyph>
    <TTGlyph name="Gcommaaccent" xMin="70" yMin="-538" xMax="1202" yMax="1430">
      <contour>
        <pt x="666" y="1430" on="1"/>
        <pt x="772" y="1430" on="0"/>
        <pt x="966" y="1363" on="0"/>
        <pt x="1114" y="1232" on="0"/>
        <pt x="1202" y="1039" on="0"/>
        <pt x="1202" y="913" on="1"/>
        <pt x="934" y="913" on="1"/>
        <pt x="934" y="985" on="0"/>
        <pt x="890" y="1093" on="0"/>
        <pt x="815" y="1167" on="0"/>
        <pt x="714" y="1204" on="0"/>
        <pt x="657" y="1204" on="1"/>
        <pt x="575" y="1204" on="0"/>
        <pt x="455" y="1142" on="0"/>
        <pt x="377" y="1026" on="0"/>
        <pt x="340" y="859" on="0"/>
        <pt x="340" y="754" on="1"/>
        <pt x="340" y="651" on="1"/>
        <pt x="340" y="544" on="0"/>
        <pt x="378" y="376" on="0"/>
        <pt x="457" y="261" on="0"/>
        <pt x="577" y="201" on="0"/>
        <pt x="659" y="201" on="1"/>
        <pt x="719" y="201" on="0"/>
        <pt x="820" y="249" on="0"/>
        <pt x="893" y="337" on="0"/>
        <pt x="934" y="462" on="0"/>
        <pt x="934" y="539" on="1"/>
        <pt x="618" y="539" on="1"/>
        <pt x="618" y="764" on="1"/>
        <pt x="1202" y="764" on="1"/>
        <pt x="1202" y="0" on="1"/>
        <pt x="1032" y="0" on="1"/>
        <pt x="987" y="156" on="1"/>
        <pt x="919" y="66" on="0"/>
        <pt x="724" y="-25" on="0"/>
        <pt x="612" y="-25" on="1"/>
        <pt x="483" y="-25" on="0"/>
        <pt x="281" y="62" on="0"/>
        <pt x="143" y="241" on="0"/>
        <pt x="70" y="515" on="0"/>
        <pt x="70" y="702" on="1"/>
        <pt x="70" y="888" on="0"/>
        <pt x="150" y="1162" on="0"/>
        <pt x="302" y="1342" on="0"/>
        <pt x="524" y="1430" on="0"/>
      </contour>
      <contour>
        <pt x="748" y="-342" on="1"/>
        <pt x="655" y="-538" on="1"/>
        <pt x="522" y="-538" on="1"/>
        <pt x="595" y="-365" on="1"/>
        <pt x="495" y="-365" on="1"/>
        <pt x="495" y="-113" on="1"/>
        <pt x="748" y="-113" on="1"/>
      </contour>
    </TTGlyph>
    <TTGlyph name="Gdotaccent" xMin="70" yMin="-25" xMax="1202" yMax="1809">
      <contour>
        <pt x="666" y="1430" on="1"/>
        <pt x="772" y="1430" on="0"/>
        <pt x="966" y="1363" on="0"/>
        <pt x="1114" y="1232" on="0"/>
        <pt x="1202" y="1039" on="0"/>
        <pt x="1202" y="913" on="1"/>
        <pt x="934" y="913" on="1"/>
        <pt x="934" y="985" on="0"/>
        <pt x="890" y="1093" on="0"/>
        <pt x="815" y="1167" on="0"/>
        <pt x="714" y="1204" on="0"/>
        <pt x="657" y="1204" on="1"/>
        <pt x="575" y="1204" on="0"/>
        <pt x="455" y="1142" on="0"/>
        <pt x="377" y="1026" on="0"/>
        <pt x="340" y="859" on="0"/>
        <pt x="340" y="754" on="1"/>
        <pt x="340" y="651" on="1"/>
        <pt x="340" y="544" on="0"/>
        <pt x="378" y="376" on="0"/>
        <pt x="457" y="261" on="0"/>
        <pt x="577" y="201" on="0"/>
        <pt x="659" y="201" on="1"/>
        <pt x="719" y="201" on="0"/>
        <pt x="820" y="249" on="0"/>
        <pt x="893" y="337" on="0"/>
        <pt x="934" y="462" on="0"/>
        <pt x="934" y="539" on="1"/>
        <pt x="618" y="539" on="1"/>
        <pt x="618" y="764" on="1"/>
        <pt x="1202" y="764" on="1"/>
        <pt x="1202" y="0" on="1"/>
        <pt x="1032" y="0" on="1"/>
        <pt x="987" y="156" on="1"/>
        <pt x="919" y="66" on="0"/>
        <pt x="724" y="-25" on="0"/>
        <pt x="612" y="-25" on="1"/>
        <pt x="483" y="-25" on="0"/>
        <pt x="281" y="62" on="0"/>
        <pt x="143" y="241" on="0"/>
        <pt x="70" y="515" on="0"/>
        <pt x="70" y="702" on="1"/>
        <pt x="70" y="888" on="0"/>
        <pt x="150" y="1162" on="0"/>
        <pt x="302" y="1342" on="0"/>
        <pt x="524" y="1430" on="0"/>
      </contour>
      <contour>
        <pt x="764" y="1573" on="1"/>
        <pt x="545" y="1573" on="1"/>
        <pt x="545" y="1809" on="1"/>
        <pt x="764" y="1809" on="1"/>
      </contour>
    </TTGlyph>
    <TTGlyph name="H" xMin="123" yMin="0" xMax="1090" yMax="1405">
      <contour>
        <pt x="827" y="602" on="1"/>
        <pt x="385" y="602" on="1"/>
        <pt x="385" y="0" on="1"/>
        <pt x="123" y="0" on="1"/>
        <pt x="123" y="1405" on="1"/>
        <pt x="385" y="1405" on="1"/>
        <pt x="385" y="836" on="1"/>
        <pt x="827" y="836" on="1"/>
        <pt x="827" y="1405" on="1"/>
        <pt x="1090" y="1405" on="1"/>
        <pt x="1090" y="0" on="1"/>
        <pt x="827" y="0" on="1"/>
      </contour>
    </TTGlyph>
    <TTGlyph name="Hbar" xMin="20" yMin="0" xMax="1192" yMax="1405">
      <contour>
        <pt x="1192" y="1004" on="1"/>
        <pt x="1090" y="1004" on="1"/>
        <pt x="1090" y="0" on="1"/>
        <pt x="827" y="0" on="1"/>
        <pt x="827" y="588" on="1"/>
        <pt x="385" y="588" on="1"/>
        <pt x="385" y="0" on="1"/>
        <pt x="123" y="0" on="1"/>
        <pt x="123" y="1004" on="1"/>
        <pt x="20" y="1004" on="1"/>
        <pt x="20" y="1182" on="1"/>
        <pt x="123" y="1182" on="1"/>
        <pt x="123" y="1405" on="1"/>
        <pt x="385" y="1405" on="1"/>
        <pt x="385" y="1182" on="1"/>
        <pt x="827" y="1182" on="1"/>
        <pt x="827" y="1405" on="1"/>
        <pt x="1090" y="1405" on="1"/>
        <pt x="1090" y="1182" on="1"/>
        <pt x="1192" y="1182" on="1"/>
      </contour>
      <contour>
        <pt x="827" y="821" on="1"/>
        <pt x="827" y="1004" on="1"/>
        <pt x="385" y="1004" on="1"/>
        <pt x="385" y="821" on="1"/>
      </contour>
    </TTGlyph>
    <TTGlyph name="Hcircumflex" xMin="123" yMin="0" xMax="1090" yMax="1808">
      <contour>
        <pt x="883" y="1532" on="1"/>
        <pt x="698" y="1532" on="1"/>
        <pt x="606" y="1673" on="1"/>
        <pt x="514" y="1532" on="1"/>
        <pt x="332" y="1532" on="1"/>
        <pt x="508" y="1808" on="1"/>
        <pt x="709" y="1808" on="1"/>
      </contour>
      <contour>
        <pt x="827" y="602" on="1"/>
        <pt x="385" y="602" on="1"/>
        <pt x="385" y="0" on="1"/>
        <pt x="123" y="0" on="1"/>
        <pt x="123" y="1405" on="1"/>
        <pt x="385" y="1405" on="1"/>
        <pt x="385" y="836" on="1"/>
        <pt x="827" y="836" on="1"/>
        <pt x="827" y="1405" on="1"/>
        <pt x="1090" y="1405" on="1"/>
        <pt x="1090" y="0" on="1"/>
        <pt x="827" y="0" on="1"/>
      </contour>
    </TTGlyph>
    <TTGlyph name="I" xMin="102" yMin="0" xMax="365" yMax="1405">
      <contour>
        <pt x="365" y="0" on="1"/>
        <pt x="102" y="0" on="1"/>
        <pt x="102" y="1405" on="1"/>
        <pt x="365" y="1405" on="1"/>
      </contour>
    </TTGlyph>
    <TTGlyph name="IJ" xMin="102" yMin="-25" xMax="1278" yMax="1405">
      <contour>
        <pt x="365" y="0" on="1"/>
        <pt x="102" y="0" on="1"/>
        <pt x="102" y="1405" on="1"/>
        <pt x="365" y="1405" on="1"/>
      </contour>
      <contour>
        <pt x="745" y="442" on="1"/>
        <pt x="745" y="354" on="1"/>
        <pt x="745" y="280" on="0"/>
        <pt x="815" y="201" on="0"/>
        <pt x="883" y="201" on="1"/>
        <pt x="949" y="201" on="0"/>
        <pt x="1016" y="280" on="0"/>
        <pt x="1016" y="354" on="1"/>
        <pt x="1016" y="1405" on="1"/>
        <pt x="1278" y="1405" on="1"/>
        <pt x="1278" y="334" on="1"/>
        <pt x="1278" y="157" on="0"/>
        <pt x="1075" y="-25" on="0"/>
        <pt x="883" y="-25" on="1"/>
        <pt x="692" y="-25" on="0"/>
        <pt x="485" y="158" on="0"/>
        <pt x="485" y="334" on="1"/>
        <pt x="485" y="442" on="1"/>
      </contour>
    </TTGlyph>
    <TTGlyph name="Iacute" xMin="93" yMin="0" xMax="517" yMax="1809">
      <contour>
        <pt x="365" y="0" on="1"/>
        <pt x="102" y="0" on="1"/>
        <pt x="102" y="1405" on="1"/>
        <pt x="365" y="1405" on="1"/>
      </contour>
      <contour>
        <pt x="517" y="1803" on="1"/>
        <pt x="296" y="1538" on="1"/>
        <pt x="93" y="1538" on="1"/>
        <pt x="269" y="1809" on="1"/>
        <pt x="515" y="1809" on="1"/>
      </contour>
    </TTGlyph>
    <TTGlyph name="Ibreve" xMin="-40" yMin="0" xMax="508" yMax="1809">
      <contour>
        <pt x="365" y="0" on="1"/>
        <pt x="102" y="0" on="1"/>
        <pt x="102" y="1405" on="1"/>
        <pt x="365" y="1405" on="1"/>
      </contour>
      <contour>
        <pt x="508" y="1809" on="1"/>
        <pt x="508" y="1770" on="0"/>
        <pt x="470" y="1692" on="0"/>
        <pt x="399" y="1629" on="0"/>
        <pt x="297" y="1590" on="0"/>
        <pt x="233" y="1590" on="1"/>
        <pt x="170" y="1590" on="0"/>
        <pt x="69" y="1629" on="0"/>
        <pt x="-2" y="1692" on="0"/>
        <pt x="-40" y="1770" on="0"/>
        <pt x="-40" y="1809" on="1"/>
        <pt x="113" y="1809" on="1"/>
        <pt x="115" y="1798" on="0"/>
        <pt x="134" y="1774" on="0"/>
        <pt x="166" y="1754" on="0"/>
        <pt x="208" y="1741" on="0"/>
        <pt x="233" y="1741" on="1"/>
        <pt x="259" y="1741" on="0"/>
        <pt x="303" y="1754" on="0"/>
        <pt x="335" y="1774" on="0"/>
        <pt x="354" y="1798" on="0"/>
        <pt x="356" y="1809" on="1"/>
      </contour>
    </TTGlyph>
    <TTGlyph name="Icircumflex" xMin="-42" yMin="0" xMax="510" yMax="1809">
      <contour>
        <pt x="365" y="0" on="1"/>
        <pt x="102" y="0" on="1"/>
        <pt x="102" y="1405" on="1"/>
        <pt x="365" y="1405" on="1"/>
      </contour>
      <contour>
        <pt x="510" y="1532" on="1"/>
        <pt x="326" y="1532" on="1"/>
        <pt x="235" y="1674" on="1"/>
        <pt x="143" y="1532" on="1"/>
        <pt x="-42" y="1532" on="1"/>
        <pt x="135" y="1809" on="1"/>
        <pt x="336" y="1809" on="1"/>
      </contour>
    </TTGlyph>
    <TTGlyph name="Idieresis" xMin="-48" yMin="0" xMax="516" yMax="1809">
      <contour>
        <pt x="365" y="0" on="1"/>
        <pt x="102" y="0" on="1"/>
        <pt x="102" y="1405" on="1"/>
        <pt x="365" y="1405" on="1"/>
      </contour>
      <contour>
        <pt x="158" y="1585" on="1"/>
        <pt x="-48" y="1585" on="1"/>
        <pt x="-48" y="1809" on="1"/>
        <pt x="158" y="1809" on="1"/>
      </contour>
      <contour>
        <pt x="516" y="1585" on="1"/>
        <pt x="311" y="1585" on="1"/>
        <pt x="311" y="1809" on="1"/>
        <pt x="516" y="1809" on="1"/>
      </contour>
    </TTGlyph>
    <TTGlyph name="Idotaccent" xMin="102" yMin="0" xMax="365" yMax="1809">
      <contour>
        <pt x="365" y="0" on="1"/>
        <pt x="102" y="0" on="1"/>
        <pt x="102" y="1405" on="1"/>
        <pt x="365" y="1405" on="1"/>
      </contour>
      <contour>
        <pt x="344" y="1573" on="1"/>
        <pt x="125" y="1573" on="1"/>
        <pt x="125" y="1809" on="1"/>
        <pt x="344" y="1809" on="1"/>
      </contour>
    </TTGlyph>
    <TTGlyph name="Igrave" xMin="-49" yMin="0" xMax="375" yMax="1809">
      <contour>
        <pt x="365" y="0" on="1"/>
        <pt x="102" y="0" on="1"/>
        <pt x="102" y="1405" on="1"/>
        <pt x="365" y="1405" on="1"/>
      </contour>
      <contour>
        <pt x="375" y="1538" on="1"/>
        <pt x="172" y="1538" on="1"/>
        <pt x="-49" y="1803" on="1"/>
        <pt x="-47" y="1809" on="1"/>
        <pt x="199" y="1809" on="1"/>
      </contour>
    </TTGlyph>
    <TTGlyph name="Imacron" xMin="-28" yMin="0" xMax="496" yMax="1733">
      <contour>
        <pt x="365" y="0" on="1"/>
        <pt x="102" y="0" on="1"/>
        <pt x="102" y="1405" on="1"/>
        <pt x="365" y="1405" on="1"/>
      </contour>
      <contour>
        <pt x="496" y="1555" on="1"/>
        <pt x="-28" y="1555" on="1"/>
        <pt x="-28" y="1733" on="1"/>
        <pt x="496" y="1733" on="1"/>
      </contour>
    </TTGlyph>
    <TTGlyph name="Iogonek" xMin="102" yMin="-389" xMax="441" yMax="1405">
      <contour>
        <pt x="365" y="0" on="1"/>
        <pt x="356" y="-11" on="0"/>
        <pt x="335" y="-42" on="0"/>
        <pt x="316" y="-79" on="0"/>
        <pt x="304" y="-122" on="0"/>
        <pt x="304" y="-143" on="1"/>
        <pt x="304" y="-163" on="0"/>
        <pt x="314" y="-200" on="0"/>
        <pt x="335" y="-229" on="0"/>
        <pt x="370" y="-247" on="0"/>
        <pt x="396" y="-247" on="1"/>
        <pt x="441" y="-247" on="1"/>
        <pt x="441" y="-360" on="1"/>
        <pt x="406" y="-374" on="0"/>
        <pt x="340" y="-389" on="0"/>
        <pt x="306" y="-389" on="1"/>
        <pt x="271" y="-389" on="0"/>
        <pt x="198" y="-371" on="0"/>
        <pt x="140" y="-328" on="0"/>
        <pt x="103" y="-257" on="0"/>
        <pt x="103" y="-204" on="1"/>
        <pt x="103" y="-167" on="0"/>
        <pt x="119" y="-106" on="0"/>
        <pt x="146" y="-55" on="0"/>
        <pt x="164" y="-33" on="1"/>
        <pt x="178" y="-16" on="0"/>
        <pt x="192" y="0" on="1"/>
        <pt x="102" y="0" on="1"/>
        <pt x="102" y="1405" on="1"/>
        <pt x="365" y="1405" on="1"/>
      </contour>
    </TTGlyph>
    <TTGlyph name="Itilde" xMin="-111" yMin="0" xMax="579" yMax="1809">
      <contour>
        <pt x="365" y="0" on="1"/>
        <pt x="102" y="0" on="1"/>
        <pt x="102" y="1405" on="1"/>
        <pt x="365" y="1405" on="1"/>
      </contour>
      <contour>
        <pt x="579" y="1809" on="1"/>
        <pt x="579" y="1767" on="0"/>
        <pt x="556" y="1678" on="0"/>
        <pt x="507" y="1605" on="0"/>
        <pt x="430" y="1559" on="0"/>
        <pt x="376" y="1559" on="1"/>
        <pt x="339" y="1559" on="0"/>
        <pt x="272" y="1583" on="0"/>
        <pt x="206" y="1611" on="0"/>
        <pt x="140" y="1635" on="0"/>
        <pt x="106" y="1635" on="1"/>
        <pt x="73" y="1635" on="0"/>
        <pt x="32" y="1601" on="0"/>
        <pt x="26" y="1559" on="1"/>
        <pt x="-111" y="1559" on="1"/>
        <pt x="-111" y="1601" on="0"/>
        <pt x="-88" y="1690" on="0"/>
        <pt x="-40" y="1762" on="0"/>
        <pt x="37" y="1809" on="0"/>
        <pt x="91" y="1809" on="1"/>
        <pt x="129" y="1809" on="0"/>
        <pt x="197" y="1785" on="0"/>
        <pt x="263" y="1757" on="0"/>
        <pt x="329" y="1733" on="0"/>
        <pt x="364" y="1733" on="1"/>
        <pt x="396" y="1733" on="0"/>
        <pt x="437" y="1765" on="0"/>
        <pt x="443" y="1809" on="1"/>
      </contour>
    </TTGlyph>
    <TTGlyph name="J" xMin="18" yMin="-25" xMax="811" yMax="1405">
      <contour>
        <pt x="279" y="442" on="1"/>
        <pt x="279" y="354" on="1"/>
        <pt x="279" y="280" on="0"/>
        <pt x="348" y="201" on="0"/>
        <pt x="416" y="201" on="1"/>
        <pt x="482" y="201" on="0"/>
        <pt x="549" y="280" on="0"/>
        <pt x="549" y="354" on="1"/>
        <pt x="549" y="1405" on="1"/>
        <pt x="811" y="1405" on="1"/>
        <pt x="811" y="334" on="1"/>
        <pt x="811" y="157" on="0"/>
        <pt x="608" y="-25" on="0"/>
        <pt x="416" y="-25" on="1"/>
        <pt x="225" y="-25" on="0"/>
        <pt x="18" y="158" on="0"/>
        <pt x="18" y="334" on="1"/>
        <pt x="18" y="442" on="1"/>
      </contour>
    </TTGlyph>
    <TTGlyph name="Jcircumflex" xMin="18" yMin="-25" xMax="981" yMax="1808">
      <contour>
        <pt x="981" y="1532" on="1"/>
        <pt x="799" y="1532" on="1"/>
        <pt x="707" y="1673" on="1"/>
        <pt x="614" y="1532" on="1"/>
        <pt x="430" y="1532" on="1"/>
        <pt x="606" y="1808" on="1"/>
        <pt x="809" y="1808" on="1"/>
      </contour>
      <contour>
        <pt x="279" y="442" on="1"/>
        <pt x="279" y="354" on="1"/>
        <pt x="279" y="280" on="0"/>
        <pt x="348" y="201" on="0"/>
        <pt x="416" y="201" on="1"/>
        <pt x="482" y="201" on="0"/>
        <pt x="549" y="280" on="0"/>
        <pt x="549" y="354" on="1"/>
        <pt x="549" y="1405" on="1"/>
        <pt x="811" y="1405" on="1"/>
        <pt x="811" y="334" on="1"/>
        <pt x="811" y="157" on="0"/>
        <pt x="608" y="-25" on="0"/>
        <pt x="416" y="-25" on="1"/>
        <pt x="225" y="-25" on="0"/>
        <pt x="18" y="158" on="0"/>
        <pt x="18" y="334" on="1"/>
        <pt x="18" y="442" on="1"/>
      </contour>
    </TTGlyph>
    <TTGlyph name="K" xMin="123" yMin="0" xMax="1206" yMax="1405">
      <contour>
        <pt x="387" y="686" on="1"/>
        <pt x="901" y="1405" on="1"/>
        <pt x="1194" y="1405" on="1"/>
        <pt x="778" y="834" on="1"/>
        <pt x="1206" y="0" on="1"/>
        <pt x="911" y="0" on="1"/>
        <pt x="606" y="627" on="1"/>
        <pt x="387" y="358" on="1"/>
        <pt x="387" y="0" on="1"/>
        <pt x="123" y="0" on="1"/>
        <pt x="123" y="1405" on="1"/>
        <pt x="387" y="1405" on="1"/>
      </contour>
    </TTGlyph>
    <TTGlyph name="Kcommaaccent" xMin="123" yMin="-539" xMax="1206" yMax="1405">
      <contour>
        <pt x="733" y="-342" on="1"/>
        <pt x="639" y="-539" on="1"/>
        <pt x="508" y="-539" on="1"/>
        <pt x="580" y="-365" on="1"/>
        <pt x="479" y="-365" on="1"/>
        <pt x="479" y="-113" on="1"/>
        <pt x="733" y="-113" on="1"/>
      </contour>
      <contour>
        <pt x="387" y="686" on="1"/>
        <pt x="901" y="1405" on="1"/>
        <pt x="1194" y="1405" on="1"/>
        <pt x="778" y="834" on="1"/>
        <pt x="1206" y="0" on="1"/>
        <pt x="911" y="0" on="1"/>
        <pt x="606" y="627" on="1"/>
        <pt x="387" y="358" on="1"/>
        <pt x="387" y="0" on="1"/>
        <pt x="123" y="0" on="1"/>
        <pt x="123" y="1405" on="1"/>
        <pt x="387" y="1405" on="1"/>
      </contour>
    </TTGlyph>
    <TTGlyph name="L" xMin="123" yMin="0" xMax="979" yMax="1405">
      <contour>
        <pt x="123" y="1405" on="1"/>
        <pt x="385" y="1405" on="1"/>
        <pt x="385" y="246" on="1"/>
        <pt x="979" y="246" on="1"/>
        <pt x="979" y="0" on="1"/>
        <pt x="123" y="0" on="1"/>
      </contour>
    </TTGlyph>
    <TTGlyph name="Lacute" xMin="119" yMin="0" xMax="979" yMax="1808">
      <contour>
        <pt x="543" y="1802" on="1"/>
        <pt x="322" y="1538" on="1"/>
        <pt x="119" y="1538" on="1"/>
        <pt x="295" y="1808" on="1"/>
        <pt x="541" y="1808" on="1"/>
      </contour>
      <contour>
        <pt x="123" y="1405" on="1"/>
        <pt x="385" y="1405" on="1"/>
        <pt x="385" y="246" on="1"/>
        <pt x="979" y="246" on="1"/>
        <pt x="979" y="0" on="1"/>
        <pt x="123" y="0" on="1"/>
      </contour>
    </TTGlyph>
    <TTGlyph name="Lcaron" xMin="123" yMin="0" xMax="979" yMax="1405">
      <contour>
        <pt x="979" y="1149" on="1"/>
        <pt x="844" y="805" on="1"/>
        <pt x="696" y="805" on="1"/>
        <pt x="809" y="1124" on="1"/>
        <pt x="696" y="1124" on="1"/>
        <pt x="696" y="1405" on="1"/>
        <pt x="979" y="1405" on="1"/>
      </contour>
      <contour>
        <pt x="123" y="1405" on="1"/>
        <pt x="385" y="1405" on="1"/>
        <pt x="385" y="246" on="1"/>
        <pt x="979" y="246" on="1"/>
        <pt x="979" y="0" on="1"/>
        <pt x="123" y="0" on="1"/>
      </contour>
    </TTGlyph>
    <TTGlyph name="Lcommaaccent" xMin="123" yMin="-539" xMax="979" yMax="1405">
      <contour>
        <pt x="639" y="-342" on="1"/>
        <pt x="547" y="-539" on="1"/>
        <pt x="414" y="-539" on="1"/>
        <pt x="487" y="-365" on="1"/>
        <pt x="387" y="-365" on="1"/>
        <pt x="387" y="-113" on="1"/>
        <pt x="639" y="-113" on="1"/>
      </contour>
      <contour>
        <pt x="123" y="1405" on="1"/>
        <pt x="385" y="1405" on="1"/>
        <pt x="385" y="246" on="1"/>
        <pt x="979" y="246" on="1"/>
        <pt x="979" y="0" on="1"/>
        <pt x="123" y="0" on="1"/>
      </contour>
    </TTGlyph>
    <TTGlyph name="Ldot" xMin="123" yMin="0" xMax="979" yMax="1405">
      <contour>
        <pt x="860" y="838" on="1"/>
        <pt x="641" y="838" on="1"/>
        <pt x="641" y="1073" on="1"/>
        <pt x="860" y="1073" on="1"/>
      </contour>
      <contour>
        <pt x="123" y="1405" on="1"/>
        <pt x="385" y="1405" on="1"/>
        <pt x="385" y="246" on="1"/>
        <pt x="979" y="246" on="1"/>
        <pt x="979" y="0" on="1"/>
        <pt x="123" y="0" on="1"/>
      </contour>
    </TTGlyph>
    <TTGlyph name="Lslash" xMin="0" yMin="0" xMax="979" yMax="1405">
      <contour>
        <pt x="623" y="928" on="1"/>
        <pt x="385" y="717" on="1"/>
        <pt x="385" y="246" on="1"/>
        <pt x="979" y="246" on="1"/>
        <pt x="979" y="0" on="1"/>
        <pt x="123" y="0" on="1"/>
        <pt x="123" y="485" on="1"/>
        <pt x="0" y="377" on="1"/>
        <pt x="0" y="571" on="1"/>
        <pt x="123" y="680" on="1"/>
        <pt x="123" y="1405" on="1"/>
        <pt x="385" y="1405" on="1"/>
        <pt x="385" y="913" on="1"/>
        <pt x="623" y="1126" on="1"/>
      </contour>
    </TTGlyph>
    <TTGlyph name="M" xMin="109" yMin="0" xMax="1290" yMax="1405">
      <contour>
        <pt x="1049" y="0" on="1"/>
        <pt x="1049" y="895" on="1"/>
        <pt x="1049" y="918" on="0"/>
        <pt x="1052" y="995" on="0"/>
        <pt x="1054" y="1031" on="1"/>
        <pt x="1056" y="1073" on="0"/>
        <pt x="1059" y="1120" on="1"/>
        <pt x="1051" y="1120" on="1"/>
        <pt x="805" y="0" on="1"/>
        <pt x="578" y="0" on="1"/>
        <pt x="330" y="1120" on="1"/>
        <pt x="322" y="1120" on="1"/>
        <pt x="324" y="1071" on="0"/>
        <pt x="327" y="1028" on="1"/>
        <pt x="328" y="1010" on="0"/>
        <pt x="329" y="971" on="0"/>
        <pt x="331" y="935" on="0"/>
        <pt x="332" y="905" on="0"/>
        <pt x="332" y="895" on="1"/>
        <pt x="332" y="0" on="1"/>
        <pt x="109" y="0" on="1"/>
        <pt x="109" y="1405" on="1"/>
        <pt x="477" y="1405" on="1"/>
        <pt x="651" y="631" on="1"/>
        <pt x="655" y="614" on="0"/>
        <pt x="664" y="568" on="0"/>
        <pt x="673" y="517" on="0"/>
        <pt x="683" y="462" on="0"/>
        <pt x="687" y="437" on="1"/>
        <pt x="697" y="377" on="0"/>
        <pt x="707" y="313" on="1"/>
        <pt x="715" y="313" on="1"/>
        <pt x="723" y="380" on="0"/>
        <pt x="731" y="441" on="1"/>
        <pt x="734" y="467" on="0"/>
        <pt x="742" y="521" on="0"/>
        <pt x="750" y="572" on="0"/>
        <pt x="758" y="616" on="0"/>
        <pt x="762" y="631" on="1"/>
        <pt x="934" y="1405" on="1"/>
        <pt x="1290" y="1405" on="1"/>
        <pt x="1290" y="0" on="1"/>
      </contour>
    </TTGlyph>
    <TTGlyph name="N" xMin="123" yMin="0" xMax="1090" yMax="1405">
      <contour>
        <pt x="856" y="0" on="1"/>
        <pt x="422" y="774" on="1"/>
        <pt x="416" y="785" on="0"/>
        <pt x="395" y="828" on="0"/>
        <pt x="384" y="850" on="1"/>
        <pt x="372" y="876" on="0"/>
        <pt x="358" y="905" on="1"/>
        <pt x="350" y="899" on="1"/>
        <pt x="351" y="876" on="0"/>
        <pt x="352" y="854" on="1"/>
        <pt x="353" y="835" on="0"/>
        <pt x="354" y="796" on="0"/>
        <pt x="354" y="782" on="1"/>
        <pt x="354" y="0" on="1"/>
        <pt x="123" y="0" on="1"/>
        <pt x="123" y="1405" on="1"/>
        <pt x="354" y="1405" on="1"/>
        <pt x="788" y="631" on="1"/>
        <pt x="796" y="617" on="0"/>
        <pt x="819" y="573" on="0"/>
        <pt x="829" y="552" on="1"/>
        <pt x="840" y="527" on="0"/>
        <pt x="852" y="500" on="1"/>
        <pt x="858" y="506" on="1"/>
        <pt x="857" y="533" on="0"/>
        <pt x="857" y="556" on="1"/>
        <pt x="856" y="576" on="0"/>
        <pt x="856" y="614" on="0"/>
        <pt x="856" y="623" on="1"/>
        <pt x="856" y="1405" on="1"/>
        <pt x="1090" y="1405" on="1"/>
        <pt x="1090" y="0" on="1"/>
      </contour>
    </TTGlyph>
    <TTGlyph name="Nacute" xMin="123" yMin="0" xMax="1090" yMax="1808">
      <contour>
        <pt x="889" y="1802" on="1"/>
        <pt x="668" y="1538" on="1"/>
        <pt x="465" y="1538" on="1"/>
        <pt x="641" y="1808" on="1"/>
        <pt x="887" y="1808" on="1"/>
      </contour>
      <contour>
        <pt x="856" y="0" on="1"/>
        <pt x="422" y="774" on="1"/>
        <pt x="416" y="785" on="0"/>
        <pt x="395" y="828" on="0"/>
        <pt x="384" y="850" on="1"/>
        <pt x="372" y="876" on="0"/>
        <pt x="358" y="905" on="1"/>
        <pt x="350" y="899" on="1"/>
        <pt x="351" y="876" on="0"/>
        <pt x="352" y="854" on="1"/>
        <pt x="353" y="835" on="0"/>
        <pt x="354" y="796" on="0"/>
        <pt x="354" y="782" on="1"/>
        <pt x="354" y="0" on="1"/>
        <pt x="123" y="0" on="1"/>
        <pt x="123" y="1405" on="1"/>
        <pt x="354" y="1405" on="1"/>
        <pt x="788" y="631" on="1"/>
        <pt x="796" y="617" on="0"/>
        <pt x="819" y="573" on="0"/>
        <pt x="829" y="552" on="1"/>
        <pt x="840" y="527" on="0"/>
        <pt x="852" y="500" on="1"/>
        <pt x="858" y="506" on="1"/>
        <pt x="857" y="533" on="0"/>
        <pt x="857" y="556" on="1"/>
        <pt x="856" y="576" on="0"/>
        <pt x="856" y="614" on="0"/>
        <pt x="856" y="623" on="1"/>
        <pt x="856" y="1405" on="1"/>
        <pt x="1090" y="1405" on="1"/>
        <pt x="1090" y="0" on="1"/>
      </contour>
    </TTGlyph>
    <TTGlyph name="Ncaron" xMin="123" yMin="0" xMax="1090" yMax="1808">
      <contour>
        <pt x="709" y="1532" on="1"/>
        <pt x="508" y="1532" on="1"/>
        <pt x="332" y="1808" on="1"/>
        <pt x="514" y="1808" on="1"/>
        <pt x="606" y="1667" on="1"/>
        <pt x="698" y="1808" on="1"/>
        <pt x="883" y="1808" on="1"/>
      </contour>
      <contour>
        <pt x="856" y="0" on="1"/>
        <pt x="422" y="774" on="1"/>
        <pt x="416" y="785" on="0"/>
        <pt x="395" y="828" on="0"/>
        <pt x="384" y="850" on="1"/>
        <pt x="372" y="876" on="0"/>
        <pt x="358" y="905" on="1"/>
        <pt x="350" y="899" on="1"/>
        <pt x="351" y="876" on="0"/>
        <pt x="352" y="854" on="1"/>
        <pt x="353" y="835" on="0"/>
        <pt x="354" y="796" on="0"/>
        <pt x="354" y="782" on="1"/>
        <pt x="354" y="0" on="1"/>
        <pt x="123" y="0" on="1"/>
        <pt x="123" y="1405" on="1"/>
        <pt x="354" y="1405" on="1"/>
        <pt x="788" y="631" on="1"/>
        <pt x="796" y="617" on="0"/>
        <pt x="819" y="573" on="0"/>
        <pt x="829" y="552" on="1"/>
        <pt x="840" y="527" on="0"/>
        <pt x="852" y="500" on="1"/>
        <pt x="858" y="506" on="1"/>
        <pt x="857" y="533" on="0"/>
        <pt x="857" y="556" on="1"/>
        <pt x="856" y="576" on="0"/>
        <pt x="856" y="614" on="0"/>
        <pt x="856" y="623" on="1"/>
        <pt x="856" y="1405" on="1"/>
        <pt x="1090" y="1405" on="1"/>
        <pt x="1090" y="0" on="1"/>
      </contour>
    </TTGlyph>
    <TTGlyph name="Ncommaaccent" xMin="123" yMin="-539" xMax="1090" yMax="1405">
      <contour>
        <pt x="733" y="-342" on="1"/>
        <pt x="639" y="-539" on="1"/>
        <pt x="508" y="-539" on="1"/>
        <pt x="580" y="-365" on="1"/>
        <pt x="479" y="-365" on="1"/>
        <pt x="479" y="-113" on="1"/>
        <pt x="733" y="-113" on="1"/>
      </contour>
      <contour>
        <pt x="856" y="0" on="1"/>
        <pt x="422" y="774" on="1"/>
        <pt x="416" y="785" on="0"/>
        <pt x="395" y="828" on="0"/>
        <pt x="384" y="850" on="1"/>
        <pt x="372" y="876" on="0"/>
        <pt x="358" y="905" on="1"/>
        <pt x="350" y="899" on="1"/>
        <pt x="351" y="876" on="0"/>
        <pt x="352" y="854" on="1"/>
        <pt x="353" y="835" on="0"/>
        <pt x="354" y="796" on="0"/>
        <pt x="354" y="782" on="1"/>
        <pt x="354" y="0" on="1"/>
        <pt x="123" y="0" on="1"/>
        <pt x="123" y="1405" on="1"/>
        <pt x="354" y="1405" on="1"/>
        <pt x="788" y="631" on="1"/>
        <pt x="796" y="617" on="0"/>
        <pt x="819" y="573" on="0"/>
        <pt x="829" y="552" on="1"/>
        <pt x="840" y="527" on="0"/>
        <pt x="852" y="500" on="1"/>
        <pt x="858" y="506" on="1"/>
        <pt x="857" y="533" on="0"/>
        <pt x="857" y="556" on="1"/>
        <pt x="856" y="576" on="0"/>
        <pt x="856" y="614" on="0"/>
        <pt x="856" y="623" on="1"/>
        <pt x="856" y="1405" on="1"/>
        <pt x="1090" y="1405" on="1"/>
        <pt x="1090" y="0" on="1"/>
      </contour>
    </TTGlyph>
    <TTGlyph name="Ntilde" xMin="123" yMin="0" xMax="1090" yMax="1808">
      <contour>
        <pt x="950" y="1808" on="1"/>
        <pt x="950" y="1766" on="0"/>
        <pt x="928" y="1678" on="0"/>
        <pt x="879" y="1605" on="0"/>
        <pt x="802" y="1559" on="0"/>
        <pt x="748" y="1559" on="1"/>
        <pt x="711" y="1559" on="0"/>
        <pt x="643" y="1582" on="0"/>
        <pt x="577" y="1611" on="0"/>
        <pt x="511" y="1634" on="0"/>
        <pt x="477" y="1634" on="1"/>
        <pt x="445" y="1634" on="0"/>
        <pt x="404" y="1601" on="0"/>
        <pt x="397" y="1559" on="1"/>
        <pt x="262" y="1559" on="1"/>
        <pt x="262" y="1601" on="0"/>
        <pt x="284" y="1689" on="0"/>
        <pt x="333" y="1762" on="0"/>
        <pt x="409" y="1808" on="0"/>
        <pt x="463" y="1808" on="1"/>
        <pt x="500" y="1808" on="0"/>
        <pt x="569" y="1785" on="0"/>
        <pt x="635" y="1756" on="0"/>
        <pt x="700" y="1733" on="0"/>
        <pt x="735" y="1733" on="1"/>
        <pt x="767" y="1733" on="0"/>
        <pt x="809" y="1765" on="0"/>
        <pt x="815" y="1808" on="1"/>
      </contour>
      <contour>
        <pt x="856" y="0" on="1"/>
        <pt x="422" y="774" on="1"/>
        <pt x="416" y="785" on="0"/>
        <pt x="395" y="828" on="0"/>
        <pt x="384" y="850" on="1"/>
        <pt x="372" y="876" on="0"/>
        <pt x="358" y="905" on="1"/>
        <pt x="350" y="899" on="1"/>
        <pt x="351" y="876" on="0"/>
        <pt x="352" y="854" on="1"/>
        <pt x="353" y="835" on="0"/>
        <pt x="354" y="796" on="0"/>
        <pt x="354" y="782" on="1"/>
        <pt x="354" y="0" on="1"/>
        <pt x="123" y="0" on="1"/>
        <pt x="123" y="1405" on="1"/>
        <pt x="354" y="1405" on="1"/>
        <pt x="788" y="631" on="1"/>
        <pt x="796" y="617" on="0"/>
        <pt x="819" y="573" on="0"/>
        <pt x="829" y="552" on="1"/>
        <pt x="840" y="527" on="0"/>
        <pt x="852" y="500" on="1"/>
        <pt x="858" y="506" on="1"/>
        <pt x="857" y="533" on="0"/>
        <pt x="857" y="556" on="1"/>
        <pt x="856" y="576" on="0"/>
        <pt x="856" y="614" on="0"/>
        <pt x="856" y="623" on="1"/>
        <pt x="856" y="1405" on="1"/>
        <pt x="1090" y="1405" on="1"/>
        <pt x="1090" y="0" on="1"/>
      </contour>
    </TTGlyph>
    <TTGlyph name="O" xMin="70" yMin="-25" xMax="1237" yMax="1430">
      <contour>
        <pt x="653" y="1430" on="1"/>
        <pt x="789" y="1430" on="0"/>
        <pt x="1006" y="1342" on="0"/>
        <pt x="1157" y="1162" on="0"/>
        <pt x="1237" y="888" on="0"/>
        <pt x="1237" y="702" on="1"/>
        <pt x="1237" y="516" on="0"/>
        <pt x="1157" y="243" on="0"/>
        <pt x="1006" y="63" on="0"/>
        <pt x="789" y="-25" on="0"/>
        <pt x="653" y="-25" on="1"/>
        <pt x="517" y="-25" on="0"/>
        <pt x="301" y="63" on="0"/>
        <pt x="150" y="243" on="0"/>
        <pt x="70" y="516" on="0"/>
        <pt x="70" y="702" on="1"/>
        <pt x="70" y="888" on="0"/>
        <pt x="150" y="1162" on="0"/>
        <pt x="301" y="1342" on="0"/>
        <pt x="517" y="1430" on="0"/>
      </contour>
      <contour>
        <pt x="653" y="1204" on="1"/>
        <pt x="575" y="1204" on="0"/>
        <pt x="457" y="1142" on="0"/>
        <pt x="379" y="1026" on="0"/>
        <pt x="340" y="859" on="0"/>
        <pt x="340" y="754" on="1"/>
        <pt x="340" y="651" on="1"/>
        <pt x="340" y="546" on="0"/>
        <pt x="379" y="379" on="0"/>
        <pt x="457" y="263" on="0"/>
        <pt x="575" y="201" on="0"/>
        <pt x="653" y="201" on="1"/>
        <pt x="731" y="201" on="0"/>
        <pt x="849" y="263" on="0"/>
        <pt x="928" y="379" on="0"/>
        <pt x="967" y="546" on="0"/>
        <pt x="967" y="651" on="1"/>
        <pt x="967" y="754" on="1"/>
        <pt x="967" y="859" on="0"/>
        <pt x="928" y="1026" on="0"/>
        <pt x="849" y="1142" on="0"/>
        <pt x="731" y="1204" on="0"/>
      </contour>
    </TTGlyph>
    <TTGlyph name="OE" xMin="61" yMin="-25" xMax="1622" yMax="1430">
      <contour>
        <pt x="61" y="702" on="1"/>
        <pt x="61" y="888" on="0"/>
        <pt x="126" y="1162" on="0"/>
        <pt x="247" y="1342" on="0"/>
        <pt x="420" y="1430" on="0"/>
        <pt x="528" y="1430" on="1"/>
        <pt x="622" y="1430" on="0"/>
        <pt x="777" y="1355" on="0"/>
        <pt x="836" y="1278" on="1"/>
        <pt x="836" y="1405" on="1"/>
        <pt x="1608" y="1405" on="1"/>
        <pt x="1608" y="1171" on="1"/>
        <pt x="1098" y="1171" on="1"/>
        <pt x="1098" y="836" on="1"/>
        <pt x="1520" y="836" on="1"/>
        <pt x="1520" y="602" on="1"/>
        <pt x="1098" y="602" on="1"/>
        <pt x="1098" y="233" on="1"/>
        <pt x="1622" y="233" on="1"/>
        <pt x="1622" y="0" on="1"/>
        <pt x="836" y="0" on="1"/>
        <pt x="836" y="125" on="1"/>
        <pt x="777" y="48" on="0"/>
        <pt x="622" y="-25" on="0"/>
        <pt x="528" y="-25" on="1"/>
        <pt x="420" y="-25" on="0"/>
        <pt x="247" y="63" on="0"/>
        <pt x="126" y="243" on="0"/>
        <pt x="61" y="516" on="0"/>
      </contour>
      <contour>
        <pt x="332" y="651" on="1"/>
        <pt x="332" y="531" on="0"/>
        <pt x="363" y="360" on="0"/>
        <pt x="426" y="251" on="0"/>
        <pt x="520" y="201" on="0"/>
        <pt x="582" y="201" on="1"/>
        <pt x="645" y="201" on="0"/>
        <pt x="739" y="251" on="0"/>
        <pt x="802" y="360" on="0"/>
        <pt x="834" y="531" on="0"/>
        <pt x="834" y="651" on="1"/>
        <pt x="834" y="754" on="1"/>
        <pt x="834" y="874" on="0"/>
        <pt x="802" y="1045" on="0"/>
        <pt x="739" y="1154" on="0"/>
        <pt x="645" y="1204" on="0"/>
        <pt x="582" y="1204" on="1"/>
        <pt x="520" y="1204" on="0"/>
        <pt x="426" y="1154" on="0"/>
        <pt x="363" y="1045" on="0"/>
        <pt x="332" y="874" on="0"/>
        <pt x="332" y="754" on="1"/>
      </contour>
    </TTGlyph>
    <TTGlyph name="Oacute" xMin="70" yMin="-25" xMax="1237" yMax="1809">
      <contour>
        <pt x="653" y="1430" on="1"/>
        <pt x="789" y="1430" on="0"/>
        <pt x="1006" y="1342" on="0"/>
        <pt x="1157" y="1162" on="0"/>
        <pt x="1237" y="888" on="0"/>
        <pt x="1237" y="702" on="1"/>
        <pt x="1237" y="516" on="0"/>
        <pt x="1157" y="243" on="0"/>
        <pt x="1006" y="63" on="0"/>
        <pt x="789" y="-25" on="0"/>
        <pt x="653" y="-25" on="1"/>
        <pt x="517" y="-25" on="0"/>
        <pt x="301" y="63" on="0"/>
        <pt x="150" y="243" on="0"/>
        <pt x="70" y="516" on="0"/>
        <pt x="70" y="702" on="1"/>
        <pt x="70" y="888" on="0"/>
        <pt x="150" y="1162" on="0"/>
        <pt x="301" y="1342" on="0"/>
        <pt x="517" y="1430" on="0"/>
      </contour>
      <contour>
        <pt x="653" y="1204" on="1"/>
        <pt x="575" y="1204" on="0"/>
        <pt x="457" y="1142" on="0"/>
        <pt x="379" y="1026" on="0"/>
        <pt x="340" y="859" on="0"/>
        <pt x="340" y="754" on="1"/>
        <pt x="340" y="651" on="1"/>
        <pt x="340" y="546" on="0"/>
        <pt x="379" y="379" on="0"/>
        <pt x="457" y="263" on="0"/>
        <pt x="575" y="201" on="0"/>
        <pt x="653" y="201" on="1"/>
        <pt x="731" y="201" on="0"/>
        <pt x="849" y="263" on="0"/>
        <pt x="928" y="379" on="0"/>
        <pt x="967" y="546" on="0"/>
        <pt x="967" y="651" on="1"/>
        <pt x="967" y="754" on="1"/>
        <pt x="967" y="859" on="0"/>
        <pt x="928" y="1026" on="0"/>
        <pt x="849" y="1142" on="0"/>
        <pt x="731" y="1204" on="0"/>
      </contour>
      <contour>
        <pt x="937" y="1803" on="1"/>
        <pt x="716" y="1538" on="1"/>
        <pt x="513" y="1538" on="1"/>
        <pt x="689" y="1809" on="1"/>
        <pt x="935" y="1809" on="1"/>
      </contour>
    </TTGlyph>
    <TTGlyph name="Obreve" xMin="70" yMin="-25" xMax="1237" yMax="1809">
      <contour>
        <pt x="653" y="1430" on="1"/>
        <pt x="789" y="1430" on="0"/>
        <pt x="1006" y="1342" on="0"/>
        <pt x="1157" y="1162" on="0"/>
        <pt x="1237" y="888" on="0"/>
        <pt x="1237" y="702" on="1"/>
        <pt x="1237" y="516" on="0"/>
        <pt x="1157" y="243" on="0"/>
        <pt x="1006" y="63" on="0"/>
        <pt x="789" y="-25" on="0"/>
        <pt x="653" y="-25" on="1"/>
        <pt x="517" y="-25" on="0"/>
        <pt x="301" y="63" on="0"/>
        <pt x="150" y="243" on="0"/>
        <pt x="70" y="516" on="0"/>
        <pt x="70" y="702" on="1"/>
        <pt x="70" y="888" on="0"/>
        <pt x="150" y="1162" on="0"/>
        <pt x="301" y="1342" on="0"/>
        <pt x="517" y="1430" on="0"/>
      </contour>
      <contour>
        <pt x="653" y="1204" on="1"/>
        <pt x="575" y="1204" on="0"/>
        <pt x="457" y="1142" on="0"/>
        <pt x="379" y="1026" on="0"/>
        <pt x="340" y="859" on="0"/>
        <pt x="340" y="754" on="1"/>
        <pt x="340" y="651" on="1"/>
        <pt x="340" y="546" on="0"/>
        <pt x="379" y="379" on="0"/>
        <pt x="457" y="263" on="0"/>
        <pt x="575" y="201" on="0"/>
        <pt x="653" y="201" on="1"/>
        <pt x="731" y="201" on="0"/>
        <pt x="849" y="263" on="0"/>
        <pt x="928" y="379" on="0"/>
        <pt x="967" y="546" on="0"/>
        <pt x="967" y="651" on="1"/>
        <pt x="967" y="754" on="1"/>
        <pt x="967" y="859" on="0"/>
        <pt x="928" y="1026" on="0"/>
        <pt x="849" y="1142" on="0"/>
        <pt x="731" y="1204" on="0"/>
      </contour>
      <contour>
        <pt x="928" y="1809" on="1"/>
        <pt x="928" y="1770" on="0"/>
        <pt x="890" y="1692" on="0"/>
        <pt x="819" y="1629" on="0"/>
        <pt x="717" y="1590" on="0"/>
        <pt x="653" y="1590" on="1"/>
        <pt x="590" y="1590" on="0"/>
        <pt x="489" y="1629" on="0"/>
        <pt x="419" y="1692" on="0"/>
        <pt x="381" y="1770" on="0"/>
        <pt x="381" y="1809" on="1"/>
        <pt x="533" y="1809" on="1"/>
        <pt x="535" y="1798" on="0"/>
        <pt x="554" y="1774" on="0"/>
        <pt x="586" y="1754" on="0"/>
        <pt x="628" y="1741" on="0"/>
        <pt x="653" y="1741" on="1"/>
        <pt x="679" y="1741" on="0"/>
        <pt x="723" y="1754" on="0"/>
        <pt x="755" y="1774" on="0"/>
        <pt x="774" y="1798" on="0"/>
        <pt x="776" y="1809" on="1"/>
      </contour>
    </TTGlyph>
    <TTGlyph name="Ocircumflex" xMin="70" yMin="-25" xMax="1237" yMax="1809">
      <contour>
        <pt x="653" y="1430" on="1"/>
        <pt x="789" y="1430" on="0"/>
        <pt x="1006" y="1342" on="0"/>
        <pt x="1157" y="1162" on="0"/>
        <pt x="1237" y="888" on="0"/>
        <pt x="1237" y="702" on="1"/>
        <pt x="1237" y="516" on="0"/>
        <pt x="1157" y="243" on="0"/>
        <pt x="1006" y="63" on="0"/>
        <pt x="789" y="-25" on="0"/>
        <pt x="653" y="-25" on="1"/>
        <pt x="517" y="-25" on="0"/>
        <pt x="301" y="63" on="0"/>
        <pt x="150" y="243" on="0"/>
        <pt x="70" y="516" on="0"/>
        <pt x="70" y="702" on="1"/>
        <pt x="70" y="888" on="0"/>
        <pt x="150" y="1162" on="0"/>
        <pt x="301" y="1342" on="0"/>
        <pt x="517" y="1430" on="0"/>
      </contour>
      <contour>
        <pt x="653" y="1204" on="1"/>
        <pt x="575" y="1204" on="0"/>
        <pt x="457" y="1142" on="0"/>
        <pt x="379" y="1026" on="0"/>
        <pt x="340" y="859" on="0"/>
        <pt x="340" y="754" on="1"/>
        <pt x="340" y="651" on="1"/>
        <pt x="340" y="546" on="0"/>
        <pt x="379" y="379" on="0"/>
        <pt x="457" y="263" on="0"/>
        <pt x="575" y="201" on="0"/>
        <pt x="653" y="201" on="1"/>
        <pt x="731" y="201" on="0"/>
        <pt x="849" y="263" on="0"/>
        <pt x="928" y="379" on="0"/>
        <pt x="967" y="546" on="0"/>
        <pt x="967" y="651" on="1"/>
        <pt x="967" y="754" on="1"/>
        <pt x="967" y="859" on="0"/>
        <pt x="928" y="1026" on="0"/>
        <pt x="849" y="1142" on="0"/>
        <pt x="731" y="1204" on="0"/>
      </contour>
      <contour>
        <pt x="930" y="1532" on="1"/>
        <pt x="746" y="1532" on="1"/>
        <pt x="655" y="1674" on="1"/>
        <pt x="563" y="1532" on="1"/>
        <pt x="379" y="1532" on="1"/>
        <pt x="555" y="1809" on="1"/>
        <pt x="756" y="1809" on="1"/>
      </contour>
    </TTGlyph>
    <TTGlyph name="Odieresis" xMin="70" yMin="-25" xMax="1237" yMax="1809">
      <contour>
        <pt x="653" y="1430" on="1"/>
        <pt x="789" y="1430" on="0"/>
        <pt x="1006" y="1342" on="0"/>
        <pt x="1157" y="1162" on="0"/>
        <pt x="1237" y="888" on="0"/>
        <pt x="1237" y="702" on="1"/>
        <pt x="1237" y="516" on="0"/>
        <pt x="1157" y="243" on="0"/>
        <pt x="1006" y="63" on="0"/>
        <pt x="789" y="-25" on="0"/>
        <pt x="653" y="-25" on="1"/>
        <pt x="517" y="-25" on="0"/>
        <pt x="301" y="63" on="0"/>
        <pt x="150" y="243" on="0"/>
        <pt x="70" y="516" on="0"/>
        <pt x="70" y="702" on="1"/>
        <pt x="70" y="888" on="0"/>
        <pt x="150" y="1162" on="0"/>
        <pt x="301" y="1342" on="0"/>
        <pt x="517" y="1430" on="0"/>
      </contour>
      <contour>
        <pt x="653" y="1204" on="1"/>
        <pt x="575" y="1204" on="0"/>
        <pt x="457" y="1142" on="0"/>
        <pt x="379" y="1026" on="0"/>
        <pt x="340" y="859" on="0"/>
        <pt x="340" y="754" on="1"/>
        <pt x="340" y="651" on="1"/>
        <pt x="340" y="546" on="0"/>
        <pt x="379" y="379" on="0"/>
        <pt x="457" y="263" on="0"/>
        <pt x="575" y="201" on="0"/>
        <pt x="653" y="201" on="1"/>
        <pt x="731" y="201" on="0"/>
        <pt x="849" y="263" on="0"/>
        <pt x="928" y="379" on="0"/>
        <pt x="967" y="546" on="0"/>
        <pt x="967" y="651" on="1"/>
        <pt x="967" y="754" on="1"/>
        <pt x="967" y="859" on="0"/>
        <pt x="928" y="1026" on="0"/>
        <pt x="849" y="1142" on="0"/>
        <pt x="731" y="1204" on="0"/>
      </contour>
      <contour>
        <pt x="578" y="1585" on="1"/>
        <pt x="373" y="1585" on="1"/>
        <pt x="373" y="1809" on="1"/>
        <pt x="578" y="1809" on="1"/>
      </contour>
      <contour>
        <pt x="936" y="1585" on="1"/>
        <pt x="731" y="1585" on="1"/>
        <pt x="731" y="1809" on="1"/>
        <pt x="936" y="1809" on="1"/>
      </contour>
    </TTGlyph>
    <TTGlyph name="Ograve" xMin="70" yMin="-25" xMax="1237" yMax="1809">
      <contour>
        <pt x="653" y="1430" on="1"/>
        <pt x="789" y="1430" on="0"/>
        <pt x="1006" y="1342" on="0"/>
        <pt x="1157" y="1162" on="0"/>
        <pt x="1237" y="888" on="0"/>
        <pt x="1237" y="702" on="1"/>
        <pt x="1237" y="516" on="0"/>
        <pt x="1157" y="243" on="0"/>
        <pt x="1006" y="63" on="0"/>
        <pt x="789" y="-25" on="0"/>
        <pt x="653" y="-25" on="1"/>
        <pt x="517" y="-25" on="0"/>
        <pt x="301" y="63" on="0"/>
        <pt x="150" y="243" on="0"/>
        <pt x="70" y="516" on="0"/>
        <pt x="70" y="702" on="1"/>
        <pt x="70" y="888" on="0"/>
        <pt x="150" y="1162" on="0"/>
        <pt x="301" y="1342" on="0"/>
        <pt x="517" y="1430" on="0"/>
      </contour>
      <contour>
        <pt x="653" y="1204" on="1"/>
        <pt x="575" y="1204" on="0"/>
        <pt x="457" y="1142" on="0"/>
        <pt x="379" y="1026" on="0"/>
        <pt x="340" y="859" on="0"/>
        <pt x="340" y="754" on="1"/>
        <pt x="340" y="651" on="1"/>
        <pt x="340" y="546" on="0"/>
        <pt x="379" y="379" on="0"/>
        <pt x="457" y="263" on="0"/>
        <pt x="575" y="201" on="0"/>
        <pt x="653" y="201" on="1"/>
        <pt x="731" y="201" on="0"/>
        <pt x="849" y="263" on="0"/>
        <pt x="928" y="379" on="0"/>
        <pt x="967" y="546" on="0"/>
        <pt x="967" y="651" on="1"/>
        <pt x="967" y="754" on="1"/>
        <pt x="967" y="859" on="0"/>
        <pt x="928" y="1026" on="0"/>
        <pt x="849" y="1142" on="0"/>
        <pt x="731" y="1204" on="0"/>
      </contour>
      <contour>
        <pt x="795" y="1538" on="1"/>
        <pt x="592" y="1538" on="1"/>
        <pt x="371" y="1803" on="1"/>
        <pt x="373" y="1809" on="1"/>
        <pt x="619" y="1809" on="1"/>
      </contour>
    </TTGlyph>
    <TTGlyph name="Ohungarumlaut" xMin="70" yMin="-25" xMax="1237" yMax="1809">
      <contour>
        <pt x="653" y="1430" on="1"/>
        <pt x="789" y="1430" on="0"/>
        <pt x="1006" y="1342" on="0"/>
        <pt x="1157" y="1162" on="0"/>
        <pt x="1237" y="888" on="0"/>
        <pt x="1237" y="702" on="1"/>
        <pt x="1237" y="516" on="0"/>
        <pt x="1157" y="243" on="0"/>
        <pt x="1006" y="63" on="0"/>
        <pt x="789" y="-25" on="0"/>
        <pt x="653" y="-25" on="1"/>
        <pt x="517" y="-25" on="0"/>
        <pt x="301" y="63" on="0"/>
        <pt x="150" y="243" on="0"/>
        <pt x="70" y="516" on="0"/>
        <pt x="70" y="702" on="1"/>
        <pt x="70" y="888" on="0"/>
        <pt x="150" y="1162" on="0"/>
        <pt x="301" y="1342" on="0"/>
        <pt x="517" y="1430" on="0"/>
      </contour>
      <contour>
        <pt x="653" y="1204" on="1"/>
        <pt x="575" y="1204" on="0"/>
        <pt x="457" y="1142" on="0"/>
        <pt x="379" y="1026" on="0"/>
        <pt x="340" y="859" on="0"/>
        <pt x="340" y="754" on="1"/>
        <pt x="340" y="651" on="1"/>
        <pt x="340" y="546" on="0"/>
        <pt x="379" y="379" on="0"/>
        <pt x="457" y="263" on="0"/>
        <pt x="575" y="201" on="0"/>
        <pt x="653" y="201" on="1"/>
        <pt x="731" y="201" on="0"/>
        <pt x="849" y="263" on="0"/>
        <pt x="928" y="379" on="0"/>
        <pt x="967" y="546" on="0"/>
        <pt x="967" y="651" on="1"/>
        <pt x="967" y="754" on="1"/>
        <pt x="967" y="859" on="0"/>
        <pt x="928" y="1026" on="0"/>
        <pt x="849" y="1142" on="0"/>
        <pt x="731" y="1204" on="0"/>
      </contour>
      <contour>
        <pt x="757" y="1803" on="1"/>
        <pt x="585" y="1538" on="1"/>
        <pt x="423" y="1538" on="1"/>
        <pt x="550" y="1809" on="1"/>
        <pt x="755" y="1809" on="1"/>
      </contour>
      <contour>
        <pt x="1044" y="1803" on="1"/>
        <pt x="872" y="1538" on="1"/>
        <pt x="710" y="1538" on="1"/>
        <pt x="837" y="1809" on="1"/>
        <pt x="1042" y="1809" on="1"/>
      </contour>
    </TTGlyph>
    <TTGlyph name="Omacron" xMin="70" yMin="-25" xMax="1237" yMax="1733">
      <contour>
        <pt x="653" y="1430" on="1"/>
        <pt x="789" y="1430" on="0"/>
        <pt x="1006" y="1342" on="0"/>
        <pt x="1157" y="1162" on="0"/>
        <pt x="1237" y="888" on="0"/>
        <pt x="1237" y="702" on="1"/>
        <pt x="1237" y="516" on="0"/>
        <pt x="1157" y="243" on="0"/>
        <pt x="1006" y="63" on="0"/>
        <pt x="789" y="-25" on="0"/>
        <pt x="653" y="-25" on="1"/>
        <pt x="517" y="-25" on="0"/>
        <pt x="301" y="63" on="0"/>
        <pt x="150" y="243" on="0"/>
        <pt x="70" y="516" on="0"/>
        <pt x="70" y="702" on="1"/>
        <pt x="70" y="888" on="0"/>
        <pt x="150" y="1162" on="0"/>
        <pt x="301" y="1342" on="0"/>
        <pt x="517" y="1430" on="0"/>
      </contour>
      <contour>
        <pt x="653" y="1204" on="1"/>
        <pt x="575" y="1204" on="0"/>
        <pt x="457" y="1142" on="0"/>
        <pt x="379" y="1026" on="0"/>
        <pt x="340" y="859" on="0"/>
        <pt x="340" y="754" on="1"/>
        <pt x="340" y="651" on="1"/>
        <pt x="340" y="546" on="0"/>
        <pt x="379" y="379" on="0"/>
        <pt x="457" y="263" on="0"/>
        <pt x="575" y="201" on="0"/>
        <pt x="653" y="201" on="1"/>
        <pt x="731" y="201" on="0"/>
        <pt x="849" y="263" on="0"/>
        <pt x="928" y="379" on="0"/>
        <pt x="967" y="546" on="0"/>
        <pt x="967" y="651" on="1"/>
        <pt x="967" y="754" on="1"/>
        <pt x="967" y="859" on="0"/>
        <pt x="928" y="1026" on="0"/>
        <pt x="849" y="1142" on="0"/>
        <pt x="731" y="1204" on="0"/>
      </contour>
      <contour>
        <pt x="916" y="1555" on="1"/>
        <pt x="393" y="1555" on="1"/>
        <pt x="393" y="1733" on="1"/>
        <pt x="916" y="1733" on="1"/>
      </contour>
    </TTGlyph>
    <TTGlyph name="Omega" xMin="200" yMin="0" xMax="1367" yMax="1430">
      <contour>
        <pt x="784" y="1430" on="1"/>
        <pt x="920" y="1430" on="0"/>
        <pt x="1136" y="1342" on="0"/>
        <pt x="1287" y="1162" on="0"/>
        <pt x="1367" y="888" on="0"/>
        <pt x="1367" y="702" on="1"/>
        <pt x="1367" y="530" on="0"/>
        <pt x="1255" y="283" on="0"/>
        <pt x="1163" y="205" on="1"/>
        <pt x="1185" y="208" on="0"/>
        <pt x="1229" y="217" on="0"/>
        <pt x="1270" y="226" on="0"/>
        <pt x="1304" y="233" on="0"/>
        <pt x="1316" y="233" on="1"/>
        <pt x="1367" y="233" on="1"/>
        <pt x="1367" y="0" on="1"/>
        <pt x="862" y="0" on="1"/>
        <pt x="862" y="166" on="1"/>
        <pt x="980" y="197" on="0"/>
        <pt x="1097" y="426" on="0"/>
        <pt x="1097" y="606" on="1"/>
        <pt x="1097" y="754" on="1"/>
        <pt x="1097" y="859" on="0"/>
        <pt x="1058" y="1026" on="0"/>
        <pt x="980" y="1142" on="0"/>
        <pt x="862" y="1204" on="0"/>
        <pt x="784" y="1204" on="1"/>
        <pt x="706" y="1204" on="0"/>
        <pt x="588" y="1142" on="0"/>
        <pt x="509" y="1026" on="0"/>
        <pt x="470" y="859" on="0"/>
        <pt x="470" y="754" on="1"/>
        <pt x="470" y="606" on="1"/>
        <pt x="470" y="428" on="0"/>
        <pt x="589" y="200" on="0"/>
        <pt x="706" y="168" on="1"/>
        <pt x="706" y="0" on="1"/>
        <pt x="200" y="0" on="1"/>
        <pt x="200" y="233" on="1"/>
        <pt x="251" y="233" on="1"/>
        <pt x="263" y="233" on="0"/>
        <pt x="296" y="226" on="0"/>
        <pt x="336" y="217" on="0"/>
        <pt x="380" y="208" on="0"/>
        <pt x="403" y="205" on="1"/>
        <pt x="311" y="283" on="0"/>
        <pt x="200" y="530" on="0"/>
        <pt x="200" y="702" on="1"/>
        <pt x="200" y="888" on="0"/>
        <pt x="280" y="1162" on="0"/>
        <pt x="431" y="1342" on="0"/>
        <pt x="648" y="1430" on="0"/>
      </contour>
    </TTGlyph>
    <TTGlyph name="Oslash" xMin="70" yMin="-76" xMax="1237" yMax="1481">
      <contour>
        <pt x="1081" y="1249" on="1"/>
        <pt x="1157" y="1159" on="0"/>
        <pt x="1237" y="888" on="0"/>
        <pt x="1237" y="702" on="1"/>
        <pt x="1237" y="516" on="0"/>
        <pt x="1157" y="243" on="0"/>
        <pt x="1006" y="63" on="0"/>
        <pt x="789" y="-25" on="0"/>
        <pt x="653" y="-25" on="1"/>
        <pt x="469" y="-25" on="0"/>
        <pt x="336" y="55" on="1"/>
        <pt x="254" y="-76" on="1"/>
        <pt x="82" y="-76" on="1"/>
        <pt x="225" y="154" on="1"/>
        <pt x="150" y="243" on="0"/>
        <pt x="70" y="516" on="0"/>
        <pt x="70" y="702" on="1"/>
        <pt x="70" y="888" on="0"/>
        <pt x="150" y="1162" on="0"/>
        <pt x="301" y="1342" on="0"/>
        <pt x="517" y="1430" on="0"/>
        <pt x="653" y="1430" on="1"/>
        <pt x="840" y="1430" on="0"/>
        <pt x="971" y="1348" on="1"/>
        <pt x="1055" y="1481" on="1"/>
        <pt x="1227" y="1481" on="1"/>
      </contour>
      <contour>
        <pt x="467" y="264" on="1"/>
        <pt x="539" y="201" on="0"/>
        <pt x="653" y="201" on="1"/>
        <pt x="731" y="201" on="0"/>
        <pt x="849" y="263" on="0"/>
        <pt x="928" y="379" on="0"/>
        <pt x="967" y="546" on="0"/>
        <pt x="967" y="651" on="1"/>
        <pt x="967" y="754" on="1"/>
        <pt x="967" y="826" on="0"/>
        <pt x="948" y="953" on="0"/>
        <pt x="928" y="1004" on="1"/>
      </contour>
      <contour>
        <pt x="653" y="1204" on="1"/>
        <pt x="575" y="1204" on="0"/>
        <pt x="457" y="1142" on="0"/>
        <pt x="379" y="1026" on="0"/>
        <pt x="340" y="859" on="0"/>
        <pt x="340" y="754" on="1"/>
        <pt x="340" y="651" on="1"/>
        <pt x="340" y="577" on="0"/>
        <pt x="358" y="450" on="0"/>
        <pt x="377" y="397" on="1"/>
        <pt x="840" y="1139" on="1"/>
        <pt x="769" y="1204" on="0"/>
      </contour>
    </TTGlyph>
    <TTGlyph name="Oslashacute" xMin="70" yMin="-76" xMax="1237" yMax="1809">
      <contour>
        <pt x="1081" y="1249" on="1"/>
        <pt x="1157" y="1159" on="0"/>
        <pt x="1237" y="888" on="0"/>
        <pt x="1237" y="702" on="1"/>
        <pt x="1237" y="516" on="0"/>
        <pt x="1157" y="243" on="0"/>
        <pt x="1006" y="63" on="0"/>
        <pt x="789" y="-25" on="0"/>
        <pt x="653" y="-25" on="1"/>
        <pt x="469" y="-25" on="0"/>
        <pt x="336" y="55" on="1"/>
        <pt x="254" y="-76" on="1"/>
        <pt x="82" y="-76" on="1"/>
        <pt x="225" y="154" on="1"/>
        <pt x="150" y="243" on="0"/>
        <pt x="70" y="516" on="0"/>
        <pt x="70" y="702" on="1"/>
        <pt x="70" y="888" on="0"/>
        <pt x="150" y="1162" on="0"/>
        <pt x="301" y="1342" on="0"/>
        <pt x="517" y="1430" on="0"/>
        <pt x="653" y="1430" on="1"/>
        <pt x="840" y="1430" on="0"/>
        <pt x="971" y="1348" on="1"/>
        <pt x="1055" y="1481" on="1"/>
        <pt x="1227" y="1481" on="1"/>
      </contour>
      <contour>
        <pt x="467" y="264" on="1"/>
        <pt x="539" y="201" on="0"/>
        <pt x="653" y="201" on="1"/>
        <pt x="731" y="201" on="0"/>
        <pt x="849" y="263" on="0"/>
        <pt x="928" y="379" on="0"/>
        <pt x="967" y="546" on="0"/>
        <pt x="967" y="651" on="1"/>
        <pt x="967" y="754" on="1"/>
        <pt x="967" y="826" on="0"/>
        <pt x="948" y="953" on="0"/>
        <pt x="928" y="1004" on="1"/>
      </contour>
      <contour>
        <pt x="653" y="1204" on="1"/>
        <pt x="575" y="1204" on="0"/>
        <pt x="457" y="1142" on="0"/>
        <pt x="379" y="1026" on="0"/>
        <pt x="340" y="859" on="0"/>
        <pt x="340" y="754" on="1"/>
        <pt x="340" y="651" on="1"/>
        <pt x="340" y="577" on="0"/>
        <pt x="358" y="450" on="0"/>
        <pt x="377" y="397" on="1"/>
        <pt x="840" y="1139" on="1"/>
        <pt x="769" y="1204" on="0"/>
      </contour>
      <contour>
        <pt x="937" y="1803" on="1"/>
        <pt x="716" y="1538" on="1"/>
        <pt x="513" y="1538" on="1"/>
        <pt x="689" y="1809" on="1"/>
        <pt x="935" y="1809" on="1"/>
      </contour>
    </TTGlyph>
    <TTGlyph name="Otilde" xMin="70" yMin="-25" xMax="1237" yMax="1809">
      <contour>
        <pt x="653" y="1430" on="1"/>
        <pt x="789" y="1430" on="0"/>
        <pt x="1006" y="1342" on="0"/>
        <pt x="1157" y="1162" on="0"/>
        <pt x="1237" y="888" on="0"/>
        <pt x="1237" y="702" on="1"/>
        <pt x="1237" y="516" on="0"/>
        <pt x="1157" y="243" on="0"/>
        <pt x="1006" y="63" on="0"/>
        <pt x="789" y="-25" on="0"/>
        <pt x="653" y="-25" on="1"/>
        <pt x="517" y="-25" on="0"/>
        <pt x="301" y="63" on="0"/>
        <pt x="150" y="243" on="0"/>
        <pt x="70" y="516" on="0"/>
        <pt x="70" y="702" on="1"/>
        <pt x="70" y="888" on="0"/>
        <pt x="150" y="1162" on="0"/>
        <pt x="301" y="1342" on="0"/>
        <pt x="517" y="1430" on="0"/>
      </contour>
      <contour>
        <pt x="653" y="1204" on="1"/>
        <pt x="575" y="1204" on="0"/>
        <pt x="457" y="1142" on="0"/>
        <pt x="379" y="1026" on="0"/>
        <pt x="340" y="859" on="0"/>
        <pt x="340" y="754" on="1"/>
        <pt x="340" y="651" on="1"/>
        <pt x="340" y="546" on="0"/>
        <pt x="379" y="379" on="0"/>
        <pt x="457" y="263" on="0"/>
        <pt x="575" y="201" on="0"/>
        <pt x="653" y="201" on="1"/>
        <pt x="731" y="201" on="0"/>
        <pt x="849" y="263" on="0"/>
        <pt x="928" y="379" on="0"/>
        <pt x="967" y="546" on="0"/>
        <pt x="967" y="651" on="1"/>
        <pt x="967" y="754" on="1"/>
        <pt x="967" y="859" on="0"/>
        <pt x="928" y="1026" on="0"/>
        <pt x="849" y="1142" on="0"/>
        <pt x="731" y="1204" on="0"/>
      </contour>
      <contour>
        <pt x="999" y="1809" on="1"/>
        <pt x="999" y="1767" on="0"/>
        <pt x="976" y="1678" on="0"/>
        <pt x="927" y="1605" on="0"/>
        <pt x="850" y="1559" on="0"/>
        <pt x="796" y="1559" on="1"/>
        <pt x="759" y="1559" on="0"/>
        <pt x="692" y="1583" on="0"/>
        <pt x="626" y="1611" on="0"/>
        <pt x="560" y="1635" on="0"/>
        <pt x="526" y="1635" on="1"/>
        <pt x="493" y="1635" on="0"/>
        <pt x="452" y="1601" on="0"/>
        <pt x="446" y="1559" on="1"/>
        <pt x="310" y="1559" on="1"/>
        <pt x="310" y="1601" on="0"/>
        <pt x="333" y="1690" on="0"/>
        <pt x="381" y="1762" on="0"/>
        <pt x="457" y="1809" on="0"/>
        <pt x="511" y="1809" on="1"/>
        <pt x="549" y="1809" on="0"/>
        <pt x="617" y="1785" on="0"/>
        <pt x="683" y="1757" on="0"/>
        <pt x="749" y="1733" on="0"/>
        <pt x="784" y="1733" on="1"/>
        <pt x="816" y="1733" on="0"/>
        <pt x="857" y="1765" on="0"/>
        <pt x="863" y="1809" on="1"/>
      </contour>
    </TTGlyph>
    <TTGlyph name="P" xMin="123" yMin="0" xMax="1065" yMax="1405">
      <contour>
        <pt x="385" y="545" on="1"/>
        <pt x="385" y="0" on="1"/>
        <pt x="123" y="0" on="1"/>
        <pt x="123" y="1405" on="1"/>
        <pt x="625" y="1405" on="1"/>
        <pt x="734" y="1405" on="0"/>
        <pt x="898" y="1342" on="0"/>
        <pt x="1009" y="1229" on="0"/>
        <pt x="1065" y="1074" on="0"/>
        <pt x="1065" y="983" on="1"/>
        <pt x="1065" y="884" on="0"/>
        <pt x="1002" y="722" on="0"/>
        <pt x="886" y="608" on="0"/>
        <pt x="724" y="545" on="0"/>
        <pt x="625" y="545" on="1"/>
      </contour>
      <contour>
        <pt x="385" y="1171" on="1"/>
        <pt x="385" y="776" on="1"/>
        <pt x="598" y="776" on="1"/>
        <pt x="694" y="776" on="0"/>
        <pt x="795" y="886" on="0"/>
        <pt x="795" y="983" on="1"/>
        <pt x="795" y="1070" on="0"/>
        <pt x="692" y="1171" on="0"/>
        <pt x="598" y="1171" on="1"/>
      </contour>
    </TTGlyph>
    <TTGlyph name="Q" xMin="70" yMin="-254" xMax="1237" yMax="1430">
      <contour>
        <pt x="70" y="702" on="1"/>
        <pt x="70" y="888" on="0"/>
        <pt x="150" y="1162" on="0"/>
        <pt x="301" y="1342" on="0"/>
        <pt x="517" y="1430" on="0"/>
        <pt x="653" y="1430" on="1"/>
        <pt x="789" y="1430" on="0"/>
        <pt x="1006" y="1342" on="0"/>
        <pt x="1157" y="1162" on="0"/>
        <pt x="1237" y="888" on="0"/>
        <pt x="1237" y="702" on="1"/>
        <pt x="1237" y="438" on="0"/>
        <pt x="1076" y="108" on="0"/>
        <pt x="932" y="35" on="1"/>
        <pt x="1202" y="-254" on="1"/>
        <pt x="881" y="-254" on="1"/>
        <pt x="678" y="-25" on="1"/>
        <pt x="653" y="-25" on="1"/>
        <pt x="517" y="-25" on="0"/>
        <pt x="301" y="63" on="0"/>
        <pt x="150" y="243" on="0"/>
        <pt x="70" y="516" on="0"/>
      </contour>
      <contour>
        <pt x="340" y="651" on="1"/>
        <pt x="340" y="546" on="0"/>
        <pt x="379" y="379" on="0"/>
        <pt x="457" y="263" on="0"/>
        <pt x="575" y="201" on="0"/>
        <pt x="653" y="201" on="1"/>
        <pt x="731" y="201" on="0"/>
        <pt x="849" y="263" on="0"/>
        <pt x="928" y="379" on="0"/>
        <pt x="967" y="546" on="0"/>
        <pt x="967" y="651" on="1"/>
        <pt x="967" y="754" on="1"/>
        <pt x="967" y="859" on="0"/>
        <pt x="928" y="1026" on="0"/>
        <pt x="849" y="1142" on="0"/>
        <pt x="731" y="1204" on="0"/>
        <pt x="653" y="1204" on="1"/>
        <pt x="575" y="1204" on="0"/>
        <pt x="457" y="1142" on="0"/>
        <pt x="379" y="1026" on="0"/>
        <pt x="340" y="859" on="0"/>
        <pt x="340" y="754" on="1"/>
      </contour>
    </TTGlyph>
    <TTGlyph name="R" xMin="123" yMin="0" xMax="1176" yMax="1405">
      <contour>
        <pt x="385" y="586" on="1"/>
        <pt x="385" y="0" on="1"/>
        <pt x="123" y="0" on="1"/>
        <pt x="123" y="1405" on="1"/>
        <pt x="711" y="1405" on="1"/>
        <pt x="817" y="1405" on="0"/>
        <pt x="978" y="1345" on="0"/>
        <pt x="1086" y="1238" on="0"/>
        <pt x="1141" y="1091" on="0"/>
        <pt x="1141" y="1004" on="1"/>
        <pt x="1141" y="940" on="0"/>
        <pt x="1108" y="828" on="0"/>
        <pt x="1047" y="736" on="0"/>
        <pt x="960" y="665" on="0"/>
        <pt x="905" y="643" on="1"/>
        <pt x="1176" y="0" on="1"/>
        <pt x="891" y="0" on="1"/>
        <pt x="657" y="586" on="1"/>
      </contour>
      <contour>
        <pt x="385" y="1171" on="1"/>
        <pt x="385" y="817" on="1"/>
        <pt x="674" y="817" on="1"/>
        <pt x="770" y="817" on="0"/>
        <pt x="858" y="916" on="0"/>
        <pt x="858" y="1004" on="1"/>
        <pt x="858" y="1081" on="0"/>
        <pt x="775" y="1171" on="0"/>
        <pt x="684" y="1171" on="1"/>
      </contour>
    </TTGlyph>
    <TTGlyph name="Racute" xMin="123" yMin="0" xMax="1176" yMax="1808">
      <contour>
        <pt x="889" y="1802" on="1"/>
        <pt x="668" y="1538" on="1"/>
        <pt x="465" y="1538" on="1"/>
        <pt x="641" y="1808" on="1"/>
        <pt x="887" y="1808" on="1"/>
      </contour>
      <contour>
        <pt x="385" y="586" on="1"/>
        <pt x="385" y="0" on="1"/>
        <pt x="123" y="0" on="1"/>
        <pt x="123" y="1405" on="1"/>
        <pt x="711" y="1405" on="1"/>
        <pt x="817" y="1405" on="0"/>
        <pt x="978" y="1345" on="0"/>
        <pt x="1086" y="1238" on="0"/>
        <pt x="1141" y="1091" on="0"/>
        <pt x="1141" y="1004" on="1"/>
        <pt x="1141" y="940" on="0"/>
        <pt x="1108" y="828" on="0"/>
        <pt x="1047" y="736" on="0"/>
        <pt x="960" y="665" on="0"/>
        <pt x="905" y="643" on="1"/>
        <pt x="1176" y="0" on="1"/>
        <pt x="891" y="0" on="1"/>
        <pt x="657" y="586" on="1"/>
      </contour>
      <contour>
        <pt x="385" y="1171" on="1"/>
        <pt x="385" y="817" on="1"/>
        <pt x="674" y="817" on="1"/>
        <pt x="770" y="817" on="0"/>
        <pt x="858" y="916" on="0"/>
        <pt x="858" y="1004" on="1"/>
        <pt x="858" y="1081" on="0"/>
        <pt x="775" y="1171" on="0"/>
        <pt x="684" y="1171" on="1"/>
      </contour>
    </TTGlyph>
    <TTGlyph name="Rcaron" xMin="123" yMin="0" xMax="1176" yMax="1808">
      <contour>
        <pt x="709" y="1532" on="1"/>
        <pt x="508" y="1532" on="1"/>
        <pt x="332" y="1808" on="1"/>
        <pt x="514" y="1808" on="1"/>
        <pt x="606" y="1667" on="1"/>
        <pt x="698" y="1808" on="1"/>
        <pt x="883" y="1808" on="1"/>
      </contour>
      <contour>
        <pt x="385" y="586" on="1"/>
        <pt x="385" y="0" on="1"/>
        <pt x="123" y="0" on="1"/>
        <pt x="123" y="1405" on="1"/>
        <pt x="711" y="1405" on="1"/>
        <pt x="817" y="1405" on="0"/>
        <pt x="978" y="1345" on="0"/>
        <pt x="1086" y="1238" on="0"/>
        <pt x="1141" y="1091" on="0"/>
        <pt x="1141" y="1004" on="1"/>
        <pt x="1141" y="940" on="0"/>
        <pt x="1108" y="828" on="0"/>
        <pt x="1047" y="736" on="0"/>
        <pt x="960" y="665" on="0"/>
        <pt x="905" y="643" on="1"/>
        <pt x="1176" y="0" on="1"/>
        <pt x="891" y="0" on="1"/>
        <pt x="657" y="586" on="1"/>
      </contour>
      <contour>
        <pt x="385" y="1171" on="1"/>
        <pt x="385" y="817" on="1"/>
        <pt x="674" y="817" on="1"/>
        <pt x="770" y="817" on="0"/>
        <pt x="858" y="916" on="0"/>
        <pt x="858" y="1004" on="1"/>
        <pt x="858" y="1081" on="0"/>
        <pt x="775" y="1171" on="0"/>
        <pt x="684" y="1171" on="1"/>
      </contour>
    </TTGlyph>
    <TTGlyph name="Rcommaaccent" xMin="123" yMin="-539" xMax="1176" yMax="1405">
      <contour>
        <pt x="733" y="-342" on="1"/>
        <pt x="639" y="-539" on="1"/>
        <pt x="508" y="-539" on="1"/>
        <pt x="580" y="-365" on="1"/>
        <pt x="479" y="-365" on="1"/>
        <pt x="479" y="-113" on="1"/>
        <pt x="733" y="-113" on="1"/>
      </contour>
      <contour>
        <pt x="385" y="586" on="1"/>
        <pt x="385" y="0" on="1"/>
        <pt x="123" y="0" on="1"/>
        <pt x="123" y="1405" on="1"/>
        <pt x="711" y="1405" on="1"/>
        <pt x="817" y="1405" on="0"/>
        <pt x="978" y="1345" on="0"/>
        <pt x="1086" y="1238" on="0"/>
        <pt x="1141" y="1091" on="0"/>
        <pt x="1141" y="1004" on="1"/>
        <pt x="1141" y="940" on="0"/>
        <pt x="1108" y="828" on="0"/>
        <pt x="1047" y="736" on="0"/>
        <pt x="960" y="665" on="0"/>
        <pt x="905" y="643" on="1"/>
        <pt x="1176" y="0" on="1"/>
        <pt x="891" y="0" on="1"/>
        <pt x="657" y="586" on="1"/>
      </contour>
      <contour>
        <pt x="385" y="1171" on="1"/>
        <pt x="385" y="817" on="1"/>
        <pt x="674" y="817" on="1"/>
        <pt x="770" y="817" on="0"/>
        <pt x="858" y="916" on="0"/>
        <pt x="858" y="1004" on="1"/>
        <pt x="858" y="1081" on="0"/>
        <pt x="775" y="1171" on="0"/>
        <pt x="684" y="1171" on="1"/>
      </contour>
    </TTGlyph>
    <TTGlyph name="S" xMin="61" yMin="-25" xMax="1042" yMax="1430">
      <contour>
        <pt x="559" y="1430" on="1"/>
        <pt x="653" y="1430" on="0"/>
        <pt x="819" y="1382" on="0"/>
        <pt x="943" y="1281" on="0"/>
        <pt x="1016" y="1124" on="0"/>
        <pt x="1016" y="1016" on="1"/>
        <pt x="1016" y="991" on="1"/>
        <pt x="748" y="991" on="1"/>
        <pt x="748" y="1010" on="1"/>
        <pt x="748" y="1099" on="0"/>
        <pt x="647" y="1204" on="0"/>
        <pt x="557" y="1204" on="1"/>
        <pt x="461" y="1204" on="0"/>
        <pt x="360" y="1120" on="0"/>
        <pt x="360" y="1055" on="1"/>
        <pt x="360" y="1002" on="0"/>
        <pt x="419" y="933" on="0"/>
        <pt x="515" y="884" on="0"/>
        <pt x="637" y="847" on="0"/>
        <pt x="765" y="803" on="0"/>
        <pt x="887" y="744" on="0"/>
        <pt x="983" y="653" on="0"/>
        <pt x="1042" y="519" on="0"/>
        <pt x="1042" y="422" on="1"/>
        <pt x="1042" y="301" on="0"/>
        <pt x="969" y="131" on="0"/>
        <pt x="838" y="24" on="0"/>
        <pt x="656" y="-25" on="0"/>
        <pt x="547" y="-25" on="1"/>
        <pt x="450" y="-25" on="0"/>
        <pt x="274" y="30" on="0"/>
        <pt x="140" y="140" on="0"/>
        <pt x="61" y="304" on="0"/>
        <pt x="61" y="412" on="1"/>
        <pt x="61" y="424" on="0"/>
        <pt x="63" y="449" on="0"/>
        <pt x="63" y="457" on="1"/>
        <pt x="336" y="457" on="1"/>
        <pt x="336" y="454" on="0"/>
        <pt x="334" y="432" on="0"/>
        <pt x="334" y="424" on="1"/>
        <pt x="334" y="374" on="0"/>
        <pt x="364" y="292" on="0"/>
        <pt x="422" y="233" on="0"/>
        <pt x="505" y="201" on="0"/>
        <pt x="559" y="201" on="1"/>
        <pt x="618" y="201" on="0"/>
        <pt x="700" y="230" on="0"/>
        <pt x="750" y="277" on="0"/>
        <pt x="772" y="336" on="0"/>
        <pt x="772" y="367" on="1"/>
        <pt x="772" y="417" on="0"/>
        <pt x="734" y="488" on="0"/>
        <pt x="668" y="539" on="0"/>
        <pt x="581" y="576" on="0"/>
        <pt x="483" y="609" on="0"/>
        <pt x="379" y="643" on="0"/>
        <pt x="281" y="688" on="0"/>
        <pt x="194" y="750" on="0"/>
        <pt x="128" y="837" on="0"/>
        <pt x="90" y="956" on="0"/>
        <pt x="90" y="1036" on="1"/>
        <pt x="90" y="1136" on="0"/>
        <pt x="167" y="1284" on="0"/>
        <pt x="296" y="1382" on="0"/>
        <pt x="466" y="1430" on="0"/>
      </contour>
    </TTGlyph>
    <TTGlyph name="Sacute" xMin="61" yMin="-25" xMax="1042" yMax="1809">
      <contour>
        <pt x="559" y="1430" on="1"/>
        <pt x="653" y="1430" on="0"/>
        <pt x="819" y="1382" on="0"/>
        <pt x="943" y="1281" on="0"/>
        <pt x="1016" y="1124" on="0"/>
        <pt x="1016" y="1016" on="1"/>
        <pt x="1016" y="991" on="1"/>
        <pt x="748" y="991" on="1"/>
        <pt x="748" y="1010" on="1"/>
        <pt x="748" y="1099" on="0"/>
        <pt x="647" y="1204" on="0"/>
        <pt x="557" y="1204" on="1"/>
        <pt x="461" y="1204" on="0"/>
        <pt x="360" y="1120" on="0"/>
        <pt x="360" y="1055" on="1"/>
        <pt x="360" y="1002" on="0"/>
        <pt x="419" y="933" on="0"/>
        <pt x="515" y="884" on="0"/>
        <pt x="637" y="847" on="0"/>
        <pt x="765" y="803" on="0"/>
        <pt x="887" y="744" on="0"/>
        <pt x="983" y="653" on="0"/>
        <pt x="1042" y="519" on="0"/>
        <pt x="1042" y="422" on="1"/>
        <pt x="1042" y="301" on="0"/>
        <pt x="969" y="131" on="0"/>
        <pt x="838" y="24" on="0"/>
        <pt x="656" y="-25" on="0"/>
        <pt x="547" y="-25" on="1"/>
        <pt x="450" y="-25" on="0"/>
        <pt x="274" y="30" on="0"/>
        <pt x="140" y="140" on="0"/>
        <pt x="61" y="304" on="0"/>
        <pt x="61" y="412" on="1"/>
        <pt x="61" y="424" on="0"/>
        <pt x="63" y="449" on="0"/>
        <pt x="63" y="457" on="1"/>
        <pt x="336" y="457" on="1"/>
        <pt x="336" y="454" on="0"/>
        <pt x="334" y="432" on="0"/>
        <pt x="334" y="424" on="1"/>
        <pt x="334" y="374" on="0"/>
        <pt x="364" y="292" on="0"/>
        <pt x="422" y="233" on="0"/>
        <pt x="505" y="201" on="0"/>
        <pt x="559" y="201" on="1"/>
        <pt x="618" y="201" on="0"/>
        <pt x="700" y="230" on="0"/>
        <pt x="750" y="277" on="0"/>
        <pt x="772" y="336" on="0"/>
        <pt x="772" y="367" on="1"/>
        <pt x="772" y="417" on="0"/>
        <pt x="734" y="488" on="0"/>
        <pt x="668" y="539" on="0"/>
        <pt x="581" y="576" on="0"/>
        <pt x="483" y="609" on="0"/>
        <pt x="379" y="643" on="0"/>
        <pt x="281" y="688" on="0"/>
        <pt x="194" y="750" on="0"/>
        <pt x="128" y="837" on="0"/>
        <pt x="90" y="956" on="0"/>
        <pt x="90" y="1036" on="1"/>
        <pt x="90" y="1136" on="0"/>
        <pt x="167" y="1284" on="0"/>
        <pt x="296" y="1382" on="0"/>
        <pt x="466" y="1430" on="0"/>
      </contour>
      <contour>
        <pt x="843" y="1803" on="1"/>
        <pt x="622" y="1538" on="1"/>
        <pt x="419" y="1538" on="1"/>
        <pt x="595" y="1809" on="1"/>
        <pt x="841" y="1809" on="1"/>
      </contour>
    </TTGlyph>
    <TTGlyph name="Scaron" xMin="61" yMin="-25" xMax="1042" yMax="1809">
      <contour>
        <pt x="559" y="1430" on="1"/>
        <pt x="653" y="1430" on="0"/>
        <pt x="819" y="1382" on="0"/>
        <pt x="943" y="1281" on="0"/>
        <pt x="1016" y="1124" on="0"/>
        <pt x="1016" y="1016" on="1"/>
        <pt x="1016" y="991" on="1"/>
        <pt x="748" y="991" on="1"/>
        <pt x="748" y="1010" on="1"/>
        <pt x="748" y="1099" on="0"/>
        <pt x="647" y="1204" on="0"/>
        <pt x="557" y="1204" on="1"/>
        <pt x="461" y="1204" on="0"/>
        <pt x="360" y="1120" on="0"/>
        <pt x="360" y="1055" on="1"/>
        <pt x="360" y="1002" on="0"/>
        <pt x="419" y="933" on="0"/>
        <pt x="515" y="884" on="0"/>
        <pt x="637" y="847" on="0"/>
        <pt x="765" y="803" on="0"/>
        <pt x="887" y="744" on="0"/>
        <pt x="983" y="653" on="0"/>
        <pt x="1042" y="519" on="0"/>
        <pt x="1042" y="422" on="1"/>
        <pt x="1042" y="301" on="0"/>
        <pt x="969" y="131" on="0"/>
        <pt x="838" y="24" on="0"/>
        <pt x="656" y="-25" on="0"/>
        <pt x="547" y="-25" on="1"/>
        <pt x="450" y="-25" on="0"/>
        <pt x="274" y="30" on="0"/>
        <pt x="140" y="140" on="0"/>
        <pt x="61" y="304" on="0"/>
        <pt x="61" y="412" on="1"/>
        <pt x="61" y="424" on="0"/>
        <pt x="63" y="449" on="0"/>
        <pt x="63" y="457" on="1"/>
        <pt x="336" y="457" on="1"/>
        <pt x="336" y="454" on="0"/>
        <pt x="334" y="432" on="0"/>
        <pt x="334" y="424" on="1"/>
        <pt x="334" y="374" on="0"/>
        <pt x="364" y="292" on="0"/>
        <pt x="422" y="233" on="0"/>
        <pt x="505" y="201" on="0"/>
        <pt x="559" y="201" on="1"/>
        <pt x="618" y="201" on="0"/>
        <pt x="700" y="230" on="0"/>
        <pt x="750" y="277" on="0"/>
        <pt x="772" y="336" on="0"/>
        <pt x="772" y="367" on="1"/>
        <pt x="772" y="417" on="0"/>
        <pt x="734" y="488" on="0"/>
        <pt x="668" y="539" on="0"/>
        <pt x="581" y="576" on="0"/>
        <pt x="483" y="609" on="0"/>
        <pt x="379" y="643" on="0"/>
        <pt x="281" y="688" on="0"/>
        <pt x="194" y="750" on="0"/>
        <pt x="128" y="837" on="0"/>
        <pt x="90" y="956" on="0"/>
        <pt x="90" y="1036" on="1"/>
        <pt x="90" y="1136" on="0"/>
        <pt x="167" y="1284" on="0"/>
        <pt x="296" y="1382" on="0"/>
        <pt x="466" y="1430" on="0"/>
      </contour>
      <contour>
        <pt x="662" y="1532" on="1"/>
        <pt x="461" y="1532" on="1"/>
        <pt x="285" y="1809" on="1"/>
        <pt x="469" y="1809" on="1"/>
        <pt x="561" y="1667" on="1"/>
        <pt x="652" y="1809" on="1"/>
        <pt x="836" y="1809" on="1"/>
      </contour>
    </TTGlyph>
    <TTGlyph name="Scedilla" xMin="61" yMin="-373" xMax="1042" yMax="1430">
      <contour>
        <pt x="596" y="-68" on="1"/>
        <pt x="629" y="-70" on="0"/>
        <pt x="688" y="-88" on="0"/>
        <pt x="732" y="-121" on="0"/>
        <pt x="758" y="-172" on="0"/>
        <pt x="758" y="-207" on="1"/>
        <pt x="758" y="-258" on="0"/>
        <pt x="713" y="-323" on="0"/>
        <pt x="646" y="-360" on="0"/>
        <pt x="568" y="-373" on="0"/>
        <pt x="535" y="-373" on="1"/>
        <pt x="491" y="-373" on="0"/>
        <pt x="400" y="-364" on="0"/>
        <pt x="363" y="-356" on="1"/>
        <pt x="363" y="-256" on="1"/>
        <pt x="508" y="-256" on="1"/>
        <pt x="542" y="-256" on="0"/>
        <pt x="582" y="-236" on="0"/>
        <pt x="582" y="-207" on="1"/>
        <pt x="582" y="-182" on="0"/>
        <pt x="552" y="-158" on="0"/>
        <pt x="512" y="-158" on="1"/>
        <pt x="445" y="-158" on="1"/>
        <pt x="462" y="-19" on="1"/>
        <pt x="410" y="-12" on="0"/>
        <pt x="362" y="2" on="1"/>
        <pt x="274" y="30" on="0"/>
        <pt x="140" y="140" on="0"/>
        <pt x="61" y="304" on="0"/>
        <pt x="61" y="412" on="1"/>
        <pt x="61" y="424" on="0"/>
        <pt x="63" y="449" on="0"/>
        <pt x="63" y="457" on="1"/>
        <pt x="336" y="457" on="1"/>
        <pt x="336" y="454" on="0"/>
        <pt x="334" y="432" on="0"/>
        <pt x="334" y="424" on="1"/>
        <pt x="334" y="374" on="0"/>
        <pt x="364" y="292" on="0"/>
        <pt x="422" y="233" on="0"/>
        <pt x="505" y="201" on="0"/>
        <pt x="559" y="201" on="1"/>
        <pt x="618" y="201" on="0"/>
        <pt x="700" y="230" on="0"/>
        <pt x="750" y="277" on="0"/>
        <pt x="772" y="336" on="0"/>
        <pt x="772" y="367" on="1"/>
        <pt x="772" y="417" on="0"/>
        <pt x="734" y="488" on="0"/>
        <pt x="668" y="539" on="0"/>
        <pt x="581" y="576" on="0"/>
        <pt x="483" y="609" on="0"/>
        <pt x="379" y="643" on="0"/>
        <pt x="281" y="688" on="0"/>
        <pt x="194" y="750" on="0"/>
        <pt x="128" y="837" on="0"/>
        <pt x="90" y="956" on="0"/>
        <pt x="90" y="1036" on="1"/>
        <pt x="90" y="1136" on="0"/>
        <pt x="167" y="1284" on="0"/>
        <pt x="296" y="1382" on="0"/>
        <pt x="466" y="1430" on="0"/>
        <pt x="559" y="1430" on="1"/>
        <pt x="653" y="1430" on="0"/>
        <pt x="819" y="1382" on="0"/>
        <pt x="943" y="1281" on="0"/>
        <pt x="1016" y="1124" on="0"/>
        <pt x="1016" y="1016" on="1"/>
        <pt x="1016" y="991" on="1"/>
        <pt x="748" y="991" on="1"/>
        <pt x="748" y="1010" on="1"/>
        <pt x="748" y="1099" on="0"/>
        <pt x="647" y="1204" on="0"/>
        <pt x="557" y="1204" on="1"/>
        <pt x="461" y="1204" on="0"/>
        <pt x="360" y="1120" on="0"/>
        <pt x="360" y="1055" on="1"/>
        <pt x="360" y="1002" on="0"/>
        <pt x="419" y="933" on="0"/>
        <pt x="515" y="884" on="0"/>
        <pt x="637" y="847" on="0"/>
        <pt x="765" y="803" on="0"/>
        <pt x="887" y="744" on="0"/>
        <pt x="983" y="653" on="0"/>
        <pt x="1042" y="519" on="0"/>
        <pt x="1042" y="422" on="1"/>
        <pt x="1042" y="301" on="0"/>
        <pt x="969" y="131" on="0"/>
        <pt x="838" y="24" on="0"/>
        <pt x="747" y="0" on="1"/>
        <pt x="679" y="-19" on="0"/>
        <pt x="601" y="-23" on="1"/>
      </contour>
    </TTGlyph>
    <TTGlyph name="Scircumflex" xMin="61" yMin="-25" xMax="1042" yMax="1809">
      <contour>
        <pt x="559" y="1430" on="1"/>
        <pt x="653" y="1430" on="0"/>
        <pt x="819" y="1382" on="0"/>
        <pt x="943" y="1281" on="0"/>
        <pt x="1016" y="1124" on="0"/>
        <pt x="1016" y="1016" on="1"/>
        <pt x="1016" y="991" on="1"/>
        <pt x="748" y="991" on="1"/>
        <pt x="748" y="1010" on="1"/>
        <pt x="748" y="1099" on="0"/>
        <pt x="647" y="1204" on="0"/>
        <pt x="557" y="1204" on="1"/>
        <pt x="461" y="1204" on="0"/>
        <pt x="360" y="1120" on="0"/>
        <pt x="360" y="1055" on="1"/>
        <pt x="360" y="1002" on="0"/>
        <pt x="419" y="933" on="0"/>
        <pt x="515" y="884" on="0"/>
        <pt x="637" y="847" on="0"/>
        <pt x="765" y="803" on="0"/>
        <pt x="887" y="744" on="0"/>
        <pt x="983" y="653" on="0"/>
        <pt x="1042" y="519" on="0"/>
        <pt x="1042" y="422" on="1"/>
        <pt x="1042" y="301" on="0"/>
        <pt x="969" y="131" on="0"/>
        <pt x="838" y="24" on="0"/>
        <pt x="656" y="-25" on="0"/>
        <pt x="547" y="-25" on="1"/>
        <pt x="450" y="-25" on="0"/>
        <pt x="274" y="30" on="0"/>
        <pt x="140" y="140" on="0"/>
        <pt x="61" y="304" on="0"/>
        <pt x="61" y="412" on="1"/>
        <pt x="61" y="424" on="0"/>
        <pt x="63" y="449" on="0"/>
        <pt x="63" y="457" on="1"/>
        <pt x="336" y="457" on="1"/>
        <pt x="336" y="454" on="0"/>
        <pt x="334" y="432" on="0"/>
        <pt x="334" y="424" on="1"/>
        <pt x="334" y="374" on="0"/>
        <pt x="364" y="292" on="0"/>
        <pt x="422" y="233" on="0"/>
        <pt x="505" y="201" on="0"/>
        <pt x="559" y="201" on="1"/>
        <pt x="618" y="201" on="0"/>
        <pt x="700" y="230" on="0"/>
        <pt x="750" y="277" on="0"/>
        <pt x="772" y="336" on="0"/>
        <pt x="772" y="367" on="1"/>
        <pt x="772" y="417" on="0"/>
        <pt x="734" y="488" on="0"/>
        <pt x="668" y="539" on="0"/>
        <pt x="581" y="576" on="0"/>
        <pt x="483" y="609" on="0"/>
        <pt x="379" y="643" on="0"/>
        <pt x="281" y="688" on="0"/>
        <pt x="194" y="750" on="0"/>
        <pt x="128" y="837" on="0"/>
        <pt x="90" y="956" on="0"/>
        <pt x="90" y="1036" on="1"/>
        <pt x="90" y="1136" on="0"/>
        <pt x="167" y="1284" on="0"/>
        <pt x="296" y="1382" on="0"/>
        <pt x="466" y="1430" on="0"/>
      </contour>
      <contour>
        <pt x="836" y="1532" on="1"/>
        <pt x="652" y="1532" on="1"/>
        <pt x="561" y="1674" on="1"/>
        <pt x="469" y="1532" on="1"/>
        <pt x="285" y="1532" on="1"/>
        <pt x="461" y="1809" on="1"/>
        <pt x="662" y="1809" on="1"/>
      </contour>
    </TTGlyph>
    <TTGlyph name="T" xMin="35" yMin="0" xMax="993" yMax="1405">
      <contour>
        <pt x="993" y="1171" on="1"/>
        <pt x="645" y="1171" on="1"/>
        <pt x="645" y="0" on="1"/>
        <pt x="383" y="0" on="1"/>
        <pt x="383" y="1171" on="1"/>
        <pt x="35" y="1171" on="1"/>
        <pt x="35" y="1405" on="1"/>
        <pt x="993" y="1405" on="1"/>
      </contour>
    </TTGlyph>
    <TTGlyph name="Tbar" xMin="35" yMin="0" xMax="993" yMax="1405">
      <contour>
        <pt x="875" y="626" on="1"/>
        <pt x="645" y="626" on="1"/>
        <pt x="645" y="0" on="1"/>
        <pt x="383" y="0" on="1"/>
        <pt x="383" y="626" on="1"/>
        <pt x="152" y="626" on="1"/>
        <pt x="152" y="804" on="1"/>
        <pt x="383" y="804" on="1"/>
        <pt x="383" y="1171" on="1"/>
        <pt x="35" y="1171" on="1"/>
        <pt x="35" y="1405" on="1"/>
        <pt x="993" y="1405" on="1"/>
        <pt x="993" y="1171" on="1"/>
        <pt x="645" y="1171" on="1"/>
        <pt x="645" y="804" on="1"/>
        <pt x="875" y="804" on="1"/>
      </contour>
    </TTGlyph>
    <TTGlyph name="Tcaron" xMin="35" yMin="0" xMax="993" yMax="1809">
      <contour>
        <pt x="993" y="1171" on="1"/>
        <pt x="645" y="1171" on="1"/>
        <pt x="645" y="0" on="1"/>
        <pt x="383" y="0" on="1"/>
        <pt x="383" y="1171" on="1"/>
        <pt x="35" y="1171" on="1"/>
        <pt x="35" y="1405" on="1"/>
        <pt x="993" y="1405" on="1"/>
      </contour>
      <contour>
        <pt x="615" y="1532" on="1"/>
        <pt x="414" y="1532" on="1"/>
        <pt x="238" y="1809" on="1"/>
        <pt x="422" y="1809" on="1"/>
        <pt x="514" y="1667" on="1"/>
        <pt x="605" y="1809" on="1"/>
        <pt x="789" y="1809" on="1"/>
      </contour>
    </TTGlyph>
    <TTGlyph name="Tcommaaccent" xMin="35" yMin="-538" xMax="993" yMax="1405">
      <contour>
        <pt x="993" y="1171" on="1"/>
        <pt x="645" y="1171" on="1"/>
        <pt x="645" y="0" on="1"/>
        <pt x="383" y="0" on="1"/>
        <pt x="383" y="1171" on="1"/>
        <pt x="35" y="1171" on="1"/>
        <pt x="35" y="1405" on="1"/>
        <pt x="993" y="1405" on="1"/>
      </contour>
      <contour>
        <pt x="640" y="-342" on="1"/>
        <pt x="547" y="-538" on="1"/>
        <pt x="414" y="-538" on="1"/>
        <pt x="487" y="-365" on="1"/>
        <pt x="387" y="-365" on="1"/>
        <pt x="387" y="-113" on="1"/>
        <pt x="640" y="-113" on="1"/>
      </contour>
    </TTGlyph>
    <TTGlyph name="Thorn" xMin="123" yMin="0" xMax="1065" yMax="1405">
      <contour>
        <pt x="385" y="295" on="1"/>
        <pt x="385" y="0" on="1"/>
        <pt x="123" y="0" on="1"/>
        <pt x="123" y="1405" on="1"/>
        <pt x="385" y="1405" on="1"/>
        <pt x="385" y="1155" on="1"/>
        <pt x="625" y="1155" on="1"/>
        <pt x="734" y="1155" on="0"/>
        <pt x="898" y="1092" on="0"/>
        <pt x="1009" y="979" on="0"/>
        <pt x="1065" y="824" on="0"/>
        <pt x="1065" y="733" on="1"/>
        <pt x="1065" y="634" on="0"/>
        <pt x="1002" y="472" on="0"/>
        <pt x="886" y="358" on="0"/>
        <pt x="724" y="295" on="0"/>
        <pt x="625" y="295" on="1"/>
      </contour>
      <contour>
        <pt x="385" y="922" on="1"/>
        <pt x="385" y="526" on="1"/>
        <pt x="598" y="526" on="1"/>
        <pt x="694" y="526" on="0"/>
        <pt x="795" y="636" on="0"/>
        <pt x="795" y="733" on="1"/>
        <pt x="795" y="820" on="0"/>
        <pt x="692" y="922" on="0"/>
        <pt x="598" y="922" on="1"/>
      </contour>
    </TTGlyph>
    <TTGlyph name="U" xMin="125" yMin="-25" xMax="1090" yMax="1405">
      <contour>
        <pt x="125" y="1405" on="1"/>
        <pt x="387" y="1405" on="1"/>
        <pt x="387" y="449" on="1"/>
        <pt x="387" y="327" on="0"/>
        <pt x="501" y="201" on="0"/>
        <pt x="606" y="201" on="1"/>
        <pt x="711" y="201" on="0"/>
        <pt x="827" y="327" on="0"/>
        <pt x="827" y="449" on="1"/>
        <pt x="827" y="1405" on="1"/>
        <pt x="1090" y="1405" on="1"/>
        <pt x="1090" y="440" on="1"/>
        <pt x="1090" y="326" on="0"/>
        <pt x="1023" y="152" on="0"/>
        <pt x="898" y="35" on="0"/>
        <pt x="719" y="-25" on="0"/>
        <pt x="606" y="-25" on="1"/>
        <pt x="493" y="-25" on="0"/>
        <pt x="315" y="35" on="0"/>
        <pt x="191" y="152" on="0"/>
        <pt x="125" y="326" on="0"/>
        <pt x="125" y="440" on="1"/>
      </contour>
    </TTGlyph>
    <TTGlyph name="Uacute" xMin="125" yMin="-25" xMax="1090" yMax="1808">
      <contour>
        <pt x="889" y="1802" on="1"/>
        <pt x="668" y="1538" on="1"/>
        <pt x="465" y="1538" on="1"/>
        <pt x="641" y="1808" on="1"/>
        <pt x="887" y="1808" on="1"/>
      </contour>
      <contour>
        <pt x="125" y="1405" on="1"/>
        <pt x="387" y="1405" on="1"/>
        <pt x="387" y="449" on="1"/>
        <pt x="387" y="327" on="0"/>
        <pt x="501" y="201" on="0"/>
        <pt x="606" y="201" on="1"/>
        <pt x="711" y="201" on="0"/>
        <pt x="827" y="327" on="0"/>
        <pt x="827" y="449" on="1"/>
        <pt x="827" y="1405" on="1"/>
        <pt x="1090" y="1405" on="1"/>
        <pt x="1090" y="440" on="1"/>
        <pt x="1090" y="326" on="0"/>
        <pt x="1023" y="152" on="0"/>
        <pt x="898" y="35" on="0"/>
        <pt x="719" y="-25" on="0"/>
        <pt x="606" y="-25" on="1"/>
        <pt x="493" y="-25" on="0"/>
        <pt x="315" y="35" on="0"/>
        <pt x="191" y="152" on="0"/>
        <pt x="125" y="326" on="0"/>
        <pt x="125" y="440" on="1"/>
      </contour>
    </TTGlyph>
    <TTGlyph name="Ubreve" xMin="125" yMin="-25" xMax="1090" yMax="1808">
      <contour>
        <pt x="881" y="1808" on="1"/>
        <pt x="881" y="1770" on="0"/>
        <pt x="842" y="1692" on="0"/>
        <pt x="770" y="1629" on="0"/>
        <pt x="668" y="1589" on="0"/>
        <pt x="604" y="1589" on="1"/>
        <pt x="541" y="1589" on="0"/>
        <pt x="441" y="1629" on="0"/>
        <pt x="371" y="1692" on="0"/>
        <pt x="334" y="1770" on="0"/>
        <pt x="334" y="1808" on="1"/>
        <pt x="485" y="1808" on="1"/>
        <pt x="488" y="1797" on="0"/>
        <pt x="507" y="1774" on="0"/>
        <pt x="538" y="1754" on="0"/>
        <pt x="580" y="1741" on="0"/>
        <pt x="604" y="1741" on="1"/>
        <pt x="631" y="1741" on="0"/>
        <pt x="676" y="1754" on="0"/>
        <pt x="708" y="1774" on="0"/>
        <pt x="726" y="1797" on="0"/>
        <pt x="727" y="1808" on="1"/>
      </contour>
      <contour>
        <pt x="125" y="1405" on="1"/>
        <pt x="387" y="1405" on="1"/>
        <pt x="387" y="449" on="1"/>
        <pt x="387" y="327" on="0"/>
        <pt x="501" y="201" on="0"/>
        <pt x="606" y="201" on="1"/>
        <pt x="711" y="201" on="0"/>
        <pt x="827" y="327" on="0"/>
        <pt x="827" y="449" on="1"/>
        <pt x="827" y="1405" on="1"/>
        <pt x="1090" y="1405" on="1"/>
        <pt x="1090" y="440" on="1"/>
        <pt x="1090" y="326" on="0"/>
        <pt x="1023" y="152" on="0"/>
        <pt x="898" y="35" on="0"/>
        <pt x="719" y="-25" on="0"/>
        <pt x="606" y="-25" on="1"/>
        <pt x="493" y="-25" on="0"/>
        <pt x="315" y="35" on="0"/>
        <pt x="191" y="152" on="0"/>
        <pt x="125" y="326" on="0"/>
        <pt x="125" y="440" on="1"/>
      </contour>
    </TTGlyph>
    <TTGlyph name="Ucircumflex" xMin="125" yMin="-25" xMax="1090" yMax="1808">
      <contour>
        <pt x="883" y="1532" on="1"/>
        <pt x="698" y="1532" on="1"/>
        <pt x="606" y="1673" on="1"/>
        <pt x="514" y="1532" on="1"/>
        <pt x="332" y="1532" on="1"/>
        <pt x="508" y="1808" on="1"/>
        <pt x="709" y="1808" on="1"/>
      </contour>
      <contour>
        <pt x="125" y="1405" on="1"/>
        <pt x="387" y="1405" on="1"/>
        <pt x="387" y="449" on="1"/>
        <pt x="387" y="327" on="0"/>
        <pt x="501" y="201" on="0"/>
        <pt x="606" y="201" on="1"/>
        <pt x="711" y="201" on="0"/>
        <pt x="827" y="327" on="0"/>
        <pt x="827" y="449" on="1"/>
        <pt x="827" y="1405" on="1"/>
        <pt x="1090" y="1405" on="1"/>
        <pt x="1090" y="440" on="1"/>
        <pt x="1090" y="326" on="0"/>
        <pt x="1023" y="152" on="0"/>
        <pt x="898" y="35" on="0"/>
        <pt x="719" y="-25" on="0"/>
        <pt x="606" y="-25" on="1"/>
        <pt x="493" y="-25" on="0"/>
        <pt x="315" y="35" on="0"/>
        <pt x="191" y="152" on="0"/>
        <pt x="125" y="326" on="0"/>
        <pt x="125" y="440" on="1"/>
      </contour>
    </TTGlyph>
    <TTGlyph name="Udieresis" xMin="125" yMin="-25" xMax="1090" yMax="1808">
      <contour>
        <pt x="530" y="1585" on="1"/>
        <pt x="326" y="1585" on="1"/>
        <pt x="326" y="1808" on="1"/>
        <pt x="530" y="1808" on="1"/>
      </contour>
      <contour>
        <pt x="889" y="1585" on="1"/>
        <pt x="682" y="1585" on="1"/>
        <pt x="682" y="1808" on="1"/>
        <pt x="889" y="1808" on="1"/>
      </contour>
      <contour>
        <pt x="125" y="1405" on="1"/>
        <pt x="387" y="1405" on="1"/>
        <pt x="387" y="449" on="1"/>
        <pt x="387" y="327" on="0"/>
        <pt x="501" y="201" on="0"/>
        <pt x="606" y="201" on="1"/>
        <pt x="711" y="201" on="0"/>
        <pt x="827" y="327" on="0"/>
        <pt x="827" y="449" on="1"/>
        <pt x="827" y="1405" on="1"/>
        <pt x="1090" y="1405" on="1"/>
        <pt x="1090" y="440" on="1"/>
        <pt x="1090" y="326" on="0"/>
        <pt x="1023" y="152" on="0"/>
        <pt x="898" y="35" on="0"/>
        <pt x="719" y="-25" on="0"/>
        <pt x="606" y="-25" on="1"/>
        <pt x="493" y="-25" on="0"/>
        <pt x="315" y="35" on="0"/>
        <pt x="191" y="152" on="0"/>
        <pt x="125" y="326" on="0"/>
        <pt x="125" y="440" on="1"/>
      </contour>
    </TTGlyph>
    <TTGlyph name="Ugrave" xMin="125" yMin="-25" xMax="1090" yMax="1808">
      <contour>
        <pt x="748" y="1538" on="1"/>
        <pt x="545" y="1538" on="1"/>
        <pt x="324" y="1802" on="1"/>
        <pt x="326" y="1808" on="1"/>
        <pt x="571" y="1808" on="1"/>
      </contour>
      <contour>
        <pt x="125" y="1405" on="1"/>
        <pt x="387" y="1405" on="1"/>
        <pt x="387" y="449" on="1"/>
        <pt x="387" y="327" on="0"/>
        <pt x="501" y="201" on="0"/>
        <pt x="606" y="201" on="1"/>
        <pt x="711" y="201" on="0"/>
        <pt x="827" y="327" on="0"/>
        <pt x="827" y="449" on="1"/>
        <pt x="827" y="1405" on="1"/>
        <pt x="1090" y="1405" on="1"/>
        <pt x="1090" y="440" on="1"/>
        <pt x="1090" y="326" on="0"/>
        <pt x="1023" y="152" on="0"/>
        <pt x="898" y="35" on="0"/>
        <pt x="719" y="-25" on="0"/>
        <pt x="606" y="-25" on="1"/>
        <pt x="493" y="-25" on="0"/>
        <pt x="315" y="35" on="0"/>
        <pt x="191" y="152" on="0"/>
        <pt x="125" y="326" on="0"/>
        <pt x="125" y="440" on="1"/>
      </contour>
    </TTGlyph>
    <TTGlyph name="Uhungarumlaut" xMin="125" yMin="-25" xMax="1090" yMax="1808">
      <contour>
        <pt x="709" y="1802" on="1"/>
        <pt x="537" y="1538" on="1"/>
        <pt x="375" y="1538" on="1"/>
        <pt x="502" y="1808" on="1"/>
        <pt x="707" y="1808" on="1"/>
      </contour>
      <contour>
        <pt x="995" y="1802" on="1"/>
        <pt x="823" y="1538" on="1"/>
        <pt x="662" y="1538" on="1"/>
        <pt x="788" y="1808" on="1"/>
        <pt x="993" y="1808" on="1"/>
      </contour>
      <contour>
        <pt x="125" y="1405" on="1"/>
        <pt x="387" y="1405" on="1"/>
        <pt x="387" y="449" on="1"/>
        <pt x="387" y="327" on="0"/>
        <pt x="501" y="201" on="0"/>
        <pt x="606" y="201" on="1"/>
        <pt x="711" y="201" on="0"/>
        <pt x="827" y="327" on="0"/>
        <pt x="827" y="449" on="1"/>
        <pt x="827" y="1405" on="1"/>
        <pt x="1090" y="1405" on="1"/>
        <pt x="1090" y="440" on="1"/>
        <pt x="1090" y="326" on="0"/>
        <pt x="1023" y="152" on="0"/>
        <pt x="898" y="35" on="0"/>
        <pt x="719" y="-25" on="0"/>
        <pt x="606" y="-25" on="1"/>
        <pt x="493" y="-25" on="0"/>
        <pt x="315" y="35" on="0"/>
        <pt x="191" y="152" on="0"/>
        <pt x="125" y="326" on="0"/>
        <pt x="125" y="440" on="1"/>
      </contour>
    </TTGlyph>
    <TTGlyph name="Umacron" xMin="125" yMin="-25" xMax="1090" yMax="1733">
      <contour>
        <pt x="868" y="1554" on="1"/>
        <pt x="344" y="1554" on="1"/>
        <pt x="344" y="1733" on="1"/>
        <pt x="868" y="1733" on="1"/>
      </contour>
      <contour>
        <pt x="125" y="1405" on="1"/>
        <pt x="387" y="1405" on="1"/>
        <pt x="387" y="449" on="1"/>
        <pt x="387" y="327" on="0"/>
        <pt x="501" y="201" on="0"/>
        <pt x="606" y="201" on="1"/>
        <pt x="711" y="201" on="0"/>
        <pt x="827" y="327" on="0"/>
        <pt x="827" y="449" on="1"/>
        <pt x="827" y="1405" on="1"/>
        <pt x="1090" y="1405" on="1"/>
        <pt x="1090" y="440" on="1"/>
        <pt x="1090" y="326" on="0"/>
        <pt x="1023" y="152" on="0"/>
        <pt x="898" y="35" on="0"/>
        <pt x="719" y="-25" on="0"/>
        <pt x="606" y="-25" on="1"/>
        <pt x="493" y="-25" on="0"/>
        <pt x="315" y="35" on="0"/>
        <pt x="191" y="152" on="0"/>
        <pt x="125" y="326" on="0"/>
        <pt x="125" y="440" on="1"/>
      </contour>
    </TTGlyph>
    <TTGlyph name="Uogonek" xMin="125" yMin="-379" xMax="1090" yMax="1405">
      <contour>
        <pt x="1090" y="457" on="1"/>
        <pt x="1090" y="282" on="0"/>
        <pt x="954" y="58" on="0"/>
        <pt x="829" y="10" on="1"/>
        <pt x="820" y="-1" on="0"/>
        <pt x="799" y="-32" on="0"/>
        <pt x="780" y="-69" on="0"/>
        <pt x="768" y="-112" on="0"/>
        <pt x="768" y="-133" on="1"/>
        <pt x="768" y="-153" on="0"/>
        <pt x="778" y="-191" on="0"/>
        <pt x="800" y="-220" on="0"/>
        <pt x="835" y="-238" on="0"/>
        <pt x="860" y="-238" on="1"/>
        <pt x="905" y="-238" on="1"/>
        <pt x="905" y="-350" on="1"/>
        <pt x="870" y="-364" on="0"/>
        <pt x="804" y="-379" on="0"/>
        <pt x="770" y="-379" on="1"/>
        <pt x="735" y="-379" on="0"/>
        <pt x="662" y="-361" on="0"/>
        <pt x="604" y="-319" on="0"/>
        <pt x="567" y="-248" on="0"/>
        <pt x="567" y="-195" on="1"/>
        <pt x="567" y="-139" on="0"/>
        <pt x="601" y="-57" on="0"/>
        <pt x="627" y="-25" on="1"/>
        <pt x="606" y="-25" on="1"/>
        <pt x="493" y="-25" on="0"/>
        <pt x="315" y="37" on="0"/>
        <pt x="191" y="158" on="0"/>
        <pt x="125" y="338" on="0"/>
        <pt x="125" y="457" on="1"/>
        <pt x="125" y="1405" on="1"/>
        <pt x="387" y="1405" on="1"/>
        <pt x="387" y="465" on="1"/>
        <pt x="387" y="335" on="0"/>
        <pt x="501" y="201" on="0"/>
        <pt x="606" y="201" on="1"/>
        <pt x="711" y="201" on="0"/>
        <pt x="827" y="335" on="0"/>
        <pt x="827" y="465" on="1"/>
        <pt x="827" y="1405" on="1"/>
        <pt x="1090" y="1405" on="1"/>
      </contour>
    </TTGlyph>
    <TTGlyph name="Uring" xMin="125" yMin="-25" xMax="1090" yMax="1870">
      <contour>
        <pt x="606" y="1870" on="1"/>
        <pt x="648" y="1870" on="0"/>
        <pt x="720" y="1839" on="0"/>
        <pt x="773" y="1785" on="0"/>
        <pt x="803" y="1713" on="0"/>
        <pt x="803" y="1673" on="1"/>
        <pt x="803" y="1632" on="0"/>
        <pt x="772" y="1561" on="0"/>
        <pt x="719" y="1508" on="0"/>
        <pt x="647" y="1477" on="0"/>
        <pt x="606" y="1477" on="1"/>
        <pt x="566" y="1477" on="0"/>
        <pt x="495" y="1507" on="0"/>
        <pt x="441" y="1560" on="0"/>
        <pt x="410" y="1632" on="0"/>
        <pt x="410" y="1673" on="1"/>
        <pt x="410" y="1714" on="0"/>
        <pt x="441" y="1786" on="0"/>
        <pt x="494" y="1839" on="0"/>
        <pt x="565" y="1870" on="0"/>
      </contour>
      <contour>
        <pt x="606" y="1767" on="1"/>
        <pt x="566" y="1767" on="0"/>
        <pt x="512" y="1713" on="0"/>
        <pt x="512" y="1673" on="1"/>
        <pt x="512" y="1633" on="0"/>
        <pt x="566" y="1579" on="0"/>
        <pt x="606" y="1579" on="1"/>
        <pt x="625" y="1579" on="0"/>
        <pt x="659" y="1593" on="0"/>
        <pt x="685" y="1619" on="0"/>
        <pt x="700" y="1653" on="0"/>
        <pt x="700" y="1673" on="1"/>
        <pt x="700" y="1693" on="0"/>
        <pt x="685" y="1727" on="0"/>
        <pt x="659" y="1753" on="0"/>
        <pt x="625" y="1767" on="0"/>
      </contour>
      <contour>
        <pt x="125" y="1405" on="1"/>
        <pt x="387" y="1405" on="1"/>
        <pt x="387" y="449" on="1"/>
        <pt x="387" y="327" on="0"/>
        <pt x="501" y="201" on="0"/>
        <pt x="606" y="201" on="1"/>
        <pt x="711" y="201" on="0"/>
        <pt x="827" y="327" on="0"/>
        <pt x="827" y="449" on="1"/>
        <pt x="827" y="1405" on="1"/>
        <pt x="1090" y="1405" on="1"/>
        <pt x="1090" y="440" on="1"/>
        <pt x="1090" y="326" on="0"/>
        <pt x="1023" y="152" on="0"/>
        <pt x="898" y="35" on="0"/>
        <pt x="719" y="-25" on="0"/>
        <pt x="606" y="-25" on="1"/>
        <pt x="493" y="-25" on="0"/>
        <pt x="315" y="35" on="0"/>
        <pt x="191" y="152" on="0"/>
        <pt x="125" y="326" on="0"/>
        <pt x="125" y="440" on="1"/>
      </contour>
    </TTGlyph>
    <TTGlyph name="Utilde" xMin="125" yMin="-25" xMax="1090" yMax="1808">
      <contour>
        <pt x="950" y="1808" on="1"/>
        <pt x="950" y="1766" on="0"/>
        <pt x="928" y="1678" on="0"/>
        <pt x="879" y="1605" on="0"/>
        <pt x="802" y="1559" on="0"/>
        <pt x="748" y="1559" on="1"/>
        <pt x="711" y="1559" on="0"/>
        <pt x="643" y="1582" on="0"/>
        <pt x="577" y="1611" on="0"/>
        <pt x="511" y="1634" on="0"/>
        <pt x="477" y="1634" on="1"/>
        <pt x="445" y="1634" on="0"/>
        <pt x="404" y="1601" on="0"/>
        <pt x="397" y="1559" on="1"/>
        <pt x="262" y="1559" on="1"/>
        <pt x="262" y="1601" on="0"/>
        <pt x="284" y="1689" on="0"/>
        <pt x="333" y="1762" on="0"/>
        <pt x="409" y="1808" on="0"/>
        <pt x="463" y="1808" on="1"/>
        <pt x="500" y="1808" on="0"/>
        <pt x="569" y="1785" on="0"/>
        <pt x="635" y="1756" on="0"/>
        <pt x="700" y="1733" on="0"/>
        <pt x="735" y="1733" on="1"/>
        <pt x="767" y="1733" on="0"/>
        <pt x="809" y="1765" on="0"/>
        <pt x="815" y="1808" on="1"/>
      </contour>
      <contour>
        <pt x="125" y="1405" on="1"/>
        <pt x="387" y="1405" on="1"/>
        <pt x="387" y="449" on="1"/>
        <pt x="387" y="327" on="0"/>
        <pt x="501" y="201" on="0"/>
        <pt x="606" y="201" on="1"/>
        <pt x="711" y="201" on="0"/>
        <pt x="827" y="327" on="0"/>
        <pt x="827" y="449" on="1"/>
        <pt x="827" y="1405" on="1"/>
        <pt x="1090" y="1405" on="1"/>
        <pt x="1090" y="440" on="1"/>
        <pt x="1090" y="326" on="0"/>
        <pt x="1023" y="152" on="0"/>
        <pt x="898" y="35" on="0"/>
        <pt x="719" y="-25" on="0"/>
        <pt x="606" y="-25" on="1"/>
        <pt x="493" y="-25" on="0"/>
        <pt x="315" y="35" on="0"/>
        <pt x="191" y="152" on="0"/>
        <pt x="125" y="326" on="0"/>
        <pt x="125" y="440" on="1"/>
      </contour>
    </TTGlyph>
    <TTGlyph name="V" xMin="0" yMin="0" xMax="1120" yMax="1405">
      <contour>
        <pt x="692" y="0" on="1"/>
        <pt x="428" y="0" on="1"/>
        <pt x="0" y="1405" on="1"/>
        <pt x="270" y="1405" on="1"/>
        <pt x="565" y="399" on="1"/>
        <pt x="573" y="399" on="1"/>
        <pt x="864" y="1405" on="1"/>
        <pt x="1120" y="1405" on="1"/>
      </contour>
    </TTGlyph>
    <TTGlyph name="W" xMin="0" yMin="0" xMax="1583" yMax="1405">
      <contour>
        <pt x="1278" y="0" on="1"/>
        <pt x="1014" y="0" on="1"/>
        <pt x="823" y="895" on="1"/>
        <pt x="817" y="922" on="0"/>
        <pt x="807" y="990" on="0"/>
        <pt x="803" y="1021" on="1"/>
        <pt x="799" y="1057" on="0"/>
        <pt x="795" y="1094" on="1"/>
        <pt x="786" y="1094" on="1"/>
        <pt x="780" y="1054" on="0"/>
        <pt x="776" y="1017" on="1"/>
        <pt x="771" y="985" on="0"/>
        <pt x="763" y="917" on="0"/>
        <pt x="758" y="895" on="1"/>
        <pt x="569" y="0" on="1"/>
        <pt x="305" y="0" on="1"/>
        <pt x="0" y="1405" on="1"/>
        <pt x="260" y="1405" on="1"/>
        <pt x="428" y="541" on="1"/>
        <pt x="433" y="518" on="0"/>
        <pt x="442" y="450" on="0"/>
        <pt x="446" y="419" on="1"/>
        <pt x="450" y="382" on="0"/>
        <pt x="455" y="344" on="1"/>
        <pt x="463" y="344" on="1"/>
        <pt x="467" y="383" on="0"/>
        <pt x="471" y="420" on="1"/>
        <pt x="475" y="452" on="0"/>
        <pt x="484" y="518" on="0"/>
        <pt x="489" y="541" on="1"/>
        <pt x="659" y="1405" on="1"/>
        <pt x="956" y="1405" on="1"/>
        <pt x="1124" y="541" on="1"/>
        <pt x="1128" y="520" on="0"/>
        <pt x="1138" y="453" on="0"/>
        <pt x="1142" y="421" on="1"/>
        <pt x="1146" y="384" on="0"/>
        <pt x="1151" y="344" on="1"/>
        <pt x="1159" y="344" on="1"/>
        <pt x="1167" y="416" on="1"/>
        <pt x="1171" y="446" on="0"/>
        <pt x="1180" y="515" on="0"/>
        <pt x="1186" y="541" on="1"/>
        <pt x="1358" y="1405" on="1"/>
        <pt x="1583" y="1405" on="1"/>
      </contour>
    </TTGlyph>
    <TTGlyph name="Wacute" xMin="0" yMin="0" xMax="1583" yMax="1809">
      <contour>
        <pt x="1278" y="0" on="1"/>
        <pt x="1014" y="0" on="1"/>
        <pt x="823" y="895" on="1"/>
        <pt x="817" y="922" on="0"/>
        <pt x="807" y="990" on="0"/>
        <pt x="803" y="1021" on="1"/>
        <pt x="799" y="1057" on="0"/>
        <pt x="795" y="1094" on="1"/>
        <pt x="786" y="1094" on="1"/>
        <pt x="780" y="1054" on="0"/>
        <pt x="776" y="1017" on="1"/>
        <pt x="771" y="985" on="0"/>
        <pt x="763" y="917" on="0"/>
        <pt x="758" y="895" on="1"/>
        <pt x="569" y="0" on="1"/>
        <pt x="305" y="0" on="1"/>
        <pt x="0" y="1405" on="1"/>
        <pt x="260" y="1405" on="1"/>
        <pt x="428" y="541" on="1"/>
        <pt x="433" y="518" on="0"/>
        <pt x="442" y="450" on="0"/>
        <pt x="446" y="419" on="1"/>
        <pt x="450" y="382" on="0"/>
        <pt x="455" y="344" on="1"/>
        <pt x="463" y="344" on="1"/>
        <pt x="467" y="383" on="0"/>
        <pt x="471" y="420" on="1"/>
        <pt x="475" y="452" on="0"/>
        <pt x="484" y="518" on="0"/>
        <pt x="489" y="541" on="1"/>
        <pt x="659" y="1405" on="1"/>
        <pt x="956" y="1405" on="1"/>
        <pt x="1124" y="541" on="1"/>
        <pt x="1128" y="520" on="0"/>
        <pt x="1138" y="453" on="0"/>
        <pt x="1142" y="421" on="1"/>
        <pt x="1146" y="384" on="0"/>
        <pt x="1151" y="344" on="1"/>
        <pt x="1159" y="344" on="1"/>
        <pt x="1167" y="416" on="1"/>
        <pt x="1171" y="446" on="0"/>
        <pt x="1180" y="515" on="0"/>
        <pt x="1186" y="541" on="1"/>
        <pt x="1358" y="1405" on="1"/>
        <pt x="1583" y="1405" on="1"/>
      </contour>
      <contour>
        <pt x="1076" y="1803" on="1"/>
        <pt x="855" y="1538" on="1"/>
        <pt x="652" y="1538" on="1"/>
        <pt x="828" y="1809" on="1"/>
        <pt x="1074" y="1809" on="1"/>
      </contour>
    </TTGlyph>
    <TTGlyph name="Wcircumflex" xMin="0" yMin="0" xMax="1583" yMax="1809">
      <contour>
        <pt x="1278" y="0" on="1"/>
        <pt x="1014" y="0" on="1"/>
        <pt x="823" y="895" on="1"/>
        <pt x="817" y="922" on="0"/>
        <pt x="807" y="990" on="0"/>
        <pt x="803" y="1021" on="1"/>
        <pt x="799" y="1057" on="0"/>
        <pt x="795" y="1094" on="1"/>
        <pt x="786" y="1094" on="1"/>
        <pt x="780" y="1054" on="0"/>
        <pt x="776" y="1017" on="1"/>
        <pt x="771" y="985" on="0"/>
        <pt x="763" y="917" on="0"/>
        <pt x="758" y="895" on="1"/>
        <pt x="569" y="0" on="1"/>
        <pt x="305" y="0" on="1"/>
        <pt x="0" y="1405" on="1"/>
        <pt x="260" y="1405" on="1"/>
        <pt x="428" y="541" on="1"/>
        <pt x="433" y="518" on="0"/>
        <pt x="442" y="450" on="0"/>
        <pt x="446" y="419" on="1"/>
        <pt x="450" y="382" on="0"/>
        <pt x="455" y="344" on="1"/>
        <pt x="463" y="344" on="1"/>
        <pt x="467" y="383" on="0"/>
        <pt x="471" y="420" on="1"/>
        <pt x="475" y="452" on="0"/>
        <pt x="484" y="518" on="0"/>
        <pt x="489" y="541" on="1"/>
        <pt x="659" y="1405" on="1"/>
        <pt x="956" y="1405" on="1"/>
        <pt x="1124" y="541" on="1"/>
        <pt x="1128" y="520" on="0"/>
        <pt x="1138" y="453" on="0"/>
        <pt x="1142" y="421" on="1"/>
        <pt x="1146" y="384" on="0"/>
        <pt x="1151" y="344" on="1"/>
        <pt x="1159" y="344" on="1"/>
        <pt x="1167" y="416" on="1"/>
        <pt x="1171" y="446" on="0"/>
        <pt x="1180" y="515" on="0"/>
        <pt x="1186" y="541" on="1"/>
        <pt x="1358" y="1405" on="1"/>
        <pt x="1583" y="1405" on="1"/>
      </contour>
      <contour>
        <pt x="1069" y="1532" on="1"/>
        <pt x="885" y="1532" on="1"/>
        <pt x="794" y="1674" on="1"/>
        <pt x="702" y="1532" on="1"/>
        <pt x="518" y="1532" on="1"/>
        <pt x="694" y="1809" on="1"/>
        <pt x="895" y="1809" on="1"/>
      </contour>
    </TTGlyph>
    <TTGlyph name="Wdieresis" xMin="0" yMin="0" xMax="1583" yMax="1809">
      <contour>
        <pt x="1278" y="0" on="1"/>
        <pt x="1014" y="0" on="1"/>
        <pt x="823" y="895" on="1"/>
        <pt x="817" y="922" on="0"/>
        <pt x="807" y="990" on="0"/>
        <pt x="803" y="1021" on="1"/>
        <pt x="799" y="1057" on="0"/>
        <pt x="795" y="1094" on="1"/>
        <pt x="786" y="1094" on="1"/>
        <pt x="780" y="1054" on="0"/>
        <pt x="776" y="1017" on="1"/>
        <pt x="771" y="985" on="0"/>
        <pt x="763" y="917" on="0"/>
        <pt x="758" y="895" on="1"/>
        <pt x="569" y="0" on="1"/>
        <pt x="305" y="0" on="1"/>
        <pt x="0" y="1405" on="1"/>
        <pt x="260" y="1405" on="1"/>
        <pt x="428" y="541" on="1"/>
        <pt x="433" y="518" on="0"/>
        <pt x="442" y="450" on="0"/>
        <pt x="446" y="419" on="1"/>
        <pt x="450" y="382" on="0"/>
        <pt x="455" y="344" on="1"/>
        <pt x="463" y="344" on="1"/>
        <pt x="467" y="383" on="0"/>
        <pt x="471" y="420" on="1"/>
        <pt x="475" y="452" on="0"/>
        <pt x="484" y="518" on="0"/>
        <pt x="489" y="541" on="1"/>
        <pt x="659" y="1405" on="1"/>
        <pt x="956" y="1405" on="1"/>
        <pt x="1124" y="541" on="1"/>
        <pt x="1128" y="520" on="0"/>
        <pt x="1138" y="453" on="0"/>
        <pt x="1142" y="421" on="1"/>
        <pt x="1146" y="384" on="0"/>
        <pt x="1151" y="344" on="1"/>
        <pt x="1159" y="344" on="1"/>
        <pt x="1167" y="416" on="1"/>
        <pt x="1171" y="446" on="0"/>
        <pt x="1180" y="515" on="0"/>
        <pt x="1186" y="541" on="1"/>
        <pt x="1358" y="1405" on="1"/>
        <pt x="1583" y="1405" on="1"/>
      </contour>
      <contour>
        <pt x="1075" y="1585" on="1"/>
        <pt x="870" y="1585" on="1"/>
        <pt x="870" y="1809" on="1"/>
        <pt x="1075" y="1809" on="1"/>
      </contour>
      <contour>
        <pt x="717" y="1585" on="1"/>
        <pt x="512" y="1585" on="1"/>
        <pt x="512" y="1809" on="1"/>
        <pt x="717" y="1809" on="1"/>
      </contour>
    </TTGlyph>
    <TTGlyph name="Wgrave" xMin="0" yMin="0" xMax="1583" yMax="1809">
      <contour>
        <pt x="1278" y="0" on="1"/>
        <pt x="1014" y="0" on="1"/>
        <pt x="823" y="895" on="1"/>
        <pt x="817" y="922" on="0"/>
        <pt x="807" y="990" on="0"/>
        <pt x="803" y="1021" on="1"/>
        <pt x="799" y="1057" on="0"/>
        <pt x="795" y="1094" on="1"/>
        <pt x="786" y="1094" on="1"/>
        <pt x="780" y="1054" on="0"/>
        <pt x="776" y="1017" on="1"/>
        <pt x="771" y="985" on="0"/>
        <pt x="763" y="917" on="0"/>
        <pt x="758" y="895" on="1"/>
        <pt x="569" y="0" on="1"/>
        <pt x="305" y="0" on="1"/>
        <pt x="0" y="1405" on="1"/>
        <pt x="260" y="1405" on="1"/>
        <pt x="428" y="541" on="1"/>
        <pt x="433" y="518" on="0"/>
        <pt x="442" y="450" on="0"/>
        <pt x="446" y="419" on="1"/>
        <pt x="450" y="382" on="0"/>
        <pt x="455" y="344" on="1"/>
        <pt x="463" y="344" on="1"/>
        <pt x="467" y="383" on="0"/>
        <pt x="471" y="420" on="1"/>
        <pt x="475" y="452" on="0"/>
        <pt x="484" y="518" on="0"/>
        <pt x="489" y="541" on="1"/>
        <pt x="659" y="1405" on="1"/>
        <pt x="956" y="1405" on="1"/>
        <pt x="1124" y="541" on="1"/>
        <pt x="1128" y="520" on="0"/>
        <pt x="1138" y="453" on="0"/>
        <pt x="1142" y="421" on="1"/>
        <pt x="1146" y="384" on="0"/>
        <pt x="1151" y="344" on="1"/>
        <pt x="1159" y="344" on="1"/>
        <pt x="1167" y="416" on="1"/>
        <pt x="1171" y="446" on="0"/>
        <pt x="1180" y="515" on="0"/>
        <pt x="1186" y="541" on="1"/>
        <pt x="1358" y="1405" on="1"/>
        <pt x="1583" y="1405" on="1"/>
      </contour>
      <contour>
        <pt x="934" y="1538" on="1"/>
        <pt x="731" y="1538" on="1"/>
        <pt x="510" y="1803" on="1"/>
        <pt x="512" y="1809" on="1"/>
        <pt x="758" y="1809" on="1"/>
      </contour>
    </TTGlyph>
    <TTGlyph name="X" xMin="0" yMin="0" xMax="1118" yMax="1405">
      <contour>
        <pt x="719" y="741" on="1"/>
        <pt x="1118" y="0" on="1"/>
        <pt x="827" y="0" on="1"/>
        <pt x="553" y="530" on="1"/>
        <pt x="545" y="530" on="1"/>
        <pt x="272" y="0" on="1"/>
        <pt x="0" y="0" on="1"/>
        <pt x="397" y="737" on="1"/>
        <pt x="37" y="1405" on="1"/>
        <pt x="330" y="1405" on="1"/>
        <pt x="565" y="946" on="1"/>
        <pt x="573" y="946" on="1"/>
        <pt x="809" y="1405" on="1"/>
        <pt x="1081" y="1405" on="1"/>
      </contour>
    </TTGlyph>
    <TTGlyph name="Y" xMin="0" yMin="0" xMax="1120" yMax="1405">
      <contour>
        <pt x="692" y="530" on="1"/>
        <pt x="692" y="0" on="1"/>
        <pt x="430" y="0" on="1"/>
        <pt x="430" y="530" on="1"/>
        <pt x="0" y="1405" on="1"/>
        <pt x="276" y="1405" on="1"/>
        <pt x="563" y="788" on="1"/>
        <pt x="571" y="788" on="1"/>
        <pt x="856" y="1405" on="1"/>
        <pt x="1120" y="1405" on="1"/>
      </contour>
    </TTGlyph>
    <TTGlyph name="Yacute" xMin="0" yMin="0" xMax="1120" yMax="1809">
      <contour>
        <pt x="692" y="530" on="1"/>
        <pt x="692" y="0" on="1"/>
        <pt x="430" y="0" on="1"/>
        <pt x="430" y="530" on="1"/>
        <pt x="0" y="1405" on="1"/>
        <pt x="276" y="1405" on="1"/>
        <pt x="563" y="788" on="1"/>
        <pt x="571" y="788" on="1"/>
        <pt x="856" y="1405" on="1"/>
        <pt x="1120" y="1405" on="1"/>
      </contour>
      <contour>
        <pt x="843" y="1803" on="1"/>
        <pt x="622" y="1538" on="1"/>
        <pt x="419" y="1538" on="1"/>
        <pt x="595" y="1809" on="1"/>
        <pt x="841" y="1809" on="1"/>
      </contour>
    </TTGlyph>
    <TTGlyph name="Ycircumflex" xMin="0" yMin="0" xMax="1120" yMax="1809">
      <contour>
        <pt x="692" y="530" on="1"/>
        <pt x="692" y="0" on="1"/>
        <pt x="430" y="0" on="1"/>
        <pt x="430" y="530" on="1"/>
        <pt x="0" y="1405" on="1"/>
        <pt x="276" y="1405" on="1"/>
        <pt x="563" y="788" on="1"/>
        <pt x="571" y="788" on="1"/>
        <pt x="856" y="1405" on="1"/>
        <pt x="1120" y="1405" on="1"/>
      </contour>
      <contour>
        <pt x="836" y="1532" on="1"/>
        <pt x="652" y="1532" on="1"/>
        <pt x="561" y="1674" on="1"/>
        <pt x="469" y="1532" on="1"/>
        <pt x="285" y="1532" on="1"/>
        <pt x="461" y="1809" on="1"/>
        <pt x="662" y="1809" on="1"/>
      </contour>
    </TTGlyph>
    <TTGlyph name="Ydieresis" xMin="0" yMin="0" xMax="1120" yMax="1809">
      <contour>
        <pt x="692" y="530" on="1"/>
        <pt x="692" y="0" on="1"/>
        <pt x="430" y="0" on="1"/>
        <pt x="430" y="530" on="1"/>
        <pt x="0" y="1405" on="1"/>
        <pt x="276" y="1405" on="1"/>
        <pt x="563" y="788" on="1"/>
        <pt x="571" y="788" on="1"/>
        <pt x="856" y="1405" on="1"/>
        <pt x="1120" y="1405" on="1"/>
      </contour>
      <contour>
        <pt x="484" y="1585" on="1"/>
        <pt x="279" y="1585" on="1"/>
        <pt x="279" y="1809" on="1"/>
        <pt x="484" y="1809" on="1"/>
      </contour>
      <contour>
        <pt x="842" y="1585" on="1"/>
        <pt x="637" y="1585" on="1"/>
        <pt x="637" y="1809" on="1"/>
        <pt x="842" y="1809" on="1"/>
      </contour>
    </TTGlyph>
    <TTGlyph name="Ygrave" xMin="0" yMin="0" xMax="1120" yMax="1809">
      <contour>
        <pt x="692" y="530" on="1"/>
        <pt x="692" y="0" on="1"/>
        <pt x="430" y="0" on="1"/>
        <pt x="430" y="530" on="1"/>
        <pt x="0" y="1405" on="1"/>
        <pt x="276" y="1405" on="1"/>
        <pt x="563" y="788" on="1"/>
        <pt x="571" y="788" on="1"/>
        <pt x="856" y="1405" on="1"/>
        <pt x="1120" y="1405" on="1"/>
      </contour>
      <contour>
        <pt x="701" y="1538" on="1"/>
        <pt x="498" y="1538" on="1"/>
        <pt x="277" y="1803" on="1"/>
        <pt x="279" y="1809" on="1"/>
        <pt x="525" y="1809" on="1"/>
      </contour>
    </TTGlyph>
    <TTGlyph name="Z" xMin="33" yMin="0" xMax="983" yMax="1405">
      <contour>
        <pt x="969" y="1303" on="1"/>
        <pt x="391" y="233" on="1"/>
        <pt x="983" y="233" on="1"/>
        <pt x="983" y="0" on="1"/>
        <pt x="33" y="0" on="1"/>
        <pt x="33" y="100" on="1"/>
        <pt x="610" y="1171" on="1"/>
        <pt x="76" y="1171" on="1"/>
        <pt x="76" y="1405" on="1"/>
        <pt x="969" y="1405" on="1"/>
      </contour>
    </TTGlyph>
    <TTGlyph name="Zacute" xMin="33" yMin="0" xMax="983" yMax="1809">
      <contour>
        <pt x="969" y="1303" on="1"/>
        <pt x="391" y="233" on="1"/>
        <pt x="983" y="233" on="1"/>
        <pt x="983" y="0" on="1"/>
        <pt x="33" y="0" on="1"/>
        <pt x="33" y="100" on="1"/>
        <pt x="610" y="1171" on="1"/>
        <pt x="76" y="1171" on="1"/>
        <pt x="76" y="1405" on="1"/>
        <pt x="969" y="1405" on="1"/>
      </contour>
      <contour>
        <pt x="796" y="1803" on="1"/>
        <pt x="575" y="1538" on="1"/>
        <pt x="372" y="1538" on="1"/>
        <pt x="548" y="1809" on="1"/>
        <pt x="794" y="1809" on="1"/>
      </contour>
    </TTGlyph>
    <TTGlyph name="Zcaron" xMin="33" yMin="0" xMax="983" yMax="1809">
      <contour>
        <pt x="969" y="1303" on="1"/>
        <pt x="391" y="233" on="1"/>
        <pt x="983" y="233" on="1"/>
        <pt x="983" y="0" on="1"/>
        <pt x="33" y="0" on="1"/>
        <pt x="33" y="100" on="1"/>
        <pt x="610" y="1171" on="1"/>
        <pt x="76" y="1171" on="1"/>
        <pt x="76" y="1405" on="1"/>
        <pt x="969" y="1405" on="1"/>
      </contour>
      <contour>
        <pt x="615" y="1532" on="1"/>
        <pt x="414" y="1532" on="1"/>
        <pt x="238" y="1809" on="1"/>
        <pt x="422" y="1809" on="1"/>
        <pt x="514" y="1667" on="1"/>
        <pt x="605" y="1809" on="1"/>
        <pt x="789" y="1809" on="1"/>
      </contour>
    </TTGlyph>
    <TTGlyph name="Zdotaccent" xMin="33" yMin="0" xMax="983" yMax="1809">
      <contour>
        <pt x="969" y="1303" on="1"/>
        <pt x="391" y="233" on="1"/>
        <pt x="983" y="233" on="1"/>
        <pt x="983" y="0" on="1"/>
        <pt x="33" y="0" on="1"/>
        <pt x="33" y="100" on="1"/>
        <pt x="610" y="1171" on="1"/>
        <pt x="76" y="1171" on="1"/>
        <pt x="76" y="1405" on="1"/>
        <pt x="969" y="1405" on="1"/>
      </contour>
      <contour>
        <pt x="623" y="1573" on="1"/>
        <pt x="404" y="1573" on="1"/>
        <pt x="404" y="1809" on="1"/>
        <pt x="623" y="1809" on="1"/>
      </contour>
    </TTGlyph>
    <TTGlyph name="a" xMin="29" yMin="-25" xMax="918" yMax="1102">
      <contour>
        <pt x="444" y="1102" on="1"/>
        <pt x="631" y="1102" on="0"/>
        <pt x="811" y="935" on="0"/>
        <pt x="811" y="784" on="1"/>
        <pt x="811" y="254" on="1"/>
        <pt x="811" y="216" on="0"/>
        <pt x="847" y="182" on="0"/>
        <pt x="868" y="182" on="1"/>
        <pt x="918" y="182" on="1"/>
        <pt x="918" y="8" on="1"/>
        <pt x="898" y="-3" on="0"/>
        <pt x="828" y="-25" on="0"/>
        <pt x="772" y="-25" on="1"/>
        <pt x="698" y="-25" on="0"/>
        <pt x="600" y="54" on="0"/>
        <pt x="582" y="117" on="1"/>
        <pt x="571" y="117" on="1"/>
        <pt x="548" y="85" on="0"/>
        <pt x="498" y="32" on="0"/>
        <pt x="434" y="-5" on="0"/>
        <pt x="353" y="-25" on="0"/>
        <pt x="299" y="-25" on="1"/>
        <pt x="261" y="-25" on="0"/>
        <pt x="168" y="0" on="0"/>
        <pt x="85" y="67" on="0"/>
        <pt x="29" y="185" on="0"/>
        <pt x="29" y="279" on="1"/>
        <pt x="29" y="388" on="0"/>
        <pt x="108" y="532" on="0"/>
        <pt x="249" y="619" on="0"/>
        <pt x="446" y="655" on="0"/>
        <pt x="563" y="655" on="1"/>
        <pt x="563" y="768" on="1"/>
        <pt x="563" y="796" on="0"/>
        <pt x="554" y="844" on="0"/>
        <pt x="530" y="880" on="0"/>
        <pt x="486" y="901" on="0"/>
        <pt x="451" y="901" on="1"/>
        <pt x="413" y="901" on="0"/>
        <pt x="363" y="880" on="0"/>
        <pt x="334" y="848" on="0"/>
        <pt x="322" y="807" on="0"/>
        <pt x="322" y="788" on="1"/>
        <pt x="322" y="758" on="1"/>
        <pt x="82" y="758" on="1"/>
        <pt x="80" y="767" on="0"/>
        <pt x="80" y="778" on="1"/>
        <pt x="80" y="803" on="1"/>
        <pt x="80" y="870" on="0"/>
        <pt x="132" y="981" on="0"/>
        <pt x="227" y="1059" on="0"/>
        <pt x="361" y="1102" on="0"/>
      </contour>
      <contour>
        <pt x="563" y="477" on="1"/>
        <pt x="509" y="477" on="0"/>
        <pt x="408" y="461" on="0"/>
        <pt x="329" y="421" on="0"/>
        <pt x="281" y="353" on="0"/>
        <pt x="281" y="301" on="1"/>
        <pt x="281" y="245" on="0"/>
        <pt x="338" y="180" on="0"/>
        <pt x="401" y="180" on="1"/>
        <pt x="445" y="180" on="0"/>
        <pt x="506" y="218" on="0"/>
        <pt x="545" y="283" on="0"/>
        <pt x="563" y="368" on="0"/>
        <pt x="563" y="416" on="1"/>
      </contour>
    </TTGlyph>
    <TTGlyph name="aacute" xMin="29" yMin="-25" xMax="918" yMax="1481">
      <contour>
        <pt x="444" y="1102" on="1"/>
        <pt x="631" y="1102" on="0"/>
        <pt x="811" y="935" on="0"/>
        <pt x="811" y="784" on="1"/>
        <pt x="811" y="254" on="1"/>
        <pt x="811" y="216" on="0"/>
        <pt x="847" y="182" on="0"/>
        <pt x="868" y="182" on="1"/>
        <pt x="918" y="182" on="1"/>
        <pt x="918" y="8" on="1"/>
        <pt x="898" y="-3" on="0"/>
        <pt x="828" y="-25" on="0"/>
        <pt x="772" y="-25" on="1"/>
        <pt x="698" y="-25" on="0"/>
        <pt x="600" y="54" on="0"/>
        <pt x="582" y="117" on="1"/>
        <pt x="571" y="117" on="1"/>
        <pt x="548" y="85" on="0"/>
        <pt x="498" y="32" on="0"/>
        <pt x="434" y="-5" on="0"/>
        <pt x="353" y="-25" on="0"/>
        <pt x="299" y="-25" on="1"/>
        <pt x="261" y="-25" on="0"/>
        <pt x="168" y="0" on="0"/>
        <pt x="85" y="67" on="0"/>
        <pt x="29" y="185" on="0"/>
        <pt x="29" y="279" on="1"/>
        <pt x="29" y="388" on="0"/>
        <pt x="108" y="532" on="0"/>
        <pt x="249" y="619" on="0"/>
        <pt x="446" y="655" on="0"/>
        <pt x="563" y="655" on="1"/>
        <pt x="563" y="768" on="1"/>
        <pt x="563" y="796" on="0"/>
        <pt x="554" y="844" on="0"/>
        <pt x="530" y="880" on="0"/>
        <pt x="486" y="901" on="0"/>
        <pt x="451" y="901" on="1"/>
        <pt x="413" y="901" on="0"/>
        <pt x="363" y="880" on="0"/>
        <pt x="334" y="848" on="0"/>
        <pt x="322" y="807" on="0"/>
        <pt x="322" y="788" on="1"/>
        <pt x="322" y="758" on="1"/>
        <pt x="82" y="758" on="1"/>
        <pt x="80" y="767" on="0"/>
        <pt x="80" y="778" on="1"/>
        <pt x="80" y="803" on="1"/>
        <pt x="80" y="870" on="0"/>
        <pt x="132" y="981" on="0"/>
        <pt x="227" y="1059" on="0"/>
        <pt x="361" y="1102" on="0"/>
      </contour>
      <contour>
        <pt x="563" y="477" on="1"/>
        <pt x="509" y="477" on="0"/>
        <pt x="408" y="461" on="0"/>
        <pt x="329" y="421" on="0"/>
        <pt x="281" y="353" on="0"/>
        <pt x="281" y="301" on="1"/>
        <pt x="281" y="245" on="0"/>
        <pt x="338" y="180" on="0"/>
        <pt x="401" y="180" on="1"/>
        <pt x="445" y="180" on="0"/>
        <pt x="506" y="218" on="0"/>
        <pt x="545" y="283" on="0"/>
        <pt x="563" y="368" on="0"/>
        <pt x="563" y="416" on="1"/>
      </contour>
      <contour>
        <pt x="727" y="1475" on="1"/>
        <pt x="506" y="1210" on="1"/>
        <pt x="303" y="1210" on="1"/>
        <pt x="479" y="1481" on="1"/>
        <pt x="725" y="1481" on="1"/>
      </contour>
    </TTGlyph>
    <TTGlyph name="abreve" xMin="29" yMin="-25" xMax="918" yMax="1481">
      <contour>
        <pt x="444" y="1102" on="1"/>
        <pt x="631" y="1102" on="0"/>
        <pt x="811" y="935" on="0"/>
        <pt x="811" y="784" on="1"/>
        <pt x="811" y="254" on="1"/>
        <pt x="811" y="216" on="0"/>
        <pt x="847" y="182" on="0"/>
        <pt x="868" y="182" on="1"/>
        <pt x="918" y="182" on="1"/>
        <pt x="918" y="8" on="1"/>
        <pt x="898" y="-3" on="0"/>
        <pt x="828" y="-25" on="0"/>
        <pt x="772" y="-25" on="1"/>
        <pt x="698" y="-25" on="0"/>
        <pt x="600" y="54" on="0"/>
        <pt x="582" y="117" on="1"/>
        <pt x="571" y="117" on="1"/>
        <pt x="548" y="85" on="0"/>
        <pt x="498" y="32" on="0"/>
        <pt x="434" y="-5" on="0"/>
        <pt x="353" y="-25" on="0"/>
        <pt x="299" y="-25" on="1"/>
        <pt x="261" y="-25" on="0"/>
        <pt x="168" y="0" on="0"/>
        <pt x="85" y="67" on="0"/>
        <pt x="29" y="185" on="0"/>
        <pt x="29" y="279" on="1"/>
        <pt x="29" y="388" on="0"/>
        <pt x="108" y="532" on="0"/>
        <pt x="249" y="619" on="0"/>
        <pt x="446" y="655" on="0"/>
        <pt x="563" y="655" on="1"/>
        <pt x="563" y="768" on="1"/>
        <pt x="563" y="796" on="0"/>
        <pt x="554" y="844" on="0"/>
        <pt x="530" y="880" on="0"/>
        <pt x="486" y="901" on="0"/>
        <pt x="451" y="901" on="1"/>
        <pt x="413" y="901" on="0"/>
        <pt x="363" y="880" on="0"/>
        <pt x="334" y="848" on="0"/>
        <pt x="322" y="807" on="0"/>
        <pt x="322" y="788" on="1"/>
        <pt x="322" y="758" on="1"/>
        <pt x="82" y="758" on="1"/>
        <pt x="80" y="767" on="0"/>
        <pt x="80" y="778" on="1"/>
        <pt x="80" y="803" on="1"/>
        <pt x="80" y="870" on="0"/>
        <pt x="132" y="981" on="0"/>
        <pt x="227" y="1059" on="0"/>
        <pt x="361" y="1102" on="0"/>
      </contour>
      <contour>
        <pt x="718" y="1481" on="1"/>
        <pt x="718" y="1442" on="0"/>
        <pt x="680" y="1364" on="0"/>
        <pt x="609" y="1301" on="0"/>
        <pt x="507" y="1262" on="0"/>
        <pt x="443" y="1262" on="1"/>
        <pt x="380" y="1262" on="0"/>
        <pt x="279" y="1301" on="0"/>
        <pt x="209" y="1364" on="0"/>
        <pt x="171" y="1442" on="0"/>
        <pt x="171" y="1481" on="1"/>
        <pt x="323" y="1481" on="1"/>
        <pt x="325" y="1470" on="0"/>
        <pt x="344" y="1446" on="0"/>
        <pt x="376" y="1426" on="0"/>
        <pt x="418" y="1413" on="0"/>
        <pt x="443" y="1413" on="1"/>
        <pt x="469" y="1413" on="0"/>
        <pt x="513" y="1426" on="0"/>
        <pt x="545" y="1446" on="0"/>
        <pt x="564" y="1470" on="0"/>
        <pt x="566" y="1481" on="1"/>
      </contour>
      <contour>
        <pt x="563" y="477" on="1"/>
        <pt x="509" y="477" on="0"/>
        <pt x="408" y="461" on="0"/>
        <pt x="329" y="421" on="0"/>
        <pt x="281" y="353" on="0"/>
        <pt x="281" y="301" on="1"/>
        <pt x="281" y="245" on="0"/>
        <pt x="338" y="180" on="0"/>
        <pt x="401" y="180" on="1"/>
        <pt x="445" y="180" on="0"/>
        <pt x="506" y="218" on="0"/>
        <pt x="545" y="283" on="0"/>
        <pt x="563" y="368" on="0"/>
        <pt x="563" y="416" on="1"/>
      </contour>
    </TTGlyph>
    <TTGlyph name="acircumflex" xMin="29" yMin="-25" xMax="918" yMax="1481">
      <contour>
        <pt x="444" y="1102" on="1"/>
        <pt x="631" y="1102" on="0"/>
        <pt x="811" y="935" on="0"/>
        <pt x="811" y="784" on="1"/>
        <pt x="811" y="254" on="1"/>
        <pt x="811" y="216" on="0"/>
        <pt x="847" y="182" on="0"/>
        <pt x="868" y="182" on="1"/>
        <pt x="918" y="182" on="1"/>
        <pt x="918" y="8" on="1"/>
        <pt x="898" y="-3" on="0"/>
        <pt x="828" y="-25" on="0"/>
        <pt x="772" y="-25" on="1"/>
        <pt x="698" y="-25" on="0"/>
        <pt x="600" y="54" on="0"/>
        <pt x="582" y="117" on="1"/>
        <pt x="571" y="117" on="1"/>
        <pt x="548" y="85" on="0"/>
        <pt x="498" y="32" on="0"/>
        <pt x="434" y="-5" on="0"/>
        <pt x="353" y="-25" on="0"/>
        <pt x="299" y="-25" on="1"/>
        <pt x="261" y="-25" on="0"/>
        <pt x="168" y="0" on="0"/>
        <pt x="85" y="67" on="0"/>
        <pt x="29" y="185" on="0"/>
        <pt x="29" y="279" on="1"/>
        <pt x="29" y="388" on="0"/>
        <pt x="108" y="532" on="0"/>
        <pt x="249" y="619" on="0"/>
        <pt x="446" y="655" on="0"/>
        <pt x="563" y="655" on="1"/>
        <pt x="563" y="768" on="1"/>
        <pt x="563" y="796" on="0"/>
        <pt x="554" y="844" on="0"/>
        <pt x="530" y="880" on="0"/>
        <pt x="486" y="901" on="0"/>
        <pt x="451" y="901" on="1"/>
        <pt x="413" y="901" on="0"/>
        <pt x="363" y="880" on="0"/>
        <pt x="334" y="848" on="0"/>
        <pt x="322" y="807" on="0"/>
        <pt x="322" y="788" on="1"/>
        <pt x="322" y="758" on="1"/>
        <pt x="82" y="758" on="1"/>
        <pt x="80" y="767" on="0"/>
        <pt x="80" y="778" on="1"/>
        <pt x="80" y="803" on="1"/>
        <pt x="80" y="870" on="0"/>
        <pt x="132" y="981" on="0"/>
        <pt x="227" y="1059" on="0"/>
        <pt x="361" y="1102" on="0"/>
      </contour>
      <contour>
        <pt x="720" y="1204" on="1"/>
        <pt x="536" y="1204" on="1"/>
        <pt x="445" y="1346" on="1"/>
        <pt x="353" y="1204" on="1"/>
        <pt x="169" y="1204" on="1"/>
        <pt x="345" y="1481" on="1"/>
        <pt x="546" y="1481" on="1"/>
      </contour>
      <contour>
        <pt x="563" y="477" on="1"/>
        <pt x="509" y="477" on="0"/>
        <pt x="408" y="461" on="0"/>
        <pt x="329" y="421" on="0"/>
        <pt x="281" y="353" on="0"/>
        <pt x="281" y="301" on="1"/>
        <pt x="281" y="245" on="0"/>
        <pt x="338" y="180" on="0"/>
        <pt x="401" y="180" on="1"/>
        <pt x="445" y="180" on="0"/>
        <pt x="506" y="218" on="0"/>
        <pt x="545" y="283" on="0"/>
        <pt x="563" y="368" on="0"/>
        <pt x="563" y="416" on="1"/>
      </contour>
    </TTGlyph>
    <TTGlyph name="acute" xMin="98" yMin="1210" xMax="522" yMax="1481">
      <contour>
        <pt x="522" y="1475" on="1"/>
        <pt x="301" y="1210" on="1"/>
        <pt x="98" y="1210" on="1"/>
        <pt x="274" y="1481" on="1"/>
        <pt x="520" y="1481" on="1"/>
      </contour>
    </TTGlyph>
    <TTGlyph name="adieresis" xMin="29" yMin="-25" xMax="918" yMax="1481">
      <contour>
        <pt x="444" y="1102" on="1"/>
        <pt x="631" y="1102" on="0"/>
        <pt x="811" y="935" on="0"/>
        <pt x="811" y="784" on="1"/>
        <pt x="811" y="254" on="1"/>
        <pt x="811" y="216" on="0"/>
        <pt x="847" y="182" on="0"/>
        <pt x="868" y="182" on="1"/>
        <pt x="918" y="182" on="1"/>
        <pt x="918" y="8" on="1"/>
        <pt x="898" y="-3" on="0"/>
        <pt x="828" y="-25" on="0"/>
        <pt x="772" y="-25" on="1"/>
        <pt x="698" y="-25" on="0"/>
        <pt x="600" y="54" on="0"/>
        <pt x="582" y="117" on="1"/>
        <pt x="571" y="117" on="1"/>
        <pt x="548" y="85" on="0"/>
        <pt x="498" y="32" on="0"/>
        <pt x="434" y="-5" on="0"/>
        <pt x="353" y="-25" on="0"/>
        <pt x="299" y="-25" on="1"/>
        <pt x="261" y="-25" on="0"/>
        <pt x="168" y="0" on="0"/>
        <pt x="85" y="67" on="0"/>
        <pt x="29" y="185" on="0"/>
        <pt x="29" y="279" on="1"/>
        <pt x="29" y="388" on="0"/>
        <pt x="108" y="532" on="0"/>
        <pt x="249" y="619" on="0"/>
        <pt x="446" y="655" on="0"/>
        <pt x="563" y="655" on="1"/>
        <pt x="563" y="768" on="1"/>
        <pt x="563" y="796" on="0"/>
        <pt x="554" y="844" on="0"/>
        <pt x="530" y="880" on="0"/>
        <pt x="486" y="901" on="0"/>
        <pt x="451" y="901" on="1"/>
        <pt x="413" y="901" on="0"/>
        <pt x="363" y="880" on="0"/>
        <pt x="334" y="848" on="0"/>
        <pt x="322" y="807" on="0"/>
        <pt x="322" y="788" on="1"/>
        <pt x="322" y="758" on="1"/>
        <pt x="82" y="758" on="1"/>
        <pt x="80" y="767" on="0"/>
        <pt x="80" y="778" on="1"/>
        <pt x="80" y="803" on="1"/>
        <pt x="80" y="870" on="0"/>
        <pt x="132" y="981" on="0"/>
        <pt x="227" y="1059" on="0"/>
        <pt x="361" y="1102" on="0"/>
      </contour>
      <contour>
        <pt x="563" y="477" on="1"/>
        <pt x="509" y="477" on="0"/>
        <pt x="408" y="461" on="0"/>
        <pt x="329" y="421" on="0"/>
        <pt x="281" y="353" on="0"/>
        <pt x="281" y="301" on="1"/>
        <pt x="281" y="245" on="0"/>
        <pt x="338" y="180" on="0"/>
        <pt x="401" y="180" on="1"/>
        <pt x="445" y="180" on="0"/>
        <pt x="506" y="218" on="0"/>
        <pt x="545" y="283" on="0"/>
        <pt x="563" y="368" on="0"/>
        <pt x="563" y="416" on="1"/>
      </contour>
      <contour>
        <pt x="368" y="1257" on="1"/>
        <pt x="163" y="1257" on="1"/>
        <pt x="163" y="1481" on="1"/>
        <pt x="368" y="1481" on="1"/>
      </contour>
      <contour>
        <pt x="726" y="1257" on="1"/>
        <pt x="521" y="1257" on="1"/>
        <pt x="521" y="1481" on="1"/>
        <pt x="726" y="1481" on="1"/>
      </contour>
    </TTGlyph>
    <TTGlyph name="ae" xMin="76" yMin="-25" xMax="1413" yMax="1102">
      <contour>
        <pt x="1024" y="1102" on="1"/>
        <pt x="1219" y="1102" on="0"/>
        <pt x="1413" y="829" on="0"/>
        <pt x="1413" y="539" on="1"/>
        <pt x="1413" y="477" on="1"/>
        <pt x="866" y="477" on="1"/>
        <pt x="867" y="405" on="0"/>
        <pt x="885" y="293" on="0"/>
        <pt x="924" y="216" on="0"/>
        <pt x="987" y="176" on="0"/>
        <pt x="1032" y="176" on="1"/>
        <pt x="1095" y="176" on="0"/>
        <pt x="1169" y="284" on="0"/>
        <pt x="1169" y="381" on="1"/>
        <pt x="1413" y="381" on="1"/>
        <pt x="1413" y="277" on="0"/>
        <pt x="1356" y="124" on="0"/>
        <pt x="1254" y="24" on="0"/>
        <pt x="1114" y="-25" on="0"/>
        <pt x="1032" y="-25" on="1"/>
        <pt x="924" y="-25" on="0"/>
        <pt x="763" y="47" on="0"/>
        <pt x="711" y="121" on="1"/>
        <pt x="682" y="89" on="0"/>
        <pt x="615" y="35" on="0"/>
        <pt x="537" y="-4" on="0"/>
        <pt x="443" y="-25" on="0"/>
        <pt x="387" y="-25" on="1"/>
        <pt x="343" y="-25" on="0"/>
        <pt x="235" y="0" on="0"/>
        <pt x="140" y="67" on="0"/>
        <pt x="76" y="185" on="0"/>
        <pt x="76" y="279" on="1"/>
        <pt x="76" y="388" on="0"/>
        <pt x="155" y="532" on="0"/>
        <pt x="296" y="619" on="0"/>
        <pt x="493" y="655" on="0"/>
        <pt x="610" y="655" on="1"/>
        <pt x="610" y="768" on="1"/>
        <pt x="610" y="796" on="0"/>
        <pt x="601" y="844" on="0"/>
        <pt x="577" y="880" on="0"/>
        <pt x="533" y="901" on="0"/>
        <pt x="498" y="901" on="1"/>
        <pt x="460" y="901" on="0"/>
        <pt x="410" y="880" on="0"/>
        <pt x="381" y="848" on="0"/>
        <pt x="369" y="807" on="0"/>
        <pt x="369" y="788" on="1"/>
        <pt x="369" y="758" on="1"/>
        <pt x="129" y="758" on="1"/>
        <pt x="127" y="767" on="0"/>
        <pt x="127" y="778" on="1"/>
        <pt x="127" y="803" on="1"/>
        <pt x="127" y="870" on="0"/>
        <pt x="179" y="981" on="0"/>
        <pt x="274" y="1059" on="0"/>
        <pt x="409" y="1102" on="0"/>
        <pt x="492" y="1102" on="1"/>
        <pt x="584" y="1102" on="0"/>
        <pt x="722" y="1049" on="0"/>
        <pt x="768" y="999" on="1"/>
        <pt x="818" y="1052" on="0"/>
        <pt x="946" y="1102" on="0"/>
      </contour>
      <contour>
        <pt x="610" y="477" on="1"/>
        <pt x="556" y="477" on="0"/>
        <pt x="455" y="461" on="0"/>
        <pt x="376" y="421" on="0"/>
        <pt x="328" y="353" on="0"/>
        <pt x="328" y="301" on="1"/>
        <pt x="328" y="245" on="0"/>
        <pt x="386" y="180" on="0"/>
        <pt x="449" y="180" on="1"/>
        <pt x="492" y="180" on="0"/>
        <pt x="554" y="218" on="0"/>
        <pt x="592" y="283" on="0"/>
        <pt x="610" y="368" on="0"/>
        <pt x="610" y="416" on="1"/>
      </contour>
      <contour>
        <pt x="1024" y="901" on="1"/>
        <pt x="946" y="901" on="0"/>
        <pt x="875" y="773" on="0"/>
        <pt x="868" y="655" on="1"/>
        <pt x="1155" y="655" on="1"/>
        <pt x="1155" y="773" on="0"/>
        <pt x="1092" y="901" on="0"/>
      </contour>
    </TTGlyph>
</ttFont>
